<svg xmlns="http://www.w3.org/2000/svg" width="52.425" height="51.15" viewBox="0 0 52.425 51.15"><defs><style>.a{fill:#e2d9ae;}.b{fill:#a16e39;}.c{fill:#eee4b7;}.d{fill:#c48647;}</style></defs><g transform="translate(-997.825 -518.45)"><path class="a" d="M1030.05,564.2a1.338,1.338,0,0,0-.25-.35,2.927,2.927,0,0,0-3.65.05.447.447,0,0,0-.25.3,1.022,1.022,0,0,0,0,.45l1.45,4.45a.63.63,0,0,0,.25.35.541.541,0,0,0,.4.15.665.665,0,0,0,.4-.15,1.335,1.335,0,0,0,.25-.35l1.4-4.45A1.022,1.022,0,0,0,1030.05,564.2Z"/><path class="b" d="M1027.2,518.7a.756.756,0,0,0-.25.3l-1.45,4.45a.765.765,0,0,0,.05.45.486.486,0,0,0,.2.3,2.924,2.924,0,0,0,3.65.05,3.27,3.27,0,0,0,.3-.35,2.544,2.544,0,0,0-.05-.5l-1.4-4.4a1.334,1.334,0,0,0-.25-.35,2.188,2.188,0,0,0-.4-.2A.64.64,0,0,0,1027.2,518.7Z"/><path class="b" d="M1014.15,539.95q2.45-2.35,0-4.7l-5.1-5.05q-2.45-2.35-4.85,0l-5.15,5.05q-2.45,2.35,0,4.7l5.15,5.05q2.4,2.35,4.85,0Z"/><path class="c" d="M1050.1,541.6a24.452,24.452,0,0,1-20.2-.65,3.43,3.43,0,0,0-.7-.35,25.093,25.093,0,0,0-22.5-.35,1.108,1.108,0,0,0-.05.35,21.887,21.887,0,0,0-.3,3.7,21.965,21.965,0,0,0,43.8,2.3q.1-1.15.1-2.3A23.56,23.56,0,0,0,1050.1,541.6Z"/><path class="d" d="M1050.1,541.6a22.2,22.2,0,0,0-15.85-18.5,23.285,23.285,0,0,0-5.95-.75,21.876,21.876,0,0,0-21.6,17.9,25.093,25.093,0,0,1,22.5.35,3.43,3.43,0,0,1,.7.35A24.452,24.452,0,0,0,1050.1,541.6Z"/><path class="b" d="M1039.9,533.9a1.75,1.75,0,0,0-.5,1.2,1.807,1.807,0,0,0,.5,1.25,1.723,1.723,0,0,0,1.25.55,1.472,1.472,0,0,0,1.2-.55,1.659,1.659,0,0,0,.6-1.25,1.614,1.614,0,0,0-.6-1.2,1.472,1.472,0,0,0-1.2-.55A1.723,1.723,0,0,0,1039.9,533.9Z"/><path class="b" d="M1031.85,541.2v-5.75a1.146,1.146,0,0,0-.15-.6,1.055,1.055,0,0,0-.5-.35,17.591,17.591,0,0,0-8.45-.9.678.678,0,0,0-.5.2.91.91,0,0,0-.3.4,15.492,15.492,0,0,0,0,12.65,1.141,1.141,0,0,0,.5.55.974.974,0,0,0,.75,0,20.453,20.453,0,0,0,8.4-5.5A1.061,1.061,0,0,0,1031.85,541.2Z"/><path class="a" d="M1040.75,559.8a.42.42,0,0,0,.05.35,1.084,1.084,0,0,0,.3.35l4.15,2.1a.681.681,0,0,0,.45.05.461.461,0,0,0,.4-.1,1.177,1.177,0,0,0,.15-.45,1.644,1.644,0,0,0-.05-.4l-2.15-4.1a1.084,1.084,0,0,0-.3-.35,1.228,1.228,0,0,0-.45-.1A2.965,2.965,0,0,0,1040.75,559.8Z"/><path class="a" d="M1008.1,560.1a.461.461,0,0,0,.1.4,1.178,1.178,0,0,0,.45.15,1.641,1.641,0,0,0,.4-.05l4.1-2.15a1.085,1.085,0,0,0,.35-.3,1.229,1.229,0,0,0,.1-.45,2.965,2.965,0,0,0-2.65-2.55.42.42,0,0,0-.35.05,1.083,1.083,0,0,0-.35.3l-2.1,4.15A.681.681,0,0,0,1008.1,560.1Z"/><path class="b" d="M1018.3,525.5a1.083,1.083,0,0,0-.3-.35l-4.15-2.1a.681.681,0,0,0-.45-.05.461.461,0,0,0-.4.1,1.178,1.178,0,0,0-.15.45,1.641,1.641,0,0,0,.05.4l2.15,4.1a1.086,1.086,0,0,0,.3.35,1.229,1.229,0,0,0,.45.1,2.965,2.965,0,0,0,2.55-2.65A.42.42,0,0,0,1018.3,525.5Z"/><path class="b" d="M1043.45,523.1a.461.461,0,0,0-.4-.1.682.682,0,0,0-.45.05l-4.15,2.1a1.084,1.084,0,0,0-.3.35.421.421,0,0,0-.05.35,2.965,2.965,0,0,0,2.55,2.65,1.228,1.228,0,0,0,.45-.1,1.085,1.085,0,0,0,.3-.35l2.15-4.1a1.644,1.644,0,0,0,.05-.4A1.175,1.175,0,0,0,1043.45,523.1Z"/></g></svg>