<svg xmlns="http://www.w3.org/2000/svg" width="55.649" height="43.48" viewBox="0 0 55.649 43.48"><defs><style>.a{fill:#bf3d31;}.b{fill:#e74c3c;}.c{fill:#f5503f;}</style></defs><g transform="translate(-612.2 -426.25)"><path class="a" d="M625.1,439.55a5.7,5.7,0,0,0-3.8-1.65,3.493,3.493,0,0,0-2.55,1.65l-5.3,7a4.721,4.721,0,0,0,0,6.4l5.3,6.95a3.528,3.528,0,0,0,2.55,1.55,5.882,5.882,0,0,0,3.8-1.55l8.2-6.95q3.95-3.25,0-6.4Z"/><path class="a" d="M655.85,459.7a1.854,1.854,0,0,0-1-.25,41.465,41.465,0,0,1-18.25-2.95,8.086,8.086,0,0,0-.95-.15,3.251,3.251,0,0,0-.7.4,4.179,4.179,0,0,0-.5.9l-1.35,6.75a.908.908,0,0,0,.15.85,1.211,1.211,0,0,0,.65.8q8.55,4.6,20.3,3.45a1.58,1.58,0,0,0,.9-.4,1.555,1.555,0,0,0,.5-.95l1.05-6.9a1.11,1.11,0,0,0-.15-.95A1.6,1.6,0,0,0,655.85,459.7Z"/><path class="a" d="M657.6,441.65a1.8,1.8,0,0,0,.85-.55,1.392,1.392,0,0,0,.3-.85V427.7a1.42,1.42,0,0,0-.4-1.05,1.6,1.6,0,0,0-1.1-.4A42.166,42.166,0,0,0,632,434.4a1.207,1.207,0,0,0-.5.85,1.493,1.493,0,0,0,.05,1l4.2,9a1.208,1.208,0,0,0,.7.7,1.007,1.007,0,0,0,1,.15Z"/><path class="b" d="M654.7,465.55a73.38,73.38,0,0,1,0-30.95,58.811,58.811,0,0,0-19.15,4.3q-10.5,4.6-10.5,11.15,0,6.5,10.5,11.05A59.635,59.635,0,0,0,654.7,465.55Z"/><path class="c" d="M657.15,434.45q-1.2.05-2.45.15a73.38,73.38,0,0,0,0,30.95l2.45.1q1,.05,2,.05h1.25q2.95-.25,5.15-4.6a24.281,24.281,0,0,0,2.3-11.05,24.722,24.722,0,0,0-2.3-11.15q-2.2-4.25-5.15-4.5v-.05h-.3a8.612,8.612,0,0,0-.95.05q-1,0-2,.05m6.25,13.8a1.614,1.614,0,0,1-1.35.65,1.8,1.8,0,0,1-1.35-.65,1.835,1.835,0,0,1-.55-1.35,1.947,1.947,0,0,1,.55-1.35,1.865,1.865,0,0,1,1.35-.6,1.666,1.666,0,0,1,1.35.6,1.8,1.8,0,0,1,.65,1.35A1.7,1.7,0,0,1,663.4,448.25Z"/><path class="a" d="M662.05,448.9a1.614,1.614,0,0,0,1.35-.65,1.7,1.7,0,0,0,.65-1.35,1.8,1.8,0,0,0-.65-1.35,1.666,1.666,0,0,0-1.35-.6,1.865,1.865,0,0,0-1.35.6,1.947,1.947,0,0,0-.55,1.35,1.835,1.835,0,0,0,.55,1.35A1.8,1.8,0,0,0,662.05,448.9Z"/><path class="a" d="M649.9,451.5a2.7,2.7,0,0,0-.6-.75.941.941,0,0,0-.75-.25,65.783,65.783,0,0,1-15.7-2.75,3.2,3.2,0,0,0-.8,0,1.944,1.944,0,0,0-.7.45,2.4,2.4,0,0,0-.4.7l-.35,2.9a1.712,1.712,0,0,0,.1.85,1.6,1.6,0,0,0,.65.6,48.611,48.611,0,0,0,15.3,4.85,1.6,1.6,0,0,0,1.05-.25.967.967,0,0,0,.5-.75l1.65-4.8A2.164,2.164,0,0,0,649.9,451.5Z"/></g></svg>