<svg xmlns="http://www.w3.org/2000/svg" width="54" height="37.971" viewBox="0 0 54 37.971"><defs><style>.a{fill:#2cc66d;}.b{fill:#27ae60;}.c{fill:#25a65b;}.d{fill:#1d8548;}</style></defs><g transform="translate(-37 -430)"><path class="a" d="M50.8,442.2q-3-2.9-5.95,0l-6.35,6.2q-3,2.9,0,5.8l6.35,6.2q2.95,2.9,5.95,0l6.3-6.2q3-2.9,0-5.8Z"/><path class="a" d="M81.15,467.45a1.493,1.493,0,0,0,.4-.75l.9-5.85a1.179,1.179,0,0,0-.15-.75,1.1,1.1,0,0,0-.55-.55,1.584,1.584,0,0,0-.8-.2,34.831,34.831,0,0,1-15.4-2.5,1.423,1.423,0,0,0-.75-.1,1.365,1.365,0,0,0-.65.35,1.483,1.483,0,0,0-.4.7l-1.15,5.65a.873.873,0,0,0,.15.75,1.073,1.073,0,0,0,.55.65q7.2,3.85,17.05,2.95A1.45,1.45,0,0,0,81.15,467.45Z"/><path class="a" d="M81.45,431.3a1.284,1.284,0,0,0-.35-.95,1.464,1.464,0,0,0-1-.35,37.583,37.583,0,0,0-22.75,7.35,1.262,1.262,0,0,0-.5.75,1.659,1.659,0,0,0,.05.9l3.8,8.15a1.239,1.239,0,0,0,.65.65,1.08,1.08,0,0,0,.9.1l18.2-4.05a1.2,1.2,0,0,0,1-1.25Z"/><path class="b" d="M72.3,438.55a38.649,38.649,0,0,0-13.5,3.55q-7.7,3.8-7.7,9.2,0,5.35,7.7,9.15a39.627,39.627,0,0,0,14.5,3.7q-.3-.4-.6-.75a21.991,21.991,0,0,1-.4-24.85Z"/><path class="c" d="M87.1,460.45a12.742,12.742,0,0,0,0-18.35,13.071,13.071,0,0,0-9.2-3.8h-.4q-2.7,0-5.2.25a21.991,21.991,0,0,0,.4,24.85q.3.35.6.75,2,.1,4.2.1h.4A12.8,12.8,0,0,0,87.1,460.45Z"/><path class="d" d="M84.55,447.45a2.656,2.656,0,0,0-3.8,0,2.54,2.54,0,0,0-.8,1.85,2.435,2.435,0,0,0,.8,1.85,2.656,2.656,0,0,0,3.8,0,2.435,2.435,0,0,0,.8-1.85A2.54,2.54,0,0,0,84.55,447.45Z"/><path class="a" d="M75.5,454.1a1.988,1.988,0,0,0-.5-.65,1.2,1.2,0,0,0-.7-.25A59.077,59.077,0,0,1,60,450.7a1.429,1.429,0,0,0-.75,0,1.2,1.2,0,0,0-.65.4,1.077,1.077,0,0,0-.3.65l-.35,2.7a1.2,1.2,0,0,0,.1.7.9.9,0,0,0,.55.55,42.943,42.943,0,0,0,13.95,4.4,1.39,1.39,0,0,0,.9-.2,1.073,1.073,0,0,0,.55-.65l1.45-4.4A1.946,1.946,0,0,0,75.5,454.1Z"/></g></svg>