<svg xmlns="http://www.w3.org/2000/svg" width="38.525" height="22.514" viewBox="0 0 38.525 22.514"><defs><style>.a{fill:#c985d0;}.b{fill:#d890e0;}.c{fill:#e599ee;}.d{fill:#af75b6;}</style></defs><g transform="translate(-12684.725 -294.728)"><g transform="translate(12448 -141.983)"><path class="a" d="M252.35,449.55q2.35-1.95,0-3.95l-4.9-4.25a3.2,3.2,0,0,0-4.6,0l-4.95,4.25q-2.35,2,0,3.95l4.95,4.25a3.2,3.2,0,0,0,4.6,0Z"/></g><g transform="translate(12448 -141.983)"><path class="a" d="M264.2,452.45a.81.81,0,0,0,.15-.5,1.129,1.129,0,0,0-.2-.5l-2.2-2.8a.358.358,0,0,0-.35-.2.53.53,0,0,0-.45,0,.992.992,0,0,0-.35.3,20.28,20.28,0,0,1-6.6,6.2.448.448,0,0,0-.3.3,1.228,1.228,0,0,0-.1.45,1.785,1.785,0,0,0,.15.45l2,2.8a.475.475,0,0,0,.4.2.451.451,0,0,0,.5,0A16.8,16.8,0,0,0,264.2,452.45Z"/></g><g transform="translate(12448 -141.983)"><path class="a" d="M254.25,444.15a.556.556,0,0,0,.45.3l10.1,1.85a1.859,1.859,0,0,0,.45-.05.884.884,0,0,0,.25-.4l1.65-6.35a1.231,1.231,0,0,0-.05-.6.759.759,0,0,0-.45-.4,18.9,18.9,0,0,0-13-1.1.992.992,0,0,0-.35.3,1.752,1.752,0,0,0-.1.55l.8,5.45A.673.673,0,0,0,254.25,444.15Z"/></g><g transform="translate(12448 -141.983)"><path class="b" d="M268.5,440.95a1.644,1.644,0,0,0-.4.05l-6.75,6.75,6.75,6.75h.4a6.383,6.383,0,0,0,4.75-2,6.76,6.76,0,0,0,0-9.6A6.464,6.464,0,0,0,268.5,440.95Z"/><path class="c" d="M268.1,441a59.074,59.074,0,0,0-15.2,1.9q-6.8,2-6.8,4.8t6.8,4.8q1.45.4,2.95.7a66.077,66.077,0,0,0,12.25,1.3l-6.75-6.75Z"/></g><g transform="translate(12448 -141.983)"><path class="d" d="M273.15,447a1.851,1.851,0,0,0-.65-1.4,1.816,1.816,0,0,0-1.4-.6,2.051,2.051,0,0,0-2,2,1.816,1.816,0,0,0,.6,1.4,1.851,1.851,0,0,0,1.4.65,2.246,2.246,0,0,0,2.05-2.05Z"/></g></g></svg>