<svg xmlns="http://www.w3.org/2000/svg" xmlns:xlink="http://www.w3.org/1999/xlink" width="80" height="500" viewBox="0 0 80 500"><defs><style>.a{clip-path:url(#b);}.b{fill:#b8824d;}.c{fill:#2a7db4;}.d{fill:#3498db;}.e{fill:#2ecc71;}.f{fill:#ffe0b1;}.g{fill:#25a85c;}.h{fill:#e7cba0;}.i{fill:#d7bd93;}.j{fill:#fff;}.k{fill:#7f7058;}.l{fill:#c48a51;}</style><clipPath id="b"><rect width="80" height="500"/></clipPath></defs><g id="a" class="a"><g transform="translate(-522.218 629.74)"><g transform="translate(540.393 -554.077)"><g transform="translate(0 0)"><path class="b" d="M9.854,16.188V11.032H-8.626v-.052a10.423,10.423,0,0,0-3.36,2.991v2.217Z" transform="translate(11.986 7.788)"/><path class="c" d="M9.717,11.173h.052V7.667H-8.763v3.506Z" transform="translate(12.122 7.647)"/><path class="d" d="M7.092-4.394A9.121,9.121,0,0,0,.53-7.024H.477a8.944,8.944,0,0,0-6.51,2.63,8.71,8.71,0,0,0-2.73,6.445V8.29H9.769V2.051A8.794,8.794,0,0,0,7.092-4.394Z" transform="translate(12.122 7.024)"/></g></g><g transform="translate(587.43 -530.1) rotate(180)"><path class="b" d="M21.839,0V5.156H3.36v.052A10.423,10.423,0,0,1,0,2.217V0Z"/><path class="c" d="M18.479,0h.052V3.506H0V0Z" transform="translate(3.36 5.156)"/><path class="d" d="M15.854,12.684a9.121,9.121,0,0,1-6.562,2.63H9.24a8.944,8.944,0,0,1-6.51-2.63A8.71,8.71,0,0,1,0,6.239V0H18.532V6.239A8.794,8.794,0,0,1,15.854,12.684Z" transform="translate(3.36 8.663)"/></g><g transform="translate(544.13 -577.74)"><g transform="translate(0 0)"><path class="b" d="M21.156,9.65V5.393H-19.5V9.65Z" transform="translate(19.5 22.667)"/><path class="e" d="M21.156-21.524H-19.5V6.537H21.156Z" transform="translate(19.5 21.524)"/></g></g><g transform="matrix(0.966, 0.259, -0.259, 0.966, 537, -580.358)"><g transform="translate(0 0)"><path class="f" d="M.154,15a16.091,16.091,0,0,0,7.9,3.549,47.437,47.437,0,0,0,6.86-16.232L.882,0A63.881,63.881,0,0,0,.154,15Z" transform="translate(0.942 12.542)"/><path class="g" d="M16.376,5.442,16.9,2.65.836,0Q-.515.568.317,2.792l1.507.237L15.856,5.348Z" transform="translate(0 9.513)"/><path class="e" d="M10.186.143h-.052A11.6,11.6,0,0,0,8.939,0Q3.666-.082,0,9.513l16.059,2.65.676-3.36a6.8,6.8,0,0,0-1.3-5.632A7.879,7.879,0,0,0,10.186.143Z" transform="translate(0.836)"/></g></g><g transform="translate(532.274 -557.262) rotate(14.999)"><path class="h" d="M9.176,0q2.554,2.293,4.43,7.454l.208.834V8.236Q17.047,3.7,9.176,0M1.462,6.62a12.47,12.47,0,0,0,3.075-.73A12.5,12.5,0,0,0,7.508,4.483q1.147-.73,1.042-1.2Q8.5,2.867,7.143,2.971a18.113,18.113,0,0,0-3.075.73A14.416,14.416,0,0,0,1.149,5.056q-1.2.73-1.147,1.2Q.106,6.724,1.462,6.62Z" transform="translate(1.919)"/><path class="f" d="M15.526,7.454Q13.649,2.293,11.1,0L1.035,2.658q-1.251.313-.99,1.459L.2,4.691Q3.016,17.3,10.209,15.429A22.541,22.541,0,0,0,15.265,13.5q1.668-.834,1.355-2.085l-.052-.261q-.417-1.512-.834-2.919v.052l-.208-.834M6.456,5.89a12.47,12.47,0,0,1-3.075.73q-1.355.1-1.459-.365-.052-.469,1.147-1.2A14.416,14.416,0,0,1,5.987,3.7a18.113,18.113,0,0,1,3.075-.73q1.355-.1,1.407.313.1.469-1.042,1.2A12.5,12.5,0,0,1,6.456,5.89Z"/></g><g transform="matrix(-0.966, 0.259, -0.259, -0.966, 597.306, -551.366)"><g transform="translate(0 0)"><path class="f" d="M.154,3.549A16.091,16.091,0,0,1,8.054,0a47.437,47.437,0,0,1,6.86,16.232L.882,18.551A63.881,63.881,0,0,1,.154,3.549Z" transform="translate(0.942)"/><path class="g" d="M16.376,0l.52,2.792L.836,5.442Q-.515,4.874.317,2.65l1.507-.237L15.856.095Z" transform="translate(0 16.138)"/><path class="e" d="M10.186,12.021h-.052a11.6,11.6,0,0,1-1.2.142Q3.666,12.245,0,2.65L16.059,0l.676,3.36a6.8,6.8,0,0,1-1.3,5.632A7.879,7.879,0,0,1,10.186,12.021Z" transform="translate(0.836 18.93)"/></g></g><g transform="translate(598.093 -542.698) rotate(165.001)"><path class="h" d="M9.176,8.288Q11.73,5.994,13.606.834L13.815,0V.052q3.232,4.535-4.639,8.235M1.462,1.668a12.47,12.47,0,0,1,3.075.73A12.5,12.5,0,0,1,7.508,3.805Q8.655,4.535,8.55,5q-.052.417-1.407.313a18.112,18.112,0,0,1-3.075-.73A14.416,14.416,0,0,1,1.149,3.232Q-.05,2.5,0,2.033.106,1.564,1.462,1.668Z" transform="translate(1.919 7.384)"/><path class="f" d="M15.526,8.218q-1.876,5.16-4.43,7.454L1.035,13.013Q-.216,12.7.045,11.554L.2,10.98Q3.016-1.633,10.209.243a22.541,22.541,0,0,1,5.056,1.929q1.668.834,1.355,2.085l-.052.261q-.417,1.512-.834,2.919V7.384l-.208.834M6.456,9.782a12.47,12.47,0,0,0-3.075-.73q-1.355-.1-1.459.365-.052.469,1.147,1.2a14.416,14.416,0,0,0,2.919,1.355,18.112,18.112,0,0,0,3.075.73q1.355.1,1.407-.313.1-.469-1.042-1.2A12.5,12.5,0,0,0,6.456,9.782Z"/></g><g transform="translate(538.29 -630.1)"><g transform="translate(2.035 24.133)"><path class="i" d="M-7.6,3.26A13.214,13.214,0,0,0-.142,5.293,13.214,13.214,0,0,0,7.311,3.26,6.952,6.952,0,0,0,9.865.55H-10.15A6.952,6.952,0,0,0-7.6,3.26Z" transform="translate(23.077 30.359)"/><path class="f" d="M20.556-2.934A70.987,70.987,0,0,0,20.5-24.461Q19.826-29.1,15.187-29.1H-16.452q-4.587,0-5.317,4.743a74.121,74.121,0,0,0,0,21.475q.73,4.691,5.317,4.691H15.187Q19.826,1.809,20.556-2.934Z" transform="translate(22.55 29.1)"/></g><g transform="translate(13.763 29.853)"><path class="j" d="M-4.837-16.053A3.433,3.433,0,0,0-7.495-17.2a3.765,3.765,0,0,0-2.763,1.147A4.154,4.154,0,0,0-11.3-13.239a3.963,3.963,0,0,0,1.042,2.763,3.685,3.685,0,0,0,2.763,1.2,3.366,3.366,0,0,0,2.658-1.2A3.765,3.765,0,0,0-3.69-13.239a3.94,3.94,0,0,0-1.147-2.815m8.5,10.894V-8.287H-3.481a.9.9,0,0,0-.573.208.8.8,0,0,0-.417.521.958.958,0,0,0,0,.625,3.4,3.4,0,0,0,.365.99,5.821,5.821,0,0,0,.469.782h7.3M14.553-16.053A3.433,3.433,0,0,0,11.895-17.2a3.765,3.765,0,0,0-2.763,1.147A4.154,4.154,0,0,0,8.09-13.239a3.963,3.963,0,0,0,1.042,2.763,3.685,3.685,0,0,0,2.763,1.2,3.366,3.366,0,0,0,2.658-1.2A3.765,3.765,0,0,0,15.7-13.239,3.94,3.94,0,0,0,14.553-16.053Z" transform="translate(11.3 23.885)"/><path class="b" d="M-4.376-21.2a1.015,1.015,0,0,0,.782,0,1.514,1.514,0,0,0,.573-.573,1.015,1.015,0,0,0,0-.782,1.15,1.15,0,0,0-.573-.573,5.67,5.67,0,0,0-4.691.052A6.22,6.22,0,0,0-10.891-21.1a1,1,0,0,0-.208.782.952.952,0,0,0,.417.678,1,1,0,0,0,.782.208.952.952,0,0,0,.678-.417,3.949,3.949,0,0,1,1.772-1.3A3.8,3.8,0,0,1-4.376-21.2m16.523,1.616a3.949,3.949,0,0,1,1.772,1.3.989.989,0,0,0,.73.417.916.916,0,0,0,.73-.208.952.952,0,0,0,.417-.678,1,1,0,0,0-.208-.782,6.22,6.22,0,0,0-2.606-1.981,5.551,5.551,0,0,0-4.639-.052.938.938,0,0,0-.573.573.784.784,0,0,0,0,.782,1.15,1.15,0,0,0,.573.573,1.015,1.015,0,0,0,.782,0A3.675,3.675,0,0,1,12.147-19.586Z" transform="translate(11.308 23.613)"/><path class="k" d="M6.944-6.3a4.978,4.978,0,0,0,.417-.99,1.212,1.212,0,0,0-.052-.625.845.845,0,0,0-.365-.521,1.121,1.121,0,0,0-.625-.208H3.347v3.127h-7.3a4.014,4.014,0,0,0,.782.938,6.059,6.059,0,0,0,4.43,1.876A5.971,5.971,0,0,0,5.641-4.532l.052-.052A6.6,6.6,0,0,0,6.944-6.3Z" transform="translate(11.612 24.248)"/></g><g transform="translate(33.674 37.216)"><g transform="translate(0 0)"><path class="k" d="M11.605-10.973a3.813,3.813,0,0,0,.678-2.293,4.052,4.052,0,0,0-.678-2.346,1.838,1.838,0,0,0-1.564-.938,1.963,1.963,0,0,0-1.616.938A4.3,4.3,0,0,0,7.8-13.266a4.042,4.042,0,0,0,.625,2.293,1.944,1.944,0,0,0,1.616.99A1.824,1.824,0,0,0,11.605-10.973Z" transform="translate(-7.8 16.55)"/></g></g><g transform="translate(16.108 37.216)"><g transform="translate(0 0)"><path class="k" d="M-5.245-10.973a3.813,3.813,0,0,0,.678-2.293,4.052,4.052,0,0,0-.678-2.346,1.838,1.838,0,0,0-1.564-.938,1.963,1.963,0,0,0-1.616.938,4.3,4.3,0,0,0-.625,2.346,4.042,4.042,0,0,0,.625,2.293,1.944,1.944,0,0,0,1.616.99A1.824,1.824,0,0,0-5.245-10.973Z" transform="translate(9.05 16.55)"/></g></g><g transform="translate(0 0)"><path class="b" d="M-23.51-30.879a55.583,55.583,0,0,0,1.3,26.322q5.16-4.847,5.838-17.2,4.952-18.347,41.178-30.492-26.322,5.577-40.5,12.77l-3.023,4.952Z" transform="translate(24.502 52.25)"/><path class="l" d="M1.543-23.582a60.773,60.773,0,0,0,18.5,2.241L21.089-12.9Q25.833-26.97,24.165-32.7q-2.293-7.975.313-19.546Q-11.748-40.105-16.7-21.758-9.194-26.866,1.543-23.582Z" transform="translate(24.833 52.25)"/></g></g></g><g transform="translate(-903.968 1028.551)"><g transform="translate(914.033 -710.025)"><g transform="translate(0)"><path class="f" d="M419.359,26.726a11.19,11.19,0,0,0-8.284-.629A91.9,91.9,0,0,0,412.5,50.026l12.937-3.933A121.677,121.677,0,0,0,419.359,26.726Z" transform="translate(-410.838 -25.585)"/><path class="g" d="M411.99,49.747l.8,3.793,14.8-4.506q.893-1.381-.8-3.793l-1.384.438-12.937,3.933Z" transform="translate(-410.813 -25.171)"/><path class="e" d="M423.122,65.818l.044-.025a7.85,7.85,0,0,0,1.077-.405q4.51-2.478,3.339-16.432l-14.8,4.506.926,4.589a10.985,10.985,0,0,0,3.614,6.5A5.914,5.914,0,0,0,423.122,65.818Z" transform="translate(-410.797 -25.093)"/></g></g><g transform="matrix(0.966, -0.259, 0.259, 0.966, 910.968, -715.362)"><path class="h" d="M8.987,8.117q2.5-2.246,4.339-7.3l.2-.817V.051Q16.7,4.493,8.987,8.117M1.432,1.634a12.214,12.214,0,0,1,3.012.715,12.238,12.238,0,0,1,2.91,1.378Q8.477,4.442,8.375,4.9,8.324,5.309,7,5.207a17.741,17.741,0,0,1-3.012-.715A14.12,14.12,0,0,1,1.125,3.165Q-.049,2.45,0,1.991.1,1.532,1.432,1.634Z" transform="translate(1.88 7.232)"/><path class="f" d="M15.207,8.049q-1.838,5.054-4.339,7.3l-9.853-2.6q-1.225-.306-.97-1.429L.2,10.755Q2.954-1.6,10,.238a22.078,22.078,0,0,1,4.952,1.889q1.634.817,1.327,2.042l-.051.255q-.408,1.481-.817,2.859V7.232l-.2.817M6.323,9.581a12.214,12.214,0,0,0-3.012-.715q-1.327-.1-1.429.357-.051.459,1.123,1.174a14.12,14.12,0,0,0,2.859,1.327,17.741,17.741,0,0,0,3.012.715q1.327.1,1.378-.306.1-.459-1.021-1.174A12.238,12.238,0,0,0,6.323,9.581Z"/></g><g transform="matrix(0.637, 0.771, -0.771, 0.637, 966.303, -692.9)"><g transform="translate(0 0)"><path class="f" d="M.151,2.806A17.723,17.723,0,0,1,7.888,0a34.113,34.113,0,0,1,6.719,12.834L.864,14.668A40.923,40.923,0,0,1,.151,2.806Z" transform="translate(0.923)"/><path class="g" d="M16.039,0l.509,2.208L.819,4.3Q-.5,3.854.31,2.1l1.476-.187L15.53.075Z" transform="translate(0 12.759)"/><path class="e" d="M9.977,9.5H9.926q-.593.082-1.171.112Q3.591,9.682,0,2.1L15.729,0l.662,2.657a4.611,4.611,0,0,1-1.273,4.453A8.253,8.253,0,0,1,9.977,9.5Z" transform="translate(0.819 14.967)"/></g></g><g transform="matrix(-1, 0.01, -0.01, -1, 972.074, -682.031)"><path class="h" d="M8.988,0q2.5,2.246,4.34,7.3l.2.817V8.066Q16.7,3.625,8.988,0M1.432,6.484a12.214,12.214,0,0,0,3.012-.715,12.239,12.239,0,0,0,2.91-1.378q1.123-.715,1.021-1.174Q8.324,2.808,7,2.91a17.741,17.741,0,0,0-3.012.715A14.12,14.12,0,0,0,1.125,4.952Q-.049,5.667,0,6.126.1,6.586,1.432,6.484Z" transform="translate(1.88)"/><path class="f" d="M15.207,7.3Q13.369,2.246,10.867,0L1.014,2.6q-1.225.306-.97,1.43L.2,4.595Q2.954,16.95,10,15.112a22.078,22.078,0,0,0,4.952-1.889q1.634-.817,1.327-2.042l-.051-.255q-.408-1.481-.817-2.859v.051l-.2-.817M6.324,5.769a12.214,12.214,0,0,1-3.012.715q-1.327.1-1.43-.357-.051-.459,1.123-1.174A14.12,14.12,0,0,1,5.864,3.625,17.741,17.741,0,0,1,8.876,2.91q1.327-.1,1.378.306.1.459-1.021,1.174A12.239,12.239,0,0,1,6.324,5.769Z"/></g><g transform="translate(922.275 -680.674)"><g transform="translate(0)"><path class="b" d="M418.91,91.746V87.559l39.3-6.329v4.186Z" transform="translate(-418.91 -53.763)"/><path class="e" d="M418.91,60.659l39.3-6.329V81.8l-39.3,6.329Z" transform="translate(-418.91 -54.33)"/></g></g><g transform="translate(944.281 -662.617)"><path class="b" d="M440.461,91.558l1.484-4.813L459,93.038l.015-.048a11.072,11.072,0,0,1,2.24,3.936L460.614,99Z" transform="translate(-440.461 -71.704)"/><path class="c" d="M441.915,86.813l-.048-.018,1.009-3.273,17.1,6.312-.994,3.225-.015.048Z" transform="translate(-440.431 -71.772)"/><path class="d" d="M448.976,72.836a8.541,8.541,0,0,1,6.812-.22l.048.018a9.319,9.319,0,0,1,5.25,4.672,8.968,8.968,0,0,1,.664,6.946l-1.8,5.824-17.1-6.312,1.8-5.824A8.105,8.105,0,0,1,448.976,72.836Z" transform="translate(-440.411 -72.014)"/></g><g transform="translate(919.664 -656.313)"><path class="b" d="M437.181,99.276l-.661-5.066-17.383,5.058-.007-.051a12.78,12.78,0,0,0-2.777,3.858l.284,2.178Z" transform="translate(-416.352 -77.851)"/><path class="c" d="M436.471,94.281l.049-.014-.45-3.445-17.433,5.072.443,3.394.007.051Z" transform="translate(-416.304 -77.923)"/><path class="d" d="M431.944,79.358a7.656,7.656,0,0,0-6.51-.788l-.049.014a10.849,10.849,0,0,0-7.528,11.445l.8,6.13,17.433-5.072-.8-6.13A7.543,7.543,0,0,0,431.944,79.358Z" transform="translate(-416.323 -78.189)"/></g><g transform="translate(913.634 -724.841) rotate(-4.738)"><g transform="translate(1.94 23.638)"><path class="i" d="M2.5,2.655A12.943,12.943,0,0,0,9.8,4.646a12.943,12.943,0,0,0,7.3-1.991A6.81,6.81,0,0,0,19.6,0H0A6.81,6.81,0,0,0,2.5,2.655Z" transform="translate(12.661 30.275)"/><path class="f" d="M42.221,25.629A69.53,69.53,0,0,0,42.17,4.544Q41.507,0,36.963,0H5.973Q1.481,0,.766,4.646a72.6,72.6,0,0,0,0,21.034q.715,4.595,5.207,4.595h30.99Q41.507,30.275,42.221,25.629Z"/></g><path class="l" d="M8.577,12.508l-2.961,4.85Q27.824,15.827,48.246,0,22.464,5.463,8.577,12.508M25.323,52.075q12.559-.306,20.881-12.1,3.216-4.595,3.063-13.733a17.749,17.749,0,0,0-.511-4.748q-.1-.306-.2-.562-.736-2.207-.868-2.757a8.32,8.32,0,0,1,.153,2.706Q44.315,48.552,23.893,51.973,4.34,47.99.919,20.932-1.532,34.206,2.553,40.026q8.322,11.793,20.881,12.1a4.132,4.132,0,0,0,1.072-.051A3.23,3.23,0,0,0,25.323,52.075Z"/><path class="b" d="M46.918,20.881a8.32,8.32,0,0,0-.153-2.706v-.1q-1.838-7.5.562-18.073Q26.905,15.827,4.7,17.358L0,20.932Q3.421,47.99,22.974,51.973,43.4,48.552,46.918,20.881Z" transform="translate(0.919)"/></g></g><g transform="translate(-983.281 1128.552)"><g transform="translate(1036.508 -710.025)"><g transform="translate(0 0)"><path class="f" d="M540.942,26.726a11.19,11.19,0,0,1,8.284-.629A91.9,91.9,0,0,1,547.8,50.026l-12.937-3.933A121.673,121.673,0,0,1,540.942,26.726Z" transform="translate(-532.37 -25.585)"/><path class="g" d="M548.338,49.747l-.8,3.793-14.8-4.506q-.893-1.381.8-3.793l1.384.438,12.937,3.933Z" transform="translate(-532.422 -25.171)"/><path class="e" d="M537.189,65.818l-.044-.025a7.85,7.85,0,0,1-1.077-.405q-4.51-2.478-3.339-16.432l14.8,4.506-.926,4.589a10.985,10.985,0,0,1-3.614,6.5A5.914,5.914,0,0,1,537.189,65.818Z" transform="translate(-532.42 -25.093)"/></g></g><g transform="matrix(-0.966, -0.259, 0.259, -0.966, 1052.693, -700.535)"><path class="h" d="M8.988,0q2.5,2.246,4.34,7.3l.2.817V8.066Q16.7,3.625,8.988,0M1.432,6.484a12.214,12.214,0,0,0,3.012-.715,12.238,12.238,0,0,0,2.91-1.378q1.123-.715,1.021-1.174Q8.324,2.808,7,2.91a17.741,17.741,0,0,0-3.012.715A14.12,14.12,0,0,0,1.125,4.952Q-.049,5.667,0,6.126.1,6.586,1.432,6.484Z" transform="translate(1.88)"/><path class="f" d="M15.207,7.3Q13.369,2.246,10.867,0L1.014,2.6Q-.211,2.91.044,4.033L.2,4.595Q2.954,16.95,10,15.112a22.078,22.078,0,0,0,4.952-1.889q1.634-.817,1.327-2.042l-.051-.255q-.408-1.481-.817-2.859v.051l-.2-.817M6.324,5.769a12.214,12.214,0,0,1-3.012.715q-1.327.1-1.429-.357-.051-.459,1.123-1.174A14.12,14.12,0,0,1,5.864,3.625,17.741,17.741,0,0,1,8.876,2.91q1.327-.1,1.378.306.1.459-1.021,1.174A12.238,12.238,0,0,1,6.324,5.769Z"/></g><g transform="matrix(-0.637, 0.771, -0.771, -0.637, 1020.291, -677.251)"><g transform="translate(0 0)"><path class="f" d="M.151,11.861a17.723,17.723,0,0,0,7.737,2.806A34.113,34.113,0,0,0,14.608,1.833L.864,0A40.923,40.923,0,0,0,.151,11.861Z" transform="translate(0.923 9.916)"/><path class="g" d="M16.039,4.3,16.548,2.1.819,0Q-.5.449.31,2.208l1.476.187L15.53,4.228Z" transform="translate(0 7.521)"/><path class="e" d="M9.977.113H9.926Q9.333.031,8.755,0,3.591-.065,0,7.521l15.729,2.1.662-2.657a4.611,4.611,0,0,0-1.273-4.453A8.253,8.253,0,0,0,9.977.113Z" transform="translate(0.819)"/></g></g><g transform="matrix(1, 0.01, -0.01, 1, 995.711, -697.38)"><path class="h" d="M8.987,8.117q2.5-2.246,4.339-7.3l.2-.817V.051Q16.7,4.493,8.987,8.117M1.432,1.634a12.214,12.214,0,0,1,3.012.715,12.238,12.238,0,0,1,2.91,1.378Q8.477,4.441,8.375,4.9,8.324,5.309,7,5.207a17.74,17.74,0,0,1-3.012-.715A14.12,14.12,0,0,1,1.125,3.165Q-.049,2.45,0,1.991.1,1.532,1.432,1.634Z" transform="translate(1.88 7.232)"/><path class="f" d="M15.206,8.049q-1.838,5.054-4.339,7.3l-9.853-2.6q-1.225-.306-.97-1.429L.2,10.755Q2.954-1.6,10,.238a22.077,22.077,0,0,1,4.952,1.889q1.634.817,1.327,2.042l-.051.255q-.408,1.48-.817,2.859V7.232l-.2.817M6.323,9.58a12.214,12.214,0,0,0-3.012-.715q-1.327-.1-1.429.357-.051.459,1.123,1.174a14.12,14.12,0,0,0,2.859,1.327,17.74,17.74,0,0,0,3.012.715q1.327.1,1.378-.306.1-.459-1.021-1.174A12.238,12.238,0,0,0,6.323,9.58Z"/></g><g transform="translate(1006.054 -680.675)"><g transform="translate(0 0)"><path class="b" d="M541.9,91.746V87.559L502.6,81.23v4.186Z" transform="translate(-502.597 -53.763)"/><path class="e" d="M541.9,60.659,502.6,54.33V81.8l39.3,6.329Z" transform="translate(-502.597 -54.33)"/></g></g><g transform="translate(1001.599 -662.618)"><g transform="translate(0 0)"><path class="b" d="M519.968,91.558l-1.484-4.813-17.052,6.294-.015-.048a11.073,11.073,0,0,0-2.24,3.936l.638,2.07Z" transform="translate(-498.213 -71.704)"/><path class="c" d="M518.458,86.813l.048-.018L517.5,83.522l-17.1,6.312.994,3.225.015.048Z" transform="translate(-498.187 -71.772)"/><path class="d" d="M511.423,72.836a8.541,8.541,0,0,0-6.812-.22l-.048.018a9.319,9.319,0,0,0-5.25,4.672,8.968,8.968,0,0,0-.664,6.946l1.8,5.824,17.1-6.312-1.8-5.824A8.106,8.106,0,0,0,511.423,72.836Z" transform="translate(-498.233 -72.014)"/></g></g><g transform="translate(1027.142 -656.313)"><g transform="translate(0 0)"><path class="b" d="M523.249,99.276l.661-5.066,17.383,5.058.007-.051a12.78,12.78,0,0,1,2.777,3.858l-.284,2.178Z" transform="translate(-523.249 -77.851)"/><path class="c" d="M523.9,94.281l-.049-.014.45-3.445,17.433,5.072-.443,3.394-.007.051Z" transform="translate(-523.237 -77.923)"/><path class="d" d="M528.434,79.358a7.656,7.656,0,0,1,6.51-.788l.049.014a10.849,10.849,0,0,1,7.528,11.445l-.8,6.13-17.433-5.072.8-6.13A7.543,7.543,0,0,1,528.434,79.358Z" transform="translate(-523.227 -78.189)"/></g></g><g transform="translate(1049.163 -666.484) rotate(-175.262)"><g transform="translate(1.94)"><path class="i" d="M2.5,1.991A12.943,12.943,0,0,1,9.8,0a12.943,12.943,0,0,1,7.3,1.991,6.81,6.81,0,0,1,2.5,2.655H0A6.81,6.81,0,0,1,2.5,1.991Z" transform="translate(12.661 0)"/><path class="f" d="M42.221,4.646a69.53,69.53,0,0,1-.051,21.085q-.664,4.544-5.207,4.544H5.973q-4.493,0-5.207-4.646a72.6,72.6,0,0,1,0-21.034Q1.481,0,5.973,0H36.963Q41.506,0,42.221,4.646Z" transform="translate(0 4.646)"/></g><g transform="translate(0 6.416)"><path class="l" d="M8.577,39.634l-2.961-4.85q22.208,1.532,42.629,17.358Q22.463,46.68,8.577,39.634M25.322.068Q37.881.374,46.2,12.168,49.42,16.762,49.266,25.9a17.748,17.748,0,0,1-.511,4.748q-.1.306-.2.562-.736,2.207-.868,2.757a8.32,8.32,0,0,0,.153-2.706Q44.314,3.591,23.893.17,4.34,4.152.919,31.211-1.532,17.937,2.553,12.117,10.874.323,23.433.017a4.132,4.132,0,0,1,1.072.051A3.23,3.23,0,0,1,25.322.068Z"/><path class="b" d="M46.918,31.091a8.32,8.32,0,0,1-.153,2.706v.1q-1.838,7.5.562,18.073Q26.905,36.146,4.7,34.614L0,31.04Q3.421,3.982,22.974,0,43.4,3.421,46.918,31.091Z" transform="translate(0.919 0.17)"/></g></g></g><g transform="translate(-84.36 -22.86)"><g transform="matrix(-0.866, -0.5, 0.5, -0.866, 119.481, 220.742)"><path class="b" d="M21.4,0V5.052H3.292V5.1A10.213,10.213,0,0,1,0,2.172V0Z"/><path class="c" d="M18.107,0h.051V3.436H0V0Z" transform="translate(3.292 5.052)"/><path class="d" d="M15.535,12.429A8.937,8.937,0,0,1,9.1,15.005H9.053a8.763,8.763,0,0,1-6.379-2.577A8.535,8.535,0,0,1,0,6.113V0H18.158V6.113A8.617,8.617,0,0,1,15.535,12.429Z" transform="translate(3.292 8.488)"/></g><g transform="translate(138.048 208.837) rotate(-159.263)"><g transform="translate(0 0)"><g transform="translate(0 0)"><path class="f" d="M.151,3.854A15.1,15.1,0,0,1,7.891,0a54.616,54.616,0,0,1,6.722,17.625L.864,20.143A76.76,76.76,0,0,1,.151,3.854Z" transform="translate(0.923 0)"/><path class="g" d="M16.046,0l.509,3.032L.82,5.909Q-.5,5.293.31,2.878l1.477-.257L15.536.1Z" transform="translate(0 17.522)"/><path class="e" d="M9.981,13.052H9.93a10.31,10.31,0,0,1-1.171.154Q3.592,13.3,0,2.878L15.735,0,16.4,3.648a8.005,8.005,0,0,1-1.273,6.115A7.6,7.6,0,0,1,9.981,13.052Z" transform="translate(0.82 20.554)"/></g></g></g><g transform="translate(127.005 194.867) rotate(5.737)"><g transform="translate(0 0)"><path class="h" d="M8.991,0q2.5,2.247,4.341,7.3l.2.817V8.07Q16.7,3.626,8.991,0M1.432,6.486a12.219,12.219,0,0,0,3.013-.715A12.243,12.243,0,0,0,7.357,4.392Q8.48,3.677,8.378,3.218,8.327,2.809,7,2.911a17.747,17.747,0,0,0-3.013.715,14.126,14.126,0,0,0-2.86,1.328Q-.049,5.669,0,6.129.1,6.588,1.432,6.486Z" transform="translate(1.881 0)"/><path class="f" d="M15.213,7.3Q13.374,2.247,10.872,0L1.014,2.6q-1.226.306-.97,1.43L.2,4.6Q2.955,16.956,10,15.118a22.087,22.087,0,0,0,4.954-1.89q1.634-.817,1.328-2.043l-.051-.255q-.409-1.481-.817-2.86v.051l-.2-.817M6.326,5.771a12.219,12.219,0,0,1-3.013.715q-1.328.1-1.43-.358-.051-.46,1.124-1.175a14.126,14.126,0,0,1,2.86-1.328A17.747,17.747,0,0,1,8.88,2.911q1.328-.1,1.379.306.1.46-1.021,1.175A12.243,12.243,0,0,1,6.326,5.771Z"/></g></g><g transform="translate(138.117 221.915) rotate(180)"><path class="b" d="M21.4,0V5.052H3.292V5.1A10.213,10.213,0,0,1,0,2.172V0Z"/><path class="c" d="M18.107,0h.051V3.436H0V0Z" transform="translate(3.292 5.052)"/><path class="d" d="M15.535,12.429A8.937,8.937,0,0,1,9.1,15.005H9.053a8.763,8.763,0,0,1-6.378-2.577A8.535,8.535,0,0,1,0,6.113V0H18.158V6.113A8.617,8.617,0,0,1,15.535,12.429Z" transform="translate(3.292 8.488)"/></g><g transform="translate(103.191 171.779) rotate(2.26)"><path class="b" d="M39.837,4.171V0H0V4.171Z" transform="translate(0 27.495)"/><path class="e" d="M39.837,0H0V27.495H39.837Z"/></g><g transform="translate(97.51 169.069) rotate(9.552)"><g transform="translate(0 0)"><g transform="translate(0)"><path class="f" d="M.151,16.289a15.1,15.1,0,0,0,7.74,3.854A54.616,54.616,0,0,0,14.613,2.518L.864,0A76.761,76.761,0,0,0,.151,16.289Z" transform="translate(0.923 13.618)"/><path class="g" d="M16.046,5.909l.509-3.032L.82,0Q-.5.617.31,3.032l1.477.257L15.536,5.806Z" transform="translate(0 10.329)"/><path class="e" d="M9.981.155H9.93A10.31,10.31,0,0,0,8.759,0Q3.592-.089,0,10.329l15.735,2.878L16.4,9.558a8.005,8.005,0,0,0-1.273-6.115A7.6,7.6,0,0,0,9.981.155Z" transform="translate(0.82 0)"/></g></g></g><g transform="matrix(0.974, 0.226, -0.226, 0.974, 94.87, 192.548)"><g transform="translate(0 0)"><path class="h" d="M8.991,0q2.5,2.247,4.341,7.3l.2.817V8.07Q16.7,3.626,8.991,0M1.432,6.486a12.219,12.219,0,0,0,3.013-.715A12.243,12.243,0,0,0,7.357,4.392Q8.48,3.677,8.378,3.218,8.327,2.809,7,2.911a17.747,17.747,0,0,0-3.013.715,14.126,14.126,0,0,0-2.86,1.328Q-.049,5.669,0,6.129.1,6.588,1.432,6.486Z" transform="translate(1.881 0)"/><path class="f" d="M15.213,7.3Q13.374,2.247,10.872,0L1.014,2.6q-1.226.306-.97,1.43L.2,4.6Q2.955,16.956,10,15.118a22.087,22.087,0,0,0,4.954-1.89q1.634-.817,1.328-2.043l-.051-.255q-.409-1.481-.817-2.86v.051l-.2-.817M6.326,5.771a12.219,12.219,0,0,1-3.013.715q-1.328.1-1.43-.358-.051-.46,1.124-1.175a14.126,14.126,0,0,1,2.86-1.328A17.747,17.747,0,0,1,8.88,2.911q1.328-.1,1.379.306.1.46-1.021,1.175A12.243,12.243,0,0,1,6.326,5.771Z"/></g></g><g transform="translate(100.693 122.5)"><g transform="translate(1.994 23.647)"><path class="i" d="M-7.647,3.206A12.948,12.948,0,0,0-.344,5.2a12.948,12.948,0,0,0,7.3-1.992A6.812,6.812,0,0,0,9.462.55H-10.15A6.812,6.812,0,0,0-7.647,3.206Z" transform="translate(22.816 29.736)"/><path class="f" d="M19.687-3.461a69.557,69.557,0,0,0-.051-21.093Q18.972-29.1,14.427-29.1h-31q-4.494,0-5.209,4.648a72.628,72.628,0,0,0,0,21.042q.715,4.6,5.209,4.6h31Q18.972,1.186,19.687-3.461Z" transform="translate(22.55 29.1)"/></g><g transform="translate(13.485 29.252)"><path class="j" d="M-4.967-16.076a3.364,3.364,0,0,0-2.6-1.124,3.69,3.69,0,0,0-2.707,1.124A4.07,4.07,0,0,0-11.3-13.318a3.883,3.883,0,0,0,1.021,2.707A3.611,3.611,0,0,0-7.572-9.437a3.3,3.3,0,0,0,2.6-1.175,3.69,3.69,0,0,0,1.124-2.707,3.861,3.861,0,0,0-1.124-2.758M3.358-5.4V-8.467h-7a.879.879,0,0,0-.562.2.78.78,0,0,0-.409.511.939.939,0,0,0,0,.613,3.333,3.333,0,0,0,.358.97,5.7,5.7,0,0,0,.46.766h7.15M14.032-16.076a3.364,3.364,0,0,0-2.6-1.124,3.69,3.69,0,0,0-2.707,1.124A4.07,4.07,0,0,0,7.7-13.318a3.883,3.883,0,0,0,1.021,2.707,3.611,3.611,0,0,0,2.707,1.175,3.3,3.3,0,0,0,2.6-1.175,3.69,3.69,0,0,0,1.124-2.707A3.861,3.861,0,0,0,14.032-16.076Z" transform="translate(11.3 23.75)"/><path class="b" d="M-4.511-21.25a1,1,0,0,0,.766,0,1.484,1.484,0,0,0,.562-.562,1,1,0,0,0,0-.766,1.126,1.126,0,0,0-.562-.562,5.556,5.556,0,0,0-4.6.051A6.1,6.1,0,0,0-10.9-21.148a.977.977,0,0,0-.2.766.933.933,0,0,0,.409.664.977.977,0,0,0,.766.2.933.933,0,0,0,.664-.409A3.869,3.869,0,0,1-7.525-21.2a3.719,3.719,0,0,1,3.013-.051m16.19,1.583a3.869,3.869,0,0,1,1.736,1.277.969.969,0,0,0,.715.409.9.9,0,0,0,.715-.2.933.933,0,0,0,.409-.664.977.977,0,0,0-.2-.766A6.1,6.1,0,0,0,12.5-21.557a5.439,5.439,0,0,0-4.545-.051.919.919,0,0,0-.562.562.769.769,0,0,0,0,.766,1.126,1.126,0,0,0,.562.562,1,1,0,0,0,.766,0A3.6,3.6,0,0,1,11.679-19.667Z" transform="translate(11.304 23.613)"/><path class="k" d="M6.724-6.352a4.878,4.878,0,0,0,.409-.97,1.188,1.188,0,0,0-.051-.613.828.828,0,0,0-.358-.511,1.1,1.1,0,0,0-.613-.2H3.2v3.064H-3.95a3.933,3.933,0,0,0,.766.919A5.937,5.937,0,0,0,1.157-2.828a5.851,5.851,0,0,0,4.29-1.788L5.5-4.666A6.467,6.467,0,0,0,6.724-6.352Z" transform="translate(11.458 23.934)"/></g><g transform="translate(32.995 36.466)"><g transform="translate(0 0)"><path class="k" d="M11.528-11.085a3.736,3.736,0,0,0,.664-2.247,3.97,3.97,0,0,0-.664-2.3A1.8,1.8,0,0,0,10-16.55a1.924,1.924,0,0,0-1.583.919,4.213,4.213,0,0,0-.613,2.3,3.96,3.96,0,0,0,.613,2.247,1.905,1.905,0,0,0,1.583.97A1.787,1.787,0,0,0,11.528-11.085Z" transform="translate(-7.8 16.55)"/></g></g><g transform="translate(15.784 36.466)"><g transform="translate(0 0)"><path class="k" d="M-5.322-11.085a3.736,3.736,0,0,0,.664-2.247,3.97,3.97,0,0,0-.664-2.3,1.8,1.8,0,0,0-1.532-.919,1.924,1.924,0,0,0-1.583.919,4.213,4.213,0,0,0-.613,2.3,3.96,3.96,0,0,0,.613,2.247,1.905,1.905,0,0,0,1.583.97A1.787,1.787,0,0,0-5.322-11.085Z" transform="translate(9.05 16.55)"/></g></g><g transform="translate(0 0)"><path class="b" d="M-23.53-31.31A54.462,54.462,0,0,0-22.253-5.518q5.056-4.75,5.72-16.854Q-11.681-40.35,23.815-52.25-1.977-46.785-15.869-39.737l-2.962,4.852Z" transform="translate(24.502 52.25)"/><path class="l" d="M1.176-24.16a59.549,59.549,0,0,0,18.131,2.2l1.021,8.274Q24.976-27.48,23.341-33.1q-2.247-7.814.306-19.152-35.5,11.9-40.348,29.878Q-9.345-27.377,1.176-24.16Z" transform="translate(24.67 52.25)"/></g></g></g><g transform="translate(-430.5 768.487)"><g transform="translate(457.657 -468.789) rotate(-135.001)"><g transform="translate(0 0)"><path class="b" d="M21.753,0V5.136H3.347v.051A10.382,10.382,0,0,1,0,2.208V0Z"/><path class="c" d="M18.407,0h.052V3.492H0V0Z" transform="translate(3.347 5.136)"/><path class="d" d="M15.792,12.635a9.085,9.085,0,0,1-6.536,2.619H9.2a8.908,8.908,0,0,1-6.484-2.619A8.676,8.676,0,0,1,0,6.215V0H18.459V6.215A8.76,8.76,0,0,1,15.792,12.635Z" transform="translate(3.347 8.628)"/></g></g><g transform="translate(502.513 -483.081) rotate(180)"><g transform="translate(0 0)"><g transform="translate(0)"><path class="f" d="M.154,3.918A15.35,15.35,0,0,1,8.022,0a55.521,55.521,0,0,1,6.833,17.917L.878,20.476A78.032,78.032,0,0,1,.154,3.918Z" transform="translate(0.938)"/><path class="g" d="M16.312,0l.518,3.082-16,2.925Q-.513,5.38.316,2.925l1.5-.261L15.794.1Z" transform="translate(0 17.812)"/><path class="e" d="M10.146,13.268h-.052a10.48,10.48,0,0,1-1.191.157q-5.252.091-8.9-10.5L16,0l.673,3.709a8.138,8.138,0,0,1-1.294,6.216A7.728,7.728,0,0,1,10.146,13.268Z" transform="translate(0.833 20.894)"/></g></g></g><g transform="matrix(0.966, -0.259, 0.259, 0.966, 486.98, -492.39)"><g transform="translate(0 0)"><path class="h" d="M9.14,0q2.544,2.284,4.413,7.424l.208.831V8.2Q16.98,3.686,9.14,0M1.456,6.594a12.421,12.421,0,0,0,3.063-.727,12.446,12.446,0,0,0,2.959-1.4q1.142-.727,1.038-1.194-.052-.415-1.4-.312a18.042,18.042,0,0,0-3.063.727,14.36,14.36,0,0,0-2.907,1.35Q-.05,5.763,0,6.23.106,6.7,1.456,6.594Z" transform="translate(1.912 0)"/><path class="f" d="M15.465,7.424Q13.6,2.284,11.052,0L1.031,2.648Q-.215,2.959.045,4.1L.2,4.673q2.8,12.564,9.968,10.7a22.452,22.452,0,0,0,5.036-1.921q1.661-.831,1.35-2.077l-.052-.26q-.415-1.506-.831-2.907v.052l-.208-.831M6.431,5.867a12.421,12.421,0,0,1-3.063.727q-1.35.1-1.454-.363-.052-.467,1.142-1.194a14.36,14.36,0,0,1,2.907-1.35,18.042,18.042,0,0,1,3.063-.727q1.35-.1,1.4.312.1.467-1.038,1.194A12.446,12.446,0,0,1,6.431,5.867Z"/></g></g><g transform="translate(505.675 -483.793) rotate(135.001)"><g transform="translate(0 0)"><path class="b" d="M21.753,0V5.136H3.347v.051A10.382,10.382,0,0,1,0,2.208V0Z"/><path class="c" d="M18.407,0h.052V3.492H0V0Z" transform="translate(3.347 5.136)"/><path class="d" d="M15.792,12.635a9.085,9.085,0,0,1-6.536,2.619H9.2a8.908,8.908,0,0,1-6.484-2.619A8.676,8.676,0,0,1,0,6.215V0H18.459V6.215A8.76,8.76,0,0,1,15.792,12.635Z" transform="translate(3.347 8.628)"/></g></g><g transform="translate(450.925 -516.331) rotate(-3.954)"><g transform="translate(0 0)"><path class="b" d="M40.5,4.24V0H0V4.24Z" transform="translate(0 27.95)"/><path class="e" d="M40.5,0H0V27.95H40.5Z" transform="translate(0)"/></g></g><g transform="translate(447.595 -521.626) rotate(29.999)"><g transform="translate(0 0)"><path class="f" d="M.154,16.559a15.35,15.35,0,0,0,7.869,3.918A55.521,55.521,0,0,0,14.856,2.56L.878,0A78.032,78.032,0,0,0,.154,16.559Z" transform="translate(0.938 13.843)"/><path class="g" d="M16.312,6.007l.518-3.082L.833,0Q-.513.627.316,3.082l1.5.261L15.794,5.9Z" transform="translate(0 10.5)"/><path class="e" d="M10.146.157h-.052A10.48,10.48,0,0,0,8.9,0Q3.652-.09,0,10.5l16,2.925.673-3.709A8.138,8.138,0,0,0,15.375,3.5,7.728,7.728,0,0,0,10.146.157Z" transform="translate(0.833 0)"/></g></g><g transform="translate(439.038 -502.071) rotate(44.998)"><g transform="translate(0 0)"><g transform="translate(0)"><path class="h" d="M9.14,0q2.544,2.284,4.413,7.424l.208.831V8.2Q16.98,3.686,9.14,0M1.456,6.594a12.421,12.421,0,0,0,3.063-.727,12.446,12.446,0,0,0,2.959-1.4q1.142-.727,1.038-1.194-.052-.415-1.4-.312a18.042,18.042,0,0,0-3.063.727,14.36,14.36,0,0,0-2.907,1.35Q-.05,5.763,0,6.23.106,6.7,1.456,6.594Z" transform="translate(1.912 0)"/><path class="f" d="M15.465,7.424Q13.6,2.284,11.052,0L1.031,2.648Q-.215,2.959.045,4.1L.2,4.673q2.8,12.564,9.968,10.7a22.452,22.452,0,0,0,5.036-1.921q1.661-.831,1.35-2.077l-.052-.26q-.415-1.506-.831-2.907v.052l-.208-.831M6.431,5.867a12.421,12.421,0,0,1-3.063.727q-1.35.1-1.454-.363-.052-.467,1.142-1.194a14.36,14.36,0,0,1,2.907-1.35,18.042,18.042,0,0,1,3.063-.727q1.35-.1,1.4.312.1.467-1.038,1.194A12.446,12.446,0,0,1,6.431,5.867Z" transform="translate(0 0)"/></g></g></g><g transform="translate(446.566 -568.6)"><g transform="translate(2.027 24.039)"><path class="i" d="M-7.606,3.25A13.162,13.162,0,0,0-.182,5.275,13.162,13.162,0,0,0,7.243,3.25,6.925,6.925,0,0,0,9.787.55H-10.15A6.925,6.925,0,0,0-7.606,3.25Z" transform="translate(23.026 30.238)"/><path class="f" d="M20.387-3.037a70.709,70.709,0,0,0-.052-21.443q-.675-4.621-5.3-4.621H-16.475q-4.569,0-5.3,4.725a73.831,73.831,0,0,0,0,21.391q.727,4.673,5.3,4.673H15.039Q19.66,1.688,20.387-3.037Z" transform="translate(22.55 29.1)"/></g><g transform="translate(13.709 29.736)"><path class="j" d="M-4.862-16.058A3.42,3.42,0,0,0-7.51-17.2a3.751,3.751,0,0,0-2.752,1.142,4.137,4.137,0,0,0-1.038,2.8A3.947,3.947,0,0,0-10.262-10.5,3.671,3.671,0,0,0-7.51-9.308,3.353,3.353,0,0,0-4.862-10.5,3.751,3.751,0,0,0-3.72-13.254a3.925,3.925,0,0,0-1.142-2.8M3.6-5.207V-8.322H-3.512a.894.894,0,0,0-.571.208.793.793,0,0,0-.415.519.954.954,0,0,0,0,.623,3.388,3.388,0,0,0,.363.986,5.8,5.8,0,0,0,.467.779H3.6M14.452-16.058A3.42,3.42,0,0,0,11.8-17.2a3.751,3.751,0,0,0-2.752,1.142,4.137,4.137,0,0,0-1.038,2.8A3.947,3.947,0,0,0,9.052-10.5,3.671,3.671,0,0,0,11.8-9.308,3.353,3.353,0,0,0,14.452-10.5a3.751,3.751,0,0,0,1.142-2.752A3.925,3.925,0,0,0,14.452-16.058Z" transform="translate(11.3 23.859)"/><path class="b" d="M-4.4-21.211a1.011,1.011,0,0,0,.779,0,1.508,1.508,0,0,0,.571-.571,1.011,1.011,0,0,0,0-.779,1.145,1.145,0,0,0-.571-.571A5.648,5.648,0,0,0-8.3-23.08a6.2,6.2,0,0,0-2.6,1.973.993.993,0,0,0-.208.779.948.948,0,0,0,.415.675.993.993,0,0,0,.779.208.948.948,0,0,0,.675-.415,3.933,3.933,0,0,1,1.765-1.3A3.78,3.78,0,0,1-4.4-21.211M12.056-19.6a3.933,3.933,0,0,1,1.765,1.3.985.985,0,0,0,.727.415.912.912,0,0,0,.727-.208.948.948,0,0,0,.415-.675.993.993,0,0,0-.208-.779,6.2,6.2,0,0,0-2.6-1.973,5.529,5.529,0,0,0-4.621-.052A.934.934,0,0,0,7.7-21a.781.781,0,0,0,0,.779,1.145,1.145,0,0,0,.571.571,1.011,1.011,0,0,0,.779,0A3.66,3.66,0,0,1,12.056-19.6Z" transform="translate(11.307 23.613)"/><path class="k" d="M6.9-6.314A4.959,4.959,0,0,0,7.316-7.3a1.207,1.207,0,0,0-.052-.623A.842.842,0,0,0,6.9-8.442a1.117,1.117,0,0,0-.623-.208H3.319v3.115H-3.95a4,4,0,0,0,.779.935A6.035,6.035,0,0,0,1.242-2.731,5.948,5.948,0,0,0,5.6-4.548L5.655-4.6A6.574,6.574,0,0,0,6.9-6.314Z" transform="translate(11.582 24.187)"/></g><g transform="translate(33.542 37.07)"><g transform="translate(0)"><path class="k" d="M11.59-10.995a3.8,3.8,0,0,0,.675-2.284,4.036,4.036,0,0,0-.675-2.336,1.831,1.831,0,0,0-1.558-.935,1.956,1.956,0,0,0-1.609.935A4.283,4.283,0,0,0,7.8-13.279a4.026,4.026,0,0,0,.623,2.284,1.937,1.937,0,0,0,1.609.986A1.817,1.817,0,0,0,11.59-10.995Z" transform="translate(-7.8 16.55)"/></g></g><g transform="translate(16.045 37.07)"><path class="k" d="M-5.26-10.995a3.8,3.8,0,0,0,.675-2.284,4.036,4.036,0,0,0-.675-2.336,1.831,1.831,0,0,0-1.558-.935,1.956,1.956,0,0,0-1.609.935,4.283,4.283,0,0,0-.623,2.336,4.026,4.026,0,0,0,.623,2.284,1.937,1.937,0,0,0,1.609.986A1.817,1.817,0,0,0-5.26-10.995Z" transform="translate(9.05 16.55)"/></g><g transform="translate(0 0)"><path class="b" d="M-23.513-30.963a55.365,55.365,0,0,0,1.3,26.219q5.14-4.828,5.815-17.133,4.932-18.276,41.016-30.373Q-1.6-46.695-15.726-39.53L-18.737-34.6Z" transform="translate(24.502 52.25)"/><path class="l" d="M1.472-23.694A60.535,60.535,0,0,0,19.9-21.462l1.038,8.411Q25.666-27.069,24-32.78q-2.284-7.944.312-19.47Q-11.768-40.153-16.7-21.877-9.224-26.965,1.472-23.694Z" transform="translate(24.802 52.25)"/></g></g></g></g></svg>