<svg xmlns="http://www.w3.org/2000/svg" width="349.092" height="209.455" viewBox="0 0 349.092 209.455"><defs><style>.a{fill:#7ab71e;}.b{fill:#8dd323;}.c{fill:#80be1f;}</style></defs><g transform="translate(-1576 1453.025)"><g transform="translate(1576 -1453.025)"><g transform="translate(0 0)"><path class="a" d="M1224.736,223.455q-23.19,22.94-24.686,55.107a77.156,77.156,0,0,0,7.729,30.92h335.378a83.144,83.144,0,0,0,5.735-25.185q-1.745-28.925-22.691-49.87h-.249q-12.717-13.216-28.177-18.7-3.491-41.392-33.663-71.813h-.25Q1430.451,110,1382.326,110q-47.127,0-81.288,33.912-24.437,24.187-30.92,55.855Q1244.435,203.756,1224.736,223.455Z" transform="translate(-1199.801 -100.026)"/><path class="b" d="M1200.25,286.536q1.5-32.166,24.686-55.107,19.7-19.7,45.382-23.688,6.483-31.668,30.92-55.855,34.161-33.912,81.288-33.912,48.125,0,81.538,33.912h.25q30.171,30.421,33.663,71.813,15.46,5.486,28.177,18.7h.249q20.946,20.946,22.691,49.87v-4.987q0-32.166-22.691-54.857h-.249q-12.717-13.216-28.177-18.7-3.491-41.392-33.663-71.813h-.25Q1430.65,108,1382.525,108q-47.127,0-81.288,33.912-24.437,24.187-30.92,55.855-25.683,3.99-45.382,23.688Q1200,246.141,1200,281.549,1200,284.042,1200.25,286.536Z" transform="translate(-1200 -108)"/></g></g><g transform="translate(1755.533 -1393.181)"><g transform="translate(0 0)"><path class="c" d="M1295.844,194.806a25.566,25.566,0,0,0-24.935-24.935,24.2,24.2,0,0,0-17.7,7.481,23.782,23.782,0,0,0-7.231,17.455,24.693,24.693,0,0,0,24.935,24.935,23.785,23.785,0,0,0,17.455-7.231,24.2,24.2,0,0,0,7.48-17.7m20.447-29.423a14.634,14.634,0,0,0,4.488-10.722,14.9,14.9,0,0,0-14.961-14.712,15.651,15.651,0,0,0-10.722,4.239,14.772,14.772,0,0,0-4.239,10.473,14.9,14.9,0,0,0,14.961,15.21,13.831,13.831,0,0,0,10.473-4.488m-46.379-39.4A18.9,18.9,0,0,0,1255.7,120a19.926,19.926,0,0,0-13.963,33.912A19.137,19.137,0,0,0,1255.7,159.9a18.9,18.9,0,0,0,14.214-5.984,19.284,19.284,0,0,0,0-27.927Z" transform="translate(-1236 -120)"/></g></g></g></svg>