<svg xmlns="http://www.w3.org/2000/svg" width="1080" height="339.346" viewBox="0 0 1080 339.346"><g transform="translate(0 0)"><g transform="translate(0 0)"><path d="M1080,802.839a111.741,111.741,0,0,0-16.2-1.157q-39.246,0-68.078,24.879-3.182,2.7-6.268,5.786l-3.279,3.471a3.164,3.164,0,0,0-.386-.482q-30.279-32.5-74.925-34.232-34.136-1.447-61.232,16.007a113.771,113.771,0,0,0-15.911,12.343q-21.889,20.25-29.893,46.671a111.887,111.887,0,0,0-27.386-4.436q-44.646-1.639-77.336,28.35l-.1.1q-28.832-27.193-69.525-28.832-36.45-1.446-64.7,18.321-24.589-17.068-56.6-18.225Q478,870.146,453.214,883.55a36.551,36.551,0,0,0-6.364-8.2,47.772,47.772,0,0,0-67.886-2.7,63.807,63.807,0,0,0-4.629,4.725q-4.243-5.3-8.968-10.511-36.354-39.246-89.775-41.368-53.518-2.025-92.861,34.329-3.664,3.375-6.943,7.039-22.854-14.175-51.879-15.332-25.65-.964-47.25,8.486a109.963,109.963,0,0,0-17.55-24.975Q34.425,808.336,0,802.357l.1,337.982H1080Z" transform="translate(0 -800.993)" fill="#e7fdff"/></g></g></svg>