<svg xmlns="http://www.w3.org/2000/svg" width="233.4" height="117.068" viewBox="0 0 233.4 117.068"><defs><style>.a{fill:#c9dee5;}.b{fill:#e8f2f5;}</style></defs><g transform="translate(-588.3 699.8)"><path class="a" d="M706.5-634.6a9.7,9.7,0,0,1-3.65-4.6,41.919,41.919,0,0,0-9.55-14.3,40.468,40.468,0,0,0-29.7-12.3A40.246,40.246,0,0,0,634-653.5a43.249,43.249,0,0,0-5.95,7.25,9.88,9.88,0,0,1-5.55,4.15,35.04,35.04,0,0,0-14.95,9.15,35.1,35.1,0,0,0-8.95,14.3,9.764,9.764,0,0,1-2.85,4.45,10.132,10.132,0,0,1-4.7,2.35q-1.1.25-2.15.6a27.467,27.467,0,0,0,7.25,13.7q60.55,24.3,173.5,8.75a9.758,9.758,0,0,1-3.4-5.75A18.537,18.537,0,0,0,761-604.1a18.871,18.871,0,0,0-8.9-5.1,9.766,9.766,0,0,1-6.2-4.4,42.912,42.912,0,0,0-5.95-7.4,38.78,38.78,0,0,0-27.9-11.85A9.955,9.955,0,0,1,706.5-634.6Z"/><path class="b" d="M821.7-599.65a20.152,20.152,0,0,0-6.2-14.85,20.128,20.128,0,0,0-14.85-6.15,21.812,21.812,0,0,0-2.6.15,28.175,28.175,0,0,0-8-14.7,28.39,28.39,0,0,0-13.7-7.75A52.37,52.37,0,0,0,769-652.1a48.412,48.412,0,0,0-34.85-14.75,51.4,51.4,0,0,0-11.8-17.75,50.065,50.065,0,0,0-36.75-15.2,50.007,50.007,0,0,0-36.7,15.2,54.706,54.706,0,0,0-7.25,8.9,44.823,44.823,0,0,0-19.2,11.65,44.813,44.813,0,0,0-11.4,18.4,27.745,27.745,0,0,0-14.3,7.85,27.855,27.855,0,0,0-8.45,20.45,30.532,30.532,0,0,0,.6,6.1q1.05-.35,2.15-.6a10.132,10.132,0,0,0,4.7-2.35,9.764,9.764,0,0,0,2.85-4.45,35.1,35.1,0,0,1,8.95-14.3,35.04,35.04,0,0,1,14.95-9.15,9.88,9.88,0,0,0,5.55-4.15A43.249,43.249,0,0,1,634-653.5a40.246,40.246,0,0,1,29.6-12.3,40.468,40.468,0,0,1,29.7,12.3,41.919,41.919,0,0,1,9.55,14.3,9.7,9.7,0,0,0,3.65,4.6,9.955,9.955,0,0,0,5.55,1.75A38.78,38.78,0,0,1,739.95-621a42.912,42.912,0,0,1,5.95,7.4,9.766,9.766,0,0,0,6.2,4.4,18.871,18.871,0,0,1,8.9,5.1,18.537,18.537,0,0,1,5.25,9.55,9.758,9.758,0,0,0,3.4,5.75q24.7-3.45,51.95-8.75Q821.7-598.6,821.7-599.65Z"/></g></svg>