<svg xmlns="http://www.w3.org/2000/svg" width="226.75" height="124.326" viewBox="0 0 226.75 124.326"><defs><style>.a{fill:#c9dee5;}.b{fill:#e8f2f5;}</style></defs><g transform="translate(-582.55 857.476)"><path class="a" d="M705.4-812.75h-.05Q691-825.4,670.7-823.1q-21.1,2.5-36.15,19.2a60.033,60.033,0,0,0-11.35,17.95,10.044,10.044,0,0,1-2.4,3.6,10.076,10.076,0,0,1-3.75,2.25,34.541,34.541,0,0,0-14.7,10v.05a36.081,36.081,0,0,0-6.45,9.85,9.981,9.981,0,0,1-4.2,4.65,10.342,10.342,0,0,1-6,1.35,17.645,17.645,0,0,0,2.9,3.25,18.4,18.4,0,0,0,14.8,4.45,23.245,23.245,0,0,0,8.8-2.9,36.708,36.708,0,0,0,4.7,5q11.65,10.35,28.15,8.5a42.672,42.672,0,0,0,16.65-5.45q13.3,6.3,29.85,4.4a64.387,64.387,0,0,0,22.1-6.5q14.2,12.2,34.05,9.95,2.55-.3,5.05-.8a54.342,54.342,0,0,0,9.6-2.95,53.307,53.307,0,0,0,8.6-4.6q.7-.7,1.4-1.45a18.425,18.425,0,0,0,4.95-12.45,12.249,12.249,0,0,0-4.15-9.8A13.176,13.176,0,0,0,769.1-768a10.12,10.12,0,0,1-3.85-2.55,10.47,10.47,0,0,1-2.3-4,31.307,31.307,0,0,0-9.4-14.55h-.05q-11.05-9.7-26.65-7.9-1.1.1-2.2.3a10.192,10.192,0,0,1-5.95-.9,9.707,9.707,0,0,1-4.35-4.15A41.506,41.506,0,0,0,705.4-812.75Z"/><path class="b" d="M635.9-813.6a43.8,43.8,0,0,0-19,12.85,46.166,46.166,0,0,0-8.2,12.55,23.474,23.474,0,0,0-5.3,0,22.792,22.792,0,0,0-14.8,7.75A22.606,22.606,0,0,0,582.55-765a18.645,18.645,0,0,0,3.15,10.8,10.342,10.342,0,0,0,6-1.35,9.981,9.981,0,0,0,4.2-4.65,36.081,36.081,0,0,1,6.45-9.85v-.05a34.541,34.541,0,0,1,14.7-10,10.076,10.076,0,0,0,3.75-2.25,10.044,10.044,0,0,0,2.4-3.6,60.033,60.033,0,0,1,11.35-17.95q15.05-16.7,36.15-19.2,20.3-2.3,34.65,10.35h.05a41.506,41.506,0,0,1,8.95,11,9.707,9.707,0,0,0,4.35,4.15,10.192,10.192,0,0,0,5.95.9q1.1-.2,2.2-.3,15.6-1.8,26.65,7.9h.05a31.307,31.307,0,0,1,9.4,14.55,10.47,10.47,0,0,0,2.3,4A10.12,10.12,0,0,0,769.1-768a13.176,13.176,0,0,1,4.05,2.45,12.249,12.249,0,0,1,4.15,9.8,18.425,18.425,0,0,1-4.95,12.45q-.7.75-1.4,1.45a58.293,58.293,0,0,0,10.45-9q1.05-.05,2.15-.15a28.276,28.276,0,0,0,18.2-9.65,27.787,27.787,0,0,0,7.55-19.1,22.064,22.064,0,0,0-7.55-17.3,23,23,0,0,0-7.2-4.35,40.667,40.667,0,0,0-12.4-19.2q-14.25-12.65-34.45-10.35-1.3.15-2.6.35A51.534,51.534,0,0,0,734-844.25q-17.55-15.6-42.45-12.8-24.8,2.85-42.45,22.45A69.336,69.336,0,0,0,635.9-813.6Z"/></g></svg>