<svg xmlns="http://www.w3.org/2000/svg" width="265.15" height="137.318" viewBox="0 0 265.15 137.318"><defs><style>.a{fill:#c9dee5;}.b{fill:#e8f2f5;}</style></defs><g transform="translate(-1837.25 1474.973)"><g transform="translate(715 -602)"><path class="a" d="M1167.95-815.05a39.354,39.354,0,0,0-27.8,10.4,38.22,38.22,0,0,0-8.85,11.45,9.992,9.992,0,0,1-3.25,3.7,21.317,21.317,0,0,0,12.8,6.95,61.963,61.963,0,0,0,14.6,26.25q16.55,18.1,39.95,20.35,23.3,2.25,39.85-12.65l2.45-2.35q2.1.3,4.25.55,20.9,2,36.7-8.55,1.65,2.15,3.55,4.3,13.2,14.4,31.8,16.25,15.9,1.5,27.8-6.9a30.2,30.2,0,0,0,13.6,6.8v-1.2a20.681,20.681,0,0,0-5.7-14.2h-.05a20.993,20.993,0,0,0-13.5-7.05q-1.15-.1-2.25-.15a9.617,9.617,0,0,1-5.5-1.9,10.078,10.078,0,0,1-3.55-4.7,41.333,41.333,0,0,0-8.45-13.65q-10.5-11.55-25.3-13h-.05a34.4,34.4,0,0,0-11.35.65,9.8,9.8,0,0,1-7.05-.95,9.606,9.606,0,0,1-4.65-5.45,58.819,58.819,0,0,0-12.2-19.75h-.05q-15.2-16.7-36.75-18.85-20.8-2-35.55,11.2a44.85,44.85,0,0,0-7.1,8.1,10.205,10.205,0,0,1-3.65,3.2A10.3,10.3,0,0,1,1167.95-815.05Z"/><path class="b" d="M1314-828.3a44.745,44.745,0,0,0-14.6.85,67.748,67.748,0,0,0-14.25-23.15q-17.85-19.6-43.2-22.05-25.3-2.45-43.2,13.7a54.846,54.846,0,0,0-8.7,9.9,49.2,49.2,0,0,0-34.6,12.95,49.067,49.067,0,0,0-11.1,14.35q-1.15-.2-2.3-.3A17.5,17.5,0,0,0,1128-817.6a17.3,17.3,0,0,0-5.75,13.45,21.233,21.233,0,0,0,5.75,14.6l.05.05a9.992,9.992,0,0,0,3.25-3.7,38.22,38.22,0,0,1,8.85-11.45,39.354,39.354,0,0,1,27.8-10.4,10.3,10.3,0,0,0,4.75-1.15,10.205,10.205,0,0,0,3.65-3.2,44.85,44.85,0,0,1,7.1-8.1q14.75-13.2,35.55-11.2,21.55,2.15,36.75,18.85h.05A58.819,58.819,0,0,1,1268-800.1a9.606,9.606,0,0,0,4.65,5.45,9.8,9.8,0,0,0,7.05.95,34.4,34.4,0,0,1,11.35-.65h.05q14.8,1.45,25.3,13a41.333,41.333,0,0,1,8.45,13.65,10.078,10.078,0,0,0,3.55,4.7,9.617,9.617,0,0,0,5.5,1.9q1.1.05,2.25.15a20.993,20.993,0,0,1,13.5,7.05h.05a20.681,20.681,0,0,1,5.7,14.2v1.2q1.7.35,3.5.55,11.85,1.1,20.15-6.4a24.915,24.915,0,0,0,8.35-19.35,30.192,30.192,0,0,0-8.35-20.95,30.68,30.68,0,0,0-20.15-10.3q-1.35-.1-2.65-.15a50.741,50.741,0,0,0-10.45-17Q1332.65-826.55,1314-828.3Z"/></g></g></svg>