<svg xmlns="http://www.w3.org/2000/svg" width="62.679" height="72.473" viewBox="0 0 62.679 72.473"><defs><style>.a{fill:#8dd323;}.b{fill:#80be1f;}</style></defs><g transform="translate(-1368 1568.025)"><g transform="translate(1368 -1568.025)"><g transform="translate(0 0)"><path class="a" d="M1319.665,86.18a43.223,43.223,0,0,0-19.1-10.577L1299,79.618q12.83,2.938,20.665,10.479,5.877-15.376,5.485-28.989a76.977,76.977,0,0,1-5.485,25.072m1.371-47.891,1.861-1.371q18.118,20.763,19,46.618a26.381,26.381,0,0,1,18.412-6.17,21.889,21.889,0,0,1,1.371-2.35l-2.253-2.448a29.158,29.158,0,0,0-17.531,7.051q-.882-25.855-19-46.618l-3.232,2.253Q1320.35,36.722,1321.036,38.289Z" transform="translate(-1299 -33)"/><path class="b" d="M1321.036,36.371a53.543,53.543,0,0,1,4.114,22.819q.392,13.613-5.485,28.989Q1311.83,80.639,1299,77.7a13.417,13.417,0,0,1,.881,1.665,107.43,107.43,0,0,1,9.4,24.19h41.427a75.194,75.194,0,0,1,9.6-28.108,26.381,26.381,0,0,0-18.412,6.17q-.882-25.855-19-46.618Z" transform="translate(-1299 -31.083)"/></g></g></g></svg>