<svg xmlns="http://www.w3.org/2000/svg" width="192.732" height="275.826" viewBox="0 0 192.732 275.826"><g transform="translate(-243.218 425.1)"><g transform="translate(276.798 -215.407)"><g transform="translate(0 0)"><path d="M48.253,25.345V11.123H-2.718v-.142a28.749,28.749,0,0,0-9.267,8.249v6.116Z" transform="translate(11.986 40.789)" fill="#b8824d"/><path d="M42.208,17.338h.145V7.667H-8.763v9.671Z" transform="translate(18.03 34.574)" fill="#2a7db4"/><path d="M34.968.23a25.159,25.159,0,0,0-18.1-7.253h-.145A24.669,24.669,0,0,0-1.233.23a24.026,24.026,0,0,0-7.53,17.778V35.217H42.353V18.008A24.257,24.257,0,0,0,34.968.23Z" transform="translate(18.03 7.024)" fill="#3498db"/></g></g><g transform="translate(406.54 -149.274) rotate(180)"><path d="M60.238,0V14.222H9.267v.142A28.749,28.749,0,0,1,0,6.116V0Z" fill="#b8824d"/><path d="M50.971,0h.145V9.671H0V0Z" transform="translate(9.267 14.222)" fill="#2a7db4"/><path d="M43.731,34.987a25.159,25.159,0,0,1-18.1,7.253h-.145A24.669,24.669,0,0,1,7.53,34.987,24.026,24.026,0,0,1,0,17.209V0H51.116V17.209A24.257,24.257,0,0,1,43.731,34.987Z" transform="translate(9.267 23.893)" fill="#3498db"/></g><g transform="translate(287.108 -280.679)"><g transform="translate(0 0)"><path d="M92.641,17.134V5.393H-19.5v11.74Z" transform="translate(19.5 72.004)" fill="#b8824d"/><path d="M92.641-21.524H-19.5v77.4H92.641Z" transform="translate(19.5 21.524)" fill="#2ecc71"/></g></g><g transform="matrix(0.966, 0.259, -0.259, 0.966, 267.441, -287.898)"><g transform="translate(0 0)"><path d="M.426,41.379a44.382,44.382,0,0,0,21.789,9.79A130.844,130.844,0,0,0,41.137,6.4L2.432,0A176.2,176.2,0,0,0,.426,41.379Z" transform="translate(2.598 34.594)" fill="#ffe0b1"/><path d="M45.168,15.011,46.6,7.31,2.307,0Q-1.42,1.566.874,7.7l4.157.653,38.7,6.4Z" transform="translate(0 26.239)" fill="#25a85c"/><path d="M28.1.394h-.143A32,32,0,0,0,24.656,0Q10.112-.226,0,26.239l44.295,7.31,1.864-9.268A18.761,18.761,0,0,0,42.575,8.748,21.734,21.734,0,0,0,28.1.394Z" transform="translate(2.307)" fill="#2ecc71"/></g></g><g transform="translate(254.405 -224.195) rotate(14.999)"><path d="M25.309,0q7.045,6.326,12.22,20.559l.575,2.3v-.144Q47.019,10.208,25.309,0M4.032,18.259a34.4,34.4,0,0,0,8.482-2.013,34.464,34.464,0,0,0,8.195-3.882q3.163-2.013,2.875-3.307-.144-1.15-3.882-.863a49.959,49.959,0,0,0-8.482,2.013,39.764,39.764,0,0,0-8.051,3.738Q-.138,15.958.006,17.252.294,18.546,4.032,18.259Z" transform="translate(5.294)" fill="#e7cba0"/><path d="M42.824,20.559Q37.648,6.326,30.6,0L2.856,7.332q-3.45.863-2.732,4.026l.431,1.581q7.764,34.792,27.6,29.617A62.174,62.174,0,0,0,42.1,37.236q4.6-2.3,3.738-5.751l-.144-.719q-1.15-4.169-2.3-8.051v.144l-.575-2.3M17.808,16.246a34.4,34.4,0,0,1-8.482,2.013q-3.738.288-4.026-1.006-.144-1.294,3.163-3.307a39.764,39.764,0,0,1,8.051-3.738A49.959,49.959,0,0,1,25,8.195q3.738-.288,3.882.863.288,1.294-2.875,3.307A34.464,34.464,0,0,1,17.808,16.246Z" fill="#ffe0b1"/></g><g transform="matrix(-0.966, 0.259, -0.259, -0.966, 433.78, -207.932)"><g transform="translate(0 0)"><path d="M.426,9.79A44.382,44.382,0,0,1,22.215,0,130.844,130.844,0,0,1,41.137,44.773l-38.7,6.4A176.2,176.2,0,0,1,.426,9.79Z" transform="translate(2.598)" fill="#ffe0b1"/><path d="M45.168,0,46.6,7.7,2.307,15.011Q-1.42,13.445.874,7.31l4.157-.653,38.7-6.4Z" transform="translate(0 44.512)" fill="#25a85c"/><path d="M28.1,33.156h-.143a32,32,0,0,1-3.3.392Q10.112,33.775,0,7.31L44.295,0l1.864,9.268A18.761,18.761,0,0,1,42.575,24.8,21.734,21.734,0,0,1,28.1,33.156Z" transform="translate(2.307 52.214)" fill="#2ecc71"/></g></g><g transform="translate(435.951 -184.023) rotate(165.001)"><g transform="translate(0 0)"><path d="M25.309,22.859Q32.354,16.534,37.53,2.3L38.1,0V.144q8.914,12.508-12.8,22.716M4.032,4.6a34.4,34.4,0,0,1,8.482,2.013A34.464,34.464,0,0,1,20.709,10.5q3.163,2.013,2.875,3.307-.144,1.15-3.882.863a49.959,49.959,0,0,1-8.482-2.013A39.764,39.764,0,0,1,3.169,8.914Q-.138,6.9.006,5.607.294,4.313,4.032,4.6Z" transform="translate(5.294 20.367)" fill="#e7cba0"/><path d="M42.824,22.667Q37.648,36.9,30.6,43.226L2.856,35.894q-3.45-.863-2.732-4.026l.431-1.581Q8.319-4.505,28.159.67A62.174,62.174,0,0,1,42.1,5.99q4.6,2.3,3.738,5.751l-.144.719q-1.15,4.169-2.3,8.051v-.144l-.575,2.3M17.808,26.98a34.4,34.4,0,0,0-8.482-2.013Q5.587,24.68,5.3,25.974q-.144,1.294,3.163,3.307a39.764,39.764,0,0,0,8.051,3.738A49.959,49.959,0,0,0,25,35.031q3.738.288,3.882-.863.288-1.294-2.875-3.307A34.464,34.464,0,0,0,17.808,26.98Z" fill="#ffe0b1"/></g></g><g transform="translate(271 -425.1)"><g transform="translate(5.613 66.565)"><path d="M-3.105,8.026q8.482,5.607,20.559,5.607T38.013,8.026A19.176,19.176,0,0,0,45.058.55H-10.15A19.176,19.176,0,0,0-3.105,8.026Z" transform="translate(45.805 84.706)" fill="#d7bd93"/><path d="M96.348,43.073A195.8,195.8,0,0,0,96.2-16.3Q94.335-29.1,81.539-29.1H-5.729q-12.652,0-14.665,13.083a204.446,204.446,0,0,0,0,59.233q2.013,12.939,14.665,12.939H81.539Q94.335,56.156,96.348,43.073Z" transform="translate(22.55 29.1)" fill="#ffe0b1"/></g><g transform="translate(37.961 82.343)"><path d="M6.527-14.037A9.47,9.47,0,0,0-.8-17.2a10.386,10.386,0,0,0-7.62,3.163A11.457,11.457,0,0,0-11.3-6.273a10.93,10.93,0,0,0,2.875,7.62A10.165,10.165,0,0,0-.8,4.653,9.285,9.285,0,0,0,6.527,1.346,10.386,10.386,0,0,0,9.69-6.273a10.868,10.868,0,0,0-3.163-7.764M29.962,16.011V7.385h-19.7a2.474,2.474,0,0,0-1.581.575A2.2,2.2,0,0,0,7.534,9.4a2.643,2.643,0,0,0,0,1.725A9.381,9.381,0,0,0,8.54,13.854a16.056,16.056,0,0,0,1.294,2.157H29.962M60.01-14.037A9.47,9.47,0,0,0,52.678-17.2a10.386,10.386,0,0,0-7.62,3.163,11.457,11.457,0,0,0-2.875,7.764,10.93,10.93,0,0,0,2.875,7.62,10.165,10.165,0,0,0,7.62,3.307A9.285,9.285,0,0,0,60.01,1.346a10.386,10.386,0,0,0,3.163-7.62A10.868,10.868,0,0,0,60.01-14.037Z" transform="translate(11.3 35.639)" fill="#fff"/><path d="M7.462-16.963a2.8,2.8,0,0,0,2.157,0A4.177,4.177,0,0,0,11.2-18.544a2.8,2.8,0,0,0,0-2.157,3.171,3.171,0,0,0-1.581-1.581,15.639,15.639,0,0,0-12.939.144,17.158,17.158,0,0,0-7.188,5.463,2.75,2.75,0,0,0-.575,2.157,2.626,2.626,0,0,0,1.15,1.869,2.75,2.75,0,0,0,2.157.575,2.626,2.626,0,0,0,1.869-1.15A10.891,10.891,0,0,1-1.02-16.819a10.468,10.468,0,0,1,8.482-.144m45.575,4.457a10.892,10.892,0,0,1,4.888,3.594,2.727,2.727,0,0,0,2.013,1.15,2.525,2.525,0,0,0,2.013-.575,2.626,2.626,0,0,0,1.15-1.869,2.75,2.75,0,0,0-.575-2.157,17.158,17.158,0,0,0-7.188-5.463,15.311,15.311,0,0,0-12.8-.144,2.587,2.587,0,0,0-1.581,1.581,2.164,2.164,0,0,0,0,2.157,3.171,3.171,0,0,0,1.581,1.581,2.8,2.8,0,0,0,2.157,0A10.135,10.135,0,0,1,53.037-12.506Z" transform="translate(11.659 23.613)" fill="#b8824d"/><path d="M26.1-2.18a13.732,13.732,0,0,0,1.15-2.732A3.343,3.343,0,0,0,27.1-6.637,2.331,2.331,0,0,0,26.1-8.075a3.092,3.092,0,0,0-1.725-.575H16.178V-.024H-3.95A11.072,11.072,0,0,0-1.793,2.564,16.712,16.712,0,0,0,10.427,7.74,16.47,16.47,0,0,0,22.5,2.708l.144-.144A18.2,18.2,0,0,0,26.1-2.18Z" transform="translate(25.084 51.674)" fill="#7f7058"/></g><g transform="translate(92.881 102.652)"><g transform="translate(0)"><path d="M18.3-1.167a10.516,10.516,0,0,0,1.869-6.326,11.176,11.176,0,0,0-1.869-6.47,5.069,5.069,0,0,0-4.313-2.588,5.415,5.415,0,0,0-4.457,2.588A11.861,11.861,0,0,0,7.8-7.492,11.148,11.148,0,0,0,9.525-1.167a5.363,5.363,0,0,0,4.457,2.732A5.031,5.031,0,0,0,18.3-1.167Z" transform="translate(-7.8 16.55)" fill="#7f7058"/></g></g><g transform="translate(44.431 102.652)"><g transform="translate(0)"><path d="M1.445-1.167A10.516,10.516,0,0,0,3.314-7.492a11.176,11.176,0,0,0-1.869-6.47A5.069,5.069,0,0,0-2.868-16.55a5.415,5.415,0,0,0-4.457,2.588A11.86,11.86,0,0,0-9.05-7.492,11.148,11.148,0,0,0-7.325-1.167,5.363,5.363,0,0,0-2.868,1.565,5.031,5.031,0,0,0,1.445-1.167Z" transform="translate(9.05 16.55)" fill="#7f7058"/></g></g><g transform="translate(0 0)"><path d="M-21.764,6.7A153.311,153.311,0,0,0-18.17,79.3q14.233-13.371,16.1-47.444Q11.59-18.752,111.51-52.25,38.906-36.867-.2-17.026L-8.538-3.368Z" transform="translate(24.502 52.25)" fill="#b8824d"/><path d="M33.619,26.823a167.628,167.628,0,0,0,51.038,6.182L87.533,56.3q13.083-38.818,8.482-54.633-6.326-22,.863-53.914Q-3.042-18.752-16.7,31.855,4,17.766,33.619,26.823Z" transform="translate(39.134 52.25)" fill="#c48a51"/></g></g></g></svg>