<svg xmlns="http://www.w3.org/2000/svg" xmlns:xlink="http://www.w3.org/1999/xlink" width="80" height="500" viewBox="0 0 80 500"><defs><style>.a{clip-path:url(#b);}.b{fill:#b8824d;}.c{fill:#2a7db4;}.d{fill:#3498db;}.e{fill:#2ecc71;}.f{fill:#ffe0b1;}.g{fill:#25a85c;}.h{fill:#e7cba0;}.i{fill:#d7bd93;}.j{fill:#fff;}.k{fill:#7f7058;}.l{fill:#c48a51;}</style><clipPath id="b"><rect width="80" height="500"/></clipPath></defs><g id="a" class="a"><g transform="translate(-522.218 629.74)"><g transform="translate(540.393 -554.077)"><g transform="translate(0 0)"><path class="b" d="M9.854,16.188V11.032H-8.626v-.052a10.423,10.423,0,0,0-3.36,2.991v2.217Z" transform="translate(11.986 7.788)"/><path class="c" d="M9.717,11.173h.052V7.667H-8.763v3.506Z" transform="translate(12.122 7.647)"/><path class="d" d="M7.092-4.394A9.121,9.121,0,0,0,.53-7.024H.477a8.944,8.944,0,0,0-6.51,2.63,8.71,8.71,0,0,0-2.73,6.445V8.29H9.769V2.051A8.794,8.794,0,0,0,7.092-4.394Z" transform="translate(12.122 7.024)"/></g></g><g transform="translate(587.43 -530.1) rotate(180)"><path class="b" d="M21.839,0V5.156H3.36v.052A10.423,10.423,0,0,1,0,2.217V0Z"/><path class="c" d="M18.479,0h.052V3.506H0V0Z" transform="translate(3.36 5.156)"/><path class="d" d="M15.854,12.684a9.121,9.121,0,0,1-6.562,2.63H9.24a8.944,8.944,0,0,1-6.51-2.63A8.71,8.71,0,0,1,0,6.239V0H18.532V6.239A8.794,8.794,0,0,1,15.854,12.684Z" transform="translate(3.36 8.663)"/></g><g transform="translate(544.13 -577.74)"><g transform="translate(0 0)"><path class="b" d="M21.156,9.65V5.393H-19.5V9.65Z" transform="translate(19.5 22.667)"/><path class="e" d="M21.156-21.524H-19.5V6.537H21.156Z" transform="translate(19.5 21.524)"/></g></g><g transform="matrix(0.966, 0.259, -0.259, 0.966, 537, -580.358)"><g transform="translate(0 0)"><path class="f" d="M.154,15a16.091,16.091,0,0,0,7.9,3.549,47.437,47.437,0,0,0,6.86-16.232L.882,0A63.881,63.881,0,0,0,.154,15Z" transform="translate(0.942 12.542)"/><path class="g" d="M16.376,5.442,16.9,2.65.836,0Q-.515.568.317,2.792l1.507.237L15.856,5.348Z" transform="translate(0 9.513)"/><path class="e" d="M10.186.143h-.052A11.6,11.6,0,0,0,8.939,0Q3.666-.082,0,9.513l16.059,2.65.676-3.36a6.8,6.8,0,0,0-1.3-5.632A7.879,7.879,0,0,0,10.186.143Z" transform="translate(0.836)"/></g></g><g transform="translate(532.274 -557.262) rotate(14.999)"><path class="h" d="M9.176,0q2.554,2.293,4.43,7.454l.208.834V8.236Q17.047,3.7,9.176,0M1.462,6.62a12.47,12.47,0,0,0,3.075-.73A12.5,12.5,0,0,0,7.508,4.483q1.147-.73,1.042-1.2Q8.5,2.867,7.143,2.971a18.113,18.113,0,0,0-3.075.73A14.416,14.416,0,0,0,1.149,5.056q-1.2.73-1.147,1.2Q.106,6.724,1.462,6.62Z" transform="translate(1.919)"/><path class="f" d="M15.526,7.454Q13.649,2.293,11.1,0L1.035,2.658q-1.251.313-.99,1.459L.2,4.691Q3.016,17.3,10.209,15.429A22.541,22.541,0,0,0,15.265,13.5q1.668-.834,1.355-2.085l-.052-.261q-.417-1.512-.834-2.919v.052l-.208-.834M6.456,5.89a12.47,12.47,0,0,1-3.075.73q-1.355.1-1.459-.365-.052-.469,1.147-1.2A14.416,14.416,0,0,1,5.987,3.7a18.113,18.113,0,0,1,3.075-.73q1.355-.1,1.407.313.1.469-1.042,1.2A12.5,12.5,0,0,1,6.456,5.89Z"/></g><g transform="matrix(-0.966, 0.259, -0.259, -0.966, 597.306, -551.366)"><g transform="translate(0 0)"><path class="f" d="M.154,3.549A16.091,16.091,0,0,1,8.054,0a47.437,47.437,0,0,1,6.86,16.232L.882,18.551A63.881,63.881,0,0,1,.154,3.549Z" transform="translate(0.942)"/><path class="g" d="M16.376,0l.52,2.792L.836,5.442Q-.515,4.874.317,2.65l1.507-.237L15.856.095Z" transform="translate(0 16.138)"/><path class="e" d="M10.186,12.021h-.052a11.6,11.6,0,0,1-1.2.142Q3.666,12.245,0,2.65L16.059,0l.676,3.36a6.8,6.8,0,0,1-1.3,5.632A7.879,7.879,0,0,1,10.186,12.021Z" transform="translate(0.836 18.93)"/></g></g><g transform="translate(598.093 -542.698) rotate(165.001)"><path class="h" d="M9.176,8.288Q11.73,5.994,13.606.834L13.815,0V.052q3.232,4.535-4.639,8.235M1.462,1.668a12.47,12.47,0,0,1,3.075.73A12.5,12.5,0,0,1,7.508,3.805Q8.655,4.535,8.55,5q-.052.417-1.407.313a18.112,18.112,0,0,1-3.075-.73A14.416,14.416,0,0,1,1.149,3.232Q-.05,2.5,0,2.033.106,1.564,1.462,1.668Z" transform="translate(1.919 7.384)"/><path class="f" d="M15.526,8.218q-1.876,5.16-4.43,7.454L1.035,13.013Q-.216,12.7.045,11.554L.2,10.98Q3.016-1.633,10.209.243a22.541,22.541,0,0,1,5.056,1.929q1.668.834,1.355,2.085l-.052.261q-.417,1.512-.834,2.919V7.384l-.208.834M6.456,9.782a12.47,12.47,0,0,0-3.075-.73q-1.355-.1-1.459.365-.052.469,1.147,1.2a14.416,14.416,0,0,0,2.919,1.355,18.112,18.112,0,0,0,3.075.73q1.355.1,1.407-.313.1-.469-1.042-1.2A12.5,12.5,0,0,0,6.456,9.782Z"/></g><g transform="translate(538.29 -630.1)"><g transform="translate(2.035 24.133)"><path class="i" d="M-7.6,3.26A13.214,13.214,0,0,0-.142,5.293,13.214,13.214,0,0,0,7.311,3.26,6.952,6.952,0,0,0,9.865.55H-10.15A6.952,6.952,0,0,0-7.6,3.26Z" transform="translate(23.077 30.359)"/><path class="f" d="M20.556-2.934A70.987,70.987,0,0,0,20.5-24.461Q19.826-29.1,15.187-29.1H-16.452q-4.587,0-5.317,4.743a74.121,74.121,0,0,0,0,21.475q.73,4.691,5.317,4.691H15.187Q19.826,1.809,20.556-2.934Z" transform="translate(22.55 29.1)"/></g><g transform="translate(13.763 29.853)"><path class="j" d="M-4.837-16.053A3.433,3.433,0,0,0-7.495-17.2a3.765,3.765,0,0,0-2.763,1.147A4.154,4.154,0,0,0-11.3-13.239a3.963,3.963,0,0,0,1.042,2.763,3.685,3.685,0,0,0,2.763,1.2,3.366,3.366,0,0,0,2.658-1.2A3.765,3.765,0,0,0-3.69-13.239a3.94,3.94,0,0,0-1.147-2.815m8.5,10.894V-8.287H-3.481a.9.9,0,0,0-.573.208.8.8,0,0,0-.417.521.958.958,0,0,0,0,.625,3.4,3.4,0,0,0,.365.99,5.821,5.821,0,0,0,.469.782h7.3M14.553-16.053A3.433,3.433,0,0,0,11.895-17.2a3.765,3.765,0,0,0-2.763,1.147A4.154,4.154,0,0,0,8.09-13.239a3.963,3.963,0,0,0,1.042,2.763,3.685,3.685,0,0,0,2.763,1.2,3.366,3.366,0,0,0,2.658-1.2A3.765,3.765,0,0,0,15.7-13.239,3.94,3.94,0,0,0,14.553-16.053Z" transform="translate(11.3 23.885)"/><path class="b" d="M-4.376-21.2a1.015,1.015,0,0,0,.782,0,1.514,1.514,0,0,0,.573-.573,1.015,1.015,0,0,0,0-.782,1.15,1.15,0,0,0-.573-.573,5.67,5.67,0,0,0-4.691.052A6.22,6.22,0,0,0-10.891-21.1a1,1,0,0,0-.208.782.952.952,0,0,0,.417.678,1,1,0,0,0,.782.208.952.952,0,0,0,.678-.417,3.949,3.949,0,0,1,1.772-1.3A3.8,3.8,0,0,1-4.376-21.2m16.523,1.616a3.949,3.949,0,0,1,1.772,1.3.989.989,0,0,0,.73.417.916.916,0,0,0,.73-.208.952.952,0,0,0,.417-.678,1,1,0,0,0-.208-.782,6.22,6.22,0,0,0-2.606-1.981,5.551,5.551,0,0,0-4.639-.052.938.938,0,0,0-.573.573.784.784,0,0,0,0,.782,1.15,1.15,0,0,0,.573.573,1.015,1.015,0,0,0,.782,0A3.675,3.675,0,0,1,12.147-19.586Z" transform="translate(11.308 23.613)"/><path class="k" d="M6.944-6.3a4.978,4.978,0,0,0,.417-.99,1.212,1.212,0,0,0-.052-.625.845.845,0,0,0-.365-.521,1.121,1.121,0,0,0-.625-.208H3.347v3.127h-7.3a4.014,4.014,0,0,0,.782.938,6.059,6.059,0,0,0,4.43,1.876A5.971,5.971,0,0,0,5.641-4.532l.052-.052A6.6,6.6,0,0,0,6.944-6.3Z" transform="translate(11.612 24.248)"/></g><g transform="translate(33.674 37.216)"><g transform="translate(0 0)"><path class="k" d="M11.605-10.973a3.813,3.813,0,0,0,.678-2.293,4.052,4.052,0,0,0-.678-2.346,1.838,1.838,0,0,0-1.564-.938,1.963,1.963,0,0,0-1.616.938A4.3,4.3,0,0,0,7.8-13.266a4.042,4.042,0,0,0,.625,2.293,1.944,1.944,0,0,0,1.616.99A1.824,1.824,0,0,0,11.605-10.973Z" transform="translate(-7.8 16.55)"/></g></g><g transform="translate(16.108 37.216)"><g transform="translate(0 0)"><path class="k" d="M-5.245-10.973a3.813,3.813,0,0,0,.678-2.293,4.052,4.052,0,0,0-.678-2.346,1.838,1.838,0,0,0-1.564-.938,1.963,1.963,0,0,0-1.616.938,4.3,4.3,0,0,0-.625,2.346,4.042,4.042,0,0,0,.625,2.293,1.944,1.944,0,0,0,1.616.99A1.824,1.824,0,0,0-5.245-10.973Z" transform="translate(9.05 16.55)"/></g></g><g transform="translate(0 0)"><path class="b" d="M-23.51-30.879a55.583,55.583,0,0,0,1.3,26.322q5.16-4.847,5.838-17.2,4.952-18.347,41.178-30.492-26.322,5.577-40.5,12.77l-3.023,4.952Z" transform="translate(24.502 52.25)"/><path class="l" d="M1.543-23.582a60.773,60.773,0,0,0,18.5,2.241L21.089-12.9Q25.833-26.97,24.165-32.7q-2.293-7.975.313-19.546Q-11.748-40.105-16.7-21.758-9.194-26.866,1.543-23.582Z" transform="translate(24.833 52.25)"/></g></g></g><g transform="translate(-84.403 -22.86)"><g transform="matrix(-0.866, -0.5, 0.5, -0.866, 119.647, 221.321)"><path class="b" d="M21.525,0V5.082H3.312v.051A10.273,10.273,0,0,1,0,2.185V0Z"/><path class="c" d="M18.213,0h.052V3.456H0V0Z" transform="translate(3.312 5.082)"/><path class="d" d="M15.626,12.5a8.99,8.99,0,0,1-6.468,2.592H9.107A8.815,8.815,0,0,1,2.691,12.5,8.585,8.585,0,0,1,0,6.149V0H18.265V6.149A8.668,8.668,0,0,1,15.626,12.5Z" transform="translate(3.312 8.538)"/></g><g transform="translate(138.323 209.345) rotate(-159.263)"><g transform="translate(0 0)"><path class="f" d="M.152,3.877A15.188,15.188,0,0,1,7.938,0,54.937,54.937,0,0,1,14.7,17.729L.869,20.261A77.212,77.212,0,0,1,.152,3.877Z" transform="translate(0.928)"/><path class="g" d="M16.14,0l.512,3.05L.824,5.944q-1.332-.62-.512-3.05L1.8,2.636,15.628.1Z" transform="translate(0 17.625)"/><path class="e" d="M10.04,13.128H9.988a10.371,10.371,0,0,1-1.178.155q-5.2.09-8.81-10.389L15.828,0l.666,3.67a8.052,8.052,0,0,1-1.281,6.151A7.647,7.647,0,0,1,10.04,13.128Z" transform="translate(0.824 20.675)"/></g></g><g transform="translate(127.214 195.293) rotate(5.737)"><path class="h" d="M9.044,0q2.517,2.26,4.367,7.346l.205.822V8.117Q16.8,3.648,9.044,0m-7.6,6.524a12.291,12.291,0,0,0,3.031-.719A12.315,12.315,0,0,0,7.4,4.418Q8.53,3.7,8.427,3.237q-.051-.411-1.387-.308a17.852,17.852,0,0,0-3.031.719A14.209,14.209,0,0,0,1.132,4.983Q-.049,5.7,0,6.165.1,6.627,1.441,6.524Z" transform="translate(1.892)"/><path class="f" d="M15.3,7.346Q13.453,2.26,10.936,0L1.02,2.62Q-.213,2.928.044,4.059L.2,4.624q2.774,12.432,9.864,10.583a22.217,22.217,0,0,0,4.983-1.9q1.644-.822,1.336-2.055l-.051-.257q-.411-1.49-.822-2.877v.051L15.3,7.346M6.363,5.805a12.291,12.291,0,0,1-3.031.719q-1.336.1-1.438-.36Q1.842,5.7,3.024,4.983A14.209,14.209,0,0,1,5.9,3.648a17.852,17.852,0,0,1,3.031-.719q1.336-.1,1.387.308.1.462-1.027,1.182A12.315,12.315,0,0,1,6.363,5.805Z"/></g><g transform="translate(138.392 222.5) rotate(180)"><path class="b" d="M21.525,0V5.082H3.311v.051A10.273,10.273,0,0,1,0,2.185V0Z"/><path class="c" d="M18.213,0h.052V3.456H0V0Z" transform="translate(3.311 5.082)"/><path class="d" d="M15.626,12.5a8.99,8.99,0,0,1-6.468,2.592H9.107A8.815,8.815,0,0,1,2.691,12.5,8.585,8.585,0,0,1,0,6.149V0H18.265V6.149A8.668,8.668,0,0,1,15.626,12.5Z" transform="translate(3.311 8.538)"/></g><g transform="translate(103.261 172.069) rotate(2.26)"><path class="b" d="M40.072,4.2V0H0V4.2Z" transform="translate(0 27.657)"/><path class="e" d="M40.072,0H0V27.657H40.072Z"/></g><g transform="translate(97.546 169.343) rotate(9.552)"><g transform="translate(0 0)"><path class="f" d="M.152,16.385a15.188,15.188,0,0,0,7.786,3.877A54.938,54.938,0,0,0,14.7,2.533L.869,0A77.213,77.213,0,0,0,.152,16.385Z" transform="translate(0.928 13.698)"/><path class="g" d="M16.14,5.944l.512-3.05L.824,0Q-.507.62.312,3.05L1.8,3.308l13.83,2.533Z" transform="translate(0 10.39)"/><path class="e" d="M10.04.156H9.989A10.37,10.37,0,0,0,8.81,0Q3.613-.089,0,10.39l15.828,2.894.666-3.67a8.052,8.052,0,0,0-1.281-6.151A7.647,7.647,0,0,0,10.04.156Z" transform="translate(0.824)"/></g></g><g transform="matrix(0.974, 0.226, -0.226, 0.974, 94.89, 192.961)"><path class="h" d="M9.044,0q2.517,2.26,4.367,7.346l.205.822V8.117Q16.8,3.648,9.044,0m-7.6,6.524a12.291,12.291,0,0,0,3.031-.719A12.315,12.315,0,0,0,7.4,4.418Q8.53,3.7,8.427,3.237q-.051-.411-1.387-.308a17.852,17.852,0,0,0-3.031.719A14.209,14.209,0,0,0,1.132,4.983Q-.049,5.7,0,6.165.1,6.627,1.441,6.524Z" transform="translate(1.892)"/><path class="f" d="M15.3,7.346Q13.453,2.26,10.936,0L1.02,2.62Q-.213,2.928.044,4.059L.2,4.624q2.774,12.432,9.864,10.583a22.217,22.217,0,0,0,4.983-1.9q1.644-.822,1.336-2.055l-.051-.257q-.411-1.49-.822-2.877v.051L15.3,7.346M6.363,5.805a12.291,12.291,0,0,1-3.031.719q-1.336.1-1.438-.36Q1.842,5.7,3.024,4.983A14.209,14.209,0,0,1,5.9,3.648a17.852,17.852,0,0,1,3.031-.719q1.336-.1,1.387.308.1.462-1.027,1.182A12.315,12.315,0,0,1,6.363,5.805Z"/></g><g transform="translate(100.748 122.5)"><g transform="translate(2.006 23.786)"><path class="i" d="M-7.633,3.221a13.024,13.024,0,0,0,7.346,2,13.024,13.024,0,0,0,7.346-2A6.852,6.852,0,0,0,9.578.55H-10.15A6.852,6.852,0,0,0-7.633,3.221Z" transform="translate(22.891 29.915)"/><path class="f" d="M19.936-3.31a69.966,69.966,0,0,0-.051-21.217q-.668-4.572-5.24-4.572H-16.539q-4.521,0-5.24,4.675a73.055,73.055,0,0,0,0,21.166q.719,4.624,5.24,4.624H14.645Q19.217,1.365,19.936-3.31Z" transform="translate(22.55 29.1)"/></g><g transform="translate(13.565 29.424)"><path class="j" d="M-4.93-16.07A3.384,3.384,0,0,0-7.55-17.2a3.711,3.711,0,0,0-2.723,1.13A4.094,4.094,0,0,0-11.3-13.3a3.906,3.906,0,0,0,1.027,2.723A3.632,3.632,0,0,0-7.55-9.391a3.318,3.318,0,0,0,2.62-1.182A3.711,3.711,0,0,0-3.8-13.3,3.884,3.884,0,0,0-4.93-16.07M3.444-5.333V-8.415H-3.594a.884.884,0,0,0-.565.205A.785.785,0,0,0-4.57-7.7a.944.944,0,0,0,0,.616,3.352,3.352,0,0,0,.36.976,5.737,5.737,0,0,0,.462.771H3.444M14.181-16.07a3.384,3.384,0,0,0-2.62-1.13,3.711,3.711,0,0,0-2.723,1.13A4.094,4.094,0,0,0,7.811-13.3a3.906,3.906,0,0,0,1.027,2.723,3.632,3.632,0,0,0,2.723,1.182,3.318,3.318,0,0,0,2.62-1.182,3.711,3.711,0,0,0,1.13-2.723A3.884,3.884,0,0,0,14.181-16.07Z" transform="translate(11.3 23.789)"/><path class="b" d="M-4.473-21.236a1,1,0,0,0,.771,0,1.492,1.492,0,0,0,.565-.565,1,1,0,0,0,0-.771,1.133,1.133,0,0,0-.565-.565,5.588,5.588,0,0,0-4.624.051,6.131,6.131,0,0,0-2.569,1.952.983.983,0,0,0-.205.771.938.938,0,0,0,.411.668.983.983,0,0,0,.771.205A.938.938,0,0,0-9.25-19.9,3.892,3.892,0,0,1-7.5-21.185a3.741,3.741,0,0,1,3.031-.051m16.285,1.593A3.892,3.892,0,0,1,13.56-18.36a.974.974,0,0,0,.719.411A.9.9,0,0,0,15-18.154a.938.938,0,0,0,.411-.668.983.983,0,0,0-.205-.771,6.131,6.131,0,0,0-2.569-1.952A5.471,5.471,0,0,0,8.063-21.6a.925.925,0,0,0-.565.565.773.773,0,0,0,0,.771,1.133,1.133,0,0,0,.565.565,1,1,0,0,0,.771,0A3.622,3.622,0,0,1,11.813-19.644Z" transform="translate(11.305 23.613)"/><path class="k" d="M6.787-6.338A4.907,4.907,0,0,0,7.2-7.314a1.2,1.2,0,0,0-.051-.616.833.833,0,0,0-.36-.514,1.1,1.1,0,0,0-.616-.205H3.242v3.082H-3.95a3.956,3.956,0,0,0,.771.925A5.972,5.972,0,0,0,1.187-2.793,5.885,5.885,0,0,0,5.5-4.591l.051-.051A6.5,6.5,0,0,0,6.787-6.338Z" transform="translate(11.502 24.024)"/></g><g transform="translate(33.19 36.681)"><g transform="translate(0 0)"><path class="k" d="M11.55-11.053a3.758,3.758,0,0,0,.668-2.26,3.994,3.994,0,0,0-.668-2.312,1.811,1.811,0,0,0-1.541-.925,1.935,1.935,0,0,0-1.593.925A4.238,4.238,0,0,0,7.8-13.313a3.984,3.984,0,0,0,.616,2.26,1.916,1.916,0,0,0,1.593.976A1.8,1.8,0,0,0,11.55-11.053Z" transform="translate(-7.8 16.55)"/></g></g><g transform="translate(15.877 36.681)"><g transform="translate(0 0)"><path class="k" d="M-5.3-11.053a3.758,3.758,0,0,0,.668-2.26A3.994,3.994,0,0,0-5.3-15.625a1.811,1.811,0,0,0-1.541-.925,1.935,1.935,0,0,0-1.593.925,4.238,4.238,0,0,0-.616,2.312,3.984,3.984,0,0,0,.616,2.26,1.916,1.916,0,0,0,1.593.976A1.8,1.8,0,0,0-5.3-11.053Z" transform="translate(9.05 16.55)"/></g></g><g transform="translate(0 0)"><path class="b" d="M-23.524-31.187A54.783,54.783,0,0,0-22.239-5.243q5.086-4.778,5.754-16.953Q-11.605-40.28,24.1-52.25q-25.944,5.5-39.917,12.587l-2.98,4.881Z" transform="translate(24.502 52.25)"/><path class="l" d="M1.281-23.994a59.9,59.9,0,0,0,18.238,2.209l1.027,8.323q4.675-13.871,3.031-19.522-2.26-7.86.308-19.265Q-11.819-40.28-16.7-22.2-9.3-27.231,1.281-23.994Z" transform="translate(24.716 52.25)"/></g></g></g><g transform="translate(-430 768.24)"><g transform="translate(457.59 -469.014) rotate(-135.001)"><path class="b" d="M21.7,0V5.124H3.339v.051A10.358,10.358,0,0,1,0,2.2V0Z"/><path class="c" d="M18.365,0h.052V3.485H0V0Z" transform="translate(3.339 5.124)"/><path class="d" d="M15.757,12.606A9.065,9.065,0,0,1,9.235,15.22H9.183a8.888,8.888,0,0,1-6.47-2.613A8.657,8.657,0,0,1,0,6.2V0H18.417V6.2A8.74,8.74,0,0,1,15.757,12.606Z" transform="translate(3.339 8.609)"/></g><g transform="translate(502.345 -483.273) rotate(180)"><g transform="translate(0 0)"><g transform="translate(0)"><path class="f" d="M.153,3.909A15.315,15.315,0,0,1,8,0a55.4,55.4,0,0,1,6.818,17.877L.876,20.43A77.857,77.857,0,0,1,.153,3.909Z" transform="translate(0.936)"/><path class="g" d="M16.275,0l.517,3.075L.831,5.994Q-.512,5.368.315,2.919l1.5-.261L15.758.1Z" transform="translate(0 17.772)"/><path class="e" d="M10.123,13.238h-.052a10.457,10.457,0,0,1-1.188.156Q3.643,13.485,0,2.919L15.96,0l.671,3.7A8.119,8.119,0,0,1,15.34,9.9,7.71,7.71,0,0,1,10.123,13.238Z" transform="translate(0.831 20.847)"/></g></g></g><g transform="matrix(0.966, -0.259, 0.259, 0.966, 486.848, -492.561)"><g transform="translate(0 0)"><path class="h" d="M9.119,0q2.538,2.279,4.4,7.408l.207.829V8.185Q16.941,3.678,9.119,0M1.453,6.579a12.393,12.393,0,0,0,3.056-.725,12.418,12.418,0,0,0,2.953-1.4Q8.6,3.73,8.5,3.264q-.052-.414-1.4-.311a18,18,0,0,0-3.056.725,14.327,14.327,0,0,0-2.9,1.347Q-.05,5.75,0,6.216.106,6.682,1.453,6.579Z" transform="translate(1.907 0)"/><path class="f" d="M15.43,7.408Q13.565,2.279,11.027,0l-10,2.642q-1.243.311-.984,1.45l.155.57Q3,17.2,10.146,15.333a22.4,22.4,0,0,0,5.025-1.917q1.658-.829,1.347-2.072l-.052-.259q-.414-1.5-.829-2.9v.052l-.207-.829M6.416,5.854a12.393,12.393,0,0,1-3.056.725q-1.347.1-1.45-.363-.052-.466,1.14-1.191a14.327,14.327,0,0,1,2.9-1.347,18,18,0,0,1,3.056-.725q1.347-.1,1.4.311.1.466-1.036,1.191A12.418,12.418,0,0,1,6.416,5.854Z"/></g></g><g transform="translate(505.5 -483.984) rotate(135.001)"><path class="b" d="M21.7,0V5.124H3.339v.051A10.358,10.358,0,0,1,0,2.2V0Z"/><path class="c" d="M18.365,0h.052V3.485H0V0Z" transform="translate(3.339 5.124)"/><path class="d" d="M15.757,12.606A9.065,9.065,0,0,1,9.235,15.22H9.183a8.888,8.888,0,0,1-6.47-2.613A8.657,8.657,0,0,1,0,6.2V0H18.417V6.2A8.74,8.74,0,0,1,15.757,12.606Z" transform="translate(3.339 8.609)"/></g><g transform="translate(450.874 -516.449) rotate(-3.954)"><path class="b" d="M40.406,4.23V0H0V4.23Z" transform="translate(0 27.887)"/><path class="e" d="M40.406,0H0V27.887H40.406Z"/></g><g transform="translate(447.551 -521.732) rotate(29.999)"><g transform="translate(0 0)"><path class="f" d="M.153,16.521A15.315,15.315,0,0,0,8,20.43,55.4,55.4,0,0,0,14.822,2.554L.876,0A77.857,77.857,0,0,0,.153,16.521Z" transform="translate(0.936 13.812)"/><path class="g" d="M16.275,5.994l.517-3.075L.831,0Q-.512.625.315,3.075l1.5.261L15.758,5.889Z" transform="translate(0 10.477)"/><path class="e" d="M10.123.157h-.052A10.457,10.457,0,0,0,8.884,0Q3.643-.09,0,10.477L15.96,13.4l.671-3.7a8.119,8.119,0,0,0-1.291-6.2A7.71,7.71,0,0,0,10.123.157Z" transform="translate(0.831 0)"/></g></g><g transform="translate(439.013 -502.221) rotate(44.998)"><g transform="translate(0 0)"><path class="h" d="M9.119,0q2.538,2.279,4.4,7.408l.207.829V8.185Q16.941,3.678,9.119,0M1.453,6.579a12.393,12.393,0,0,0,3.056-.725,12.418,12.418,0,0,0,2.953-1.4Q8.6,3.73,8.5,3.264q-.052-.414-1.4-.311a18,18,0,0,0-3.056.725,14.327,14.327,0,0,0-2.9,1.347Q-.05,5.75,0,6.216.106,6.682,1.453,6.579Z" transform="translate(1.907 0)"/><path class="f" d="M15.43,7.408Q13.565,2.279,11.027,0l-10,2.642q-1.243.311-.984,1.45l.155.57Q3,17.2,10.146,15.333a22.4,22.4,0,0,0,5.025-1.917q1.658-.829,1.347-2.072l-.052-.259q-.414-1.5-.829-2.9v.052l-.207-.829M6.416,5.854a12.393,12.393,0,0,1-3.056.725q-1.347.1-1.45-.363-.052-.466,1.14-1.191a14.327,14.327,0,0,1,2.9-1.347,18,18,0,0,1,3.056-.725q1.347-.1,1.4.311.1.466-1.036,1.191A12.418,12.418,0,0,1,6.416,5.854Z"/></g></g><g transform="translate(446.525 -568.6)"><g transform="translate(2.022 23.984)"><path class="i" d="M-7.612,3.244A13.133,13.133,0,0,0-.2,5.264,13.133,13.133,0,0,0,7.2,3.244,6.91,6.91,0,0,0,9.742.55H-10.15A6.91,6.91,0,0,0-7.612,3.244Z" transform="translate(22.997 30.169)"/><path class="f" d="M20.29-3.1a70.55,70.55,0,0,0-.052-21.394q-.673-4.61-5.284-4.61H-16.489q-4.559,0-5.284,4.714a73.664,73.664,0,0,0,0,21.343q.725,4.662,5.284,4.662H14.955Q19.565,1.619,20.29-3.1Z" transform="translate(22.55 29.1)"/></g><g transform="translate(13.678 29.669)"><path class="j" d="M-4.877-16.06A3.412,3.412,0,0,0-7.518-17.2a3.742,3.742,0,0,0-2.746,1.14,4.128,4.128,0,0,0-1.036,2.8,3.938,3.938,0,0,0,1.036,2.746A3.663,3.663,0,0,0-7.518-9.326a3.346,3.346,0,0,0,2.642-1.191,3.742,3.742,0,0,0,1.14-2.746,3.916,3.916,0,0,0-1.14-2.8M3.567-5.234V-8.342h-7.1a.892.892,0,0,0-.57.207.792.792,0,0,0-.414.518.952.952,0,0,0,0,.622,3.38,3.38,0,0,0,.363.984,5.785,5.785,0,0,0,.466.777H3.567M14.394-16.06a3.412,3.412,0,0,0-2.642-1.14,3.742,3.742,0,0,0-2.746,1.14,4.128,4.128,0,0,0-1.036,2.8,3.938,3.938,0,0,0,1.036,2.746,3.663,3.663,0,0,0,2.746,1.191,3.346,3.346,0,0,0,2.642-1.191,3.742,3.742,0,0,0,1.14-2.746A3.916,3.916,0,0,0,14.394-16.06Z" transform="translate(11.3 23.844)"/><path class="b" d="M-4.417-21.217a1.009,1.009,0,0,0,.777,0,1.5,1.5,0,0,0,.57-.57,1.009,1.009,0,0,0,0-.777,1.143,1.143,0,0,0-.57-.57,5.635,5.635,0,0,0-4.662.052,6.182,6.182,0,0,0-2.59,1.968.991.991,0,0,0-.207.777.946.946,0,0,0,.414.673.991.991,0,0,0,.777.207.946.946,0,0,0,.673-.414,3.924,3.924,0,0,1,1.761-1.3,3.772,3.772,0,0,1,3.056-.052M12-19.611a3.924,3.924,0,0,1,1.761,1.3.982.982,0,0,0,.725.414.91.91,0,0,0,.725-.207.946.946,0,0,0,.414-.673.991.991,0,0,0-.207-.777,6.182,6.182,0,0,0-2.59-1.968,5.517,5.517,0,0,0-4.61-.052.932.932,0,0,0-.57.57.78.78,0,0,0,0,.777,1.143,1.143,0,0,0,.57.57,1.009,1.009,0,0,0,.777,0A3.652,3.652,0,0,1,12-19.611Z" transform="translate(11.307 23.613)"/><path class="k" d="M6.877-6.319A4.948,4.948,0,0,0,7.291-7.3a1.2,1.2,0,0,0-.052-.622.84.84,0,0,0-.363-.518,1.114,1.114,0,0,0-.622-.207H3.3v3.108H-3.95a3.989,3.989,0,0,0,.777.932,6.021,6.021,0,0,0,4.4,1.865A5.934,5.934,0,0,0,5.582-4.558l.052-.052A6.559,6.559,0,0,0,6.877-6.319Z" transform="translate(11.565 24.152)"/></g><g transform="translate(33.466 36.987)"><g transform="translate(0)"><path class="k" d="M11.582-11.007a3.789,3.789,0,0,0,.673-2.279,4.027,4.027,0,0,0-.673-2.331,1.826,1.826,0,0,0-1.554-.932,1.951,1.951,0,0,0-1.606.932A4.273,4.273,0,0,0,7.8-13.286a4.017,4.017,0,0,0,.622,2.279,1.932,1.932,0,0,0,1.606.984A1.813,1.813,0,0,0,11.582-11.007Z" transform="translate(-7.8 16.55)"/></g></g><g transform="translate(16.009 36.987)"><path class="k" d="M-5.268-11.007A3.789,3.789,0,0,0-4.6-13.286a4.027,4.027,0,0,0-.673-2.331,1.826,1.826,0,0,0-1.554-.932,1.951,1.951,0,0,0-1.606.932,4.273,4.273,0,0,0-.622,2.331,4.017,4.017,0,0,0,.622,2.279,1.932,1.932,0,0,0,1.606.984A1.813,1.813,0,0,0-5.268-11.007Z" transform="translate(9.05 16.55)"/></g><g transform="translate(0 0)"><path class="b" d="M-23.516-31.011a55.24,55.24,0,0,0,1.3,26.16q5.128-4.818,5.8-17.095Q-11.5-40.18,24.5-52.25q-26.16,5.543-40.25,12.692l-3,4.921Z" transform="translate(24.502 52.25)"/><path class="l" d="M1.431-23.759a60.4,60.4,0,0,0,18.39,2.227l1.036,8.392q4.714-13.987,3.056-19.685-2.279-7.926.311-19.426-36,12.07-40.924,30.3Q-9.24-27.022,1.431-23.759Z" transform="translate(24.783 52.25)"/></g></g></g><g transform="translate(-903.968 1028.551)"><g transform="translate(914.033 -710.025)"><g transform="translate(0)"><path class="f" d="M419.359,26.726a11.19,11.19,0,0,0-8.284-.629A91.9,91.9,0,0,0,412.5,50.026l12.937-3.933A121.677,121.677,0,0,0,419.359,26.726Z" transform="translate(-410.838 -25.585)"/><path class="g" d="M411.99,49.747l.8,3.793,14.8-4.506q.893-1.381-.8-3.793l-1.384.438-12.937,3.933Z" transform="translate(-410.813 -25.171)"/><path class="e" d="M423.122,65.818l.044-.025a7.85,7.85,0,0,0,1.077-.405q4.51-2.478,3.339-16.432l-14.8,4.506.926,4.589a10.985,10.985,0,0,0,3.614,6.5A5.914,5.914,0,0,0,423.122,65.818Z" transform="translate(-410.797 -25.093)"/></g></g><g transform="matrix(0.966, -0.259, 0.259, 0.966, 910.968, -715.362)"><path class="h" d="M8.987,8.117q2.5-2.246,4.339-7.3l.2-.817V.051Q16.7,4.493,8.987,8.117M1.432,1.634a12.214,12.214,0,0,1,3.012.715,12.238,12.238,0,0,1,2.91,1.378Q8.477,4.442,8.375,4.9,8.324,5.309,7,5.207a17.741,17.741,0,0,1-3.012-.715A14.12,14.12,0,0,1,1.125,3.165Q-.049,2.45,0,1.991.1,1.532,1.432,1.634Z" transform="translate(1.88 7.232)"/><path class="f" d="M15.207,8.049q-1.838,5.054-4.339,7.3l-9.853-2.6q-1.225-.306-.97-1.429L.2,10.755Q2.954-1.6,10,.238a22.078,22.078,0,0,1,4.952,1.889q1.634.817,1.327,2.042l-.051.255q-.408,1.481-.817,2.859V7.232l-.2.817M6.323,9.581a12.214,12.214,0,0,0-3.012-.715q-1.327-.1-1.429.357-.051.459,1.123,1.174a14.12,14.12,0,0,0,2.859,1.327,17.741,17.741,0,0,0,3.012.715q1.327.1,1.378-.306.1-.459-1.021-1.174A12.238,12.238,0,0,0,6.323,9.581Z"/></g><g transform="matrix(0.637, 0.771, -0.771, 0.637, 966.303, -692.9)"><g transform="translate(0 0)"><path class="f" d="M.151,2.806A17.723,17.723,0,0,1,7.888,0a34.113,34.113,0,0,1,6.719,12.834L.864,14.668A40.923,40.923,0,0,1,.151,2.806Z" transform="translate(0.923)"/><path class="g" d="M16.039,0l.509,2.208L.819,4.3Q-.5,3.854.31,2.1l1.476-.187L15.53.075Z" transform="translate(0 12.759)"/><path class="e" d="M9.977,9.5H9.926q-.593.082-1.171.112Q3.591,9.682,0,2.1L15.729,0l.662,2.657a4.611,4.611,0,0,1-1.273,4.453A8.253,8.253,0,0,1,9.977,9.5Z" transform="translate(0.819 14.967)"/></g></g><g transform="matrix(-1, 0.01, -0.01, -1, 972.074, -682.031)"><path class="h" d="M8.988,0q2.5,2.246,4.34,7.3l.2.817V8.066Q16.7,3.625,8.988,0M1.432,6.484a12.214,12.214,0,0,0,3.012-.715,12.239,12.239,0,0,0,2.91-1.378q1.123-.715,1.021-1.174Q8.324,2.808,7,2.91a17.741,17.741,0,0,0-3.012.715A14.12,14.12,0,0,0,1.125,4.952Q-.049,5.667,0,6.126.1,6.586,1.432,6.484Z" transform="translate(1.88)"/><path class="f" d="M15.207,7.3Q13.369,2.246,10.867,0L1.014,2.6q-1.225.306-.97,1.43L.2,4.595Q2.954,16.95,10,15.112a22.078,22.078,0,0,0,4.952-1.889q1.634-.817,1.327-2.042l-.051-.255q-.408-1.481-.817-2.859v.051l-.2-.817M6.324,5.769a12.214,12.214,0,0,1-3.012.715q-1.327.1-1.43-.357-.051-.459,1.123-1.174A14.12,14.12,0,0,1,5.864,3.625,17.741,17.741,0,0,1,8.876,2.91q1.327-.1,1.378.306.1.459-1.021,1.174A12.239,12.239,0,0,1,6.324,5.769Z"/></g><g transform="translate(922.275 -680.674)"><g transform="translate(0)"><path class="b" d="M418.91,91.746V87.559l39.3-6.329v4.186Z" transform="translate(-418.91 -53.763)"/><path class="e" d="M418.91,60.659l39.3-6.329V81.8l-39.3,6.329Z" transform="translate(-418.91 -54.33)"/></g></g><g transform="translate(944.281 -662.617)"><path class="b" d="M440.461,91.558l1.484-4.813L459,93.038l.015-.048a11.072,11.072,0,0,1,2.24,3.936L460.614,99Z" transform="translate(-440.461 -71.704)"/><path class="c" d="M441.915,86.813l-.048-.018,1.009-3.273,17.1,6.312-.994,3.225-.015.048Z" transform="translate(-440.431 -71.772)"/><path class="d" d="M448.976,72.836a8.541,8.541,0,0,1,6.812-.22l.048.018a9.319,9.319,0,0,1,5.25,4.672,8.968,8.968,0,0,1,.664,6.946l-1.8,5.824-17.1-6.312,1.8-5.824A8.105,8.105,0,0,1,448.976,72.836Z" transform="translate(-440.411 -72.014)"/></g><g transform="translate(919.664 -656.313)"><path class="b" d="M437.181,99.276l-.661-5.066-17.383,5.058-.007-.051a12.78,12.78,0,0,0-2.777,3.858l.284,2.178Z" transform="translate(-416.352 -77.851)"/><path class="c" d="M436.471,94.281l.049-.014-.45-3.445-17.433,5.072.443,3.394.007.051Z" transform="translate(-416.304 -77.923)"/><path class="d" d="M431.944,79.358a7.656,7.656,0,0,0-6.51-.788l-.049.014a10.849,10.849,0,0,0-7.528,11.445l.8,6.13,17.433-5.072-.8-6.13A7.543,7.543,0,0,0,431.944,79.358Z" transform="translate(-416.323 -78.189)"/></g><g transform="translate(913.634 -724.841) rotate(-4.738)"><g transform="translate(1.94 23.638)"><path class="i" d="M2.5,2.655A12.943,12.943,0,0,0,9.8,4.646a12.943,12.943,0,0,0,7.3-1.991A6.81,6.81,0,0,0,19.6,0H0A6.81,6.81,0,0,0,2.5,2.655Z" transform="translate(12.661 30.275)"/><path class="f" d="M42.221,25.629A69.53,69.53,0,0,0,42.17,4.544Q41.507,0,36.963,0H5.973Q1.481,0,.766,4.646a72.6,72.6,0,0,0,0,21.034q.715,4.595,5.207,4.595h30.99Q41.507,30.275,42.221,25.629Z"/></g><path class="l" d="M8.577,12.508l-2.961,4.85Q27.824,15.827,48.246,0,22.464,5.463,8.577,12.508M25.323,52.075q12.559-.306,20.881-12.1,3.216-4.595,3.063-13.733a17.749,17.749,0,0,0-.511-4.748q-.1-.306-.2-.562-.736-2.207-.868-2.757a8.32,8.32,0,0,1,.153,2.706Q44.315,48.552,23.893,51.973,4.34,47.99.919,20.932-1.532,34.206,2.553,40.026q8.322,11.793,20.881,12.1a4.132,4.132,0,0,0,1.072-.051A3.23,3.23,0,0,0,25.323,52.075Z"/><path class="b" d="M46.918,20.881a8.32,8.32,0,0,0-.153-2.706v-.1q-1.838-7.5.562-18.073Q26.905,15.827,4.7,17.358L0,20.932Q3.421,47.99,22.974,51.973,43.4,48.552,46.918,20.881Z" transform="translate(0.919)"/></g></g><g transform="translate(-983.281 1128.552)"><g transform="translate(1036.508 -710.025)"><g transform="translate(0 0)"><path class="f" d="M540.942,26.726a11.19,11.19,0,0,1,8.284-.629A91.9,91.9,0,0,1,547.8,50.026l-12.937-3.933A121.673,121.673,0,0,1,540.942,26.726Z" transform="translate(-532.37 -25.585)"/><path class="g" d="M548.338,49.747l-.8,3.793-14.8-4.506q-.893-1.381.8-3.793l1.384.438,12.937,3.933Z" transform="translate(-532.422 -25.171)"/><path class="e" d="M537.189,65.818l-.044-.025a7.85,7.85,0,0,1-1.077-.405q-4.51-2.478-3.339-16.432l14.8,4.506-.926,4.589a10.985,10.985,0,0,1-3.614,6.5A5.914,5.914,0,0,1,537.189,65.818Z" transform="translate(-532.42 -25.093)"/></g></g><g transform="matrix(-0.966, -0.259, 0.259, -0.966, 1052.693, -700.535)"><path class="h" d="M8.988,0q2.5,2.246,4.34,7.3l.2.817V8.066Q16.7,3.625,8.988,0M1.432,6.484a12.214,12.214,0,0,0,3.012-.715,12.238,12.238,0,0,0,2.91-1.378q1.123-.715,1.021-1.174Q8.324,2.808,7,2.91a17.741,17.741,0,0,0-3.012.715A14.12,14.12,0,0,0,1.125,4.952Q-.049,5.667,0,6.126.1,6.586,1.432,6.484Z" transform="translate(1.88)"/><path class="f" d="M15.207,7.3Q13.369,2.246,10.867,0L1.014,2.6Q-.211,2.91.044,4.033L.2,4.595Q2.954,16.95,10,15.112a22.078,22.078,0,0,0,4.952-1.889q1.634-.817,1.327-2.042l-.051-.255q-.408-1.481-.817-2.859v.051l-.2-.817M6.324,5.769a12.214,12.214,0,0,1-3.012.715q-1.327.1-1.429-.357-.051-.459,1.123-1.174A14.12,14.12,0,0,1,5.864,3.625,17.741,17.741,0,0,1,8.876,2.91q1.327-.1,1.378.306.1.459-1.021,1.174A12.238,12.238,0,0,1,6.324,5.769Z"/></g><g transform="matrix(-0.637, 0.771, -0.771, -0.637, 1020.291, -677.251)"><g transform="translate(0 0)"><path class="f" d="M.151,11.861a17.723,17.723,0,0,0,7.737,2.806A34.113,34.113,0,0,0,14.608,1.833L.864,0A40.923,40.923,0,0,0,.151,11.861Z" transform="translate(0.923 9.916)"/><path class="g" d="M16.039,4.3,16.548,2.1.819,0Q-.5.449.31,2.208l1.476.187L15.53,4.228Z" transform="translate(0 7.521)"/><path class="e" d="M9.977.113H9.926Q9.333.031,8.755,0,3.591-.065,0,7.521l15.729,2.1.662-2.657a4.611,4.611,0,0,0-1.273-4.453A8.253,8.253,0,0,0,9.977.113Z" transform="translate(0.819)"/></g></g><g transform="matrix(1, 0.01, -0.01, 1, 995.711, -697.38)"><path class="h" d="M8.987,8.117q2.5-2.246,4.339-7.3l.2-.817V.051Q16.7,4.493,8.987,8.117M1.432,1.634a12.214,12.214,0,0,1,3.012.715,12.238,12.238,0,0,1,2.91,1.378Q8.477,4.441,8.375,4.9,8.324,5.309,7,5.207a17.74,17.74,0,0,1-3.012-.715A14.12,14.12,0,0,1,1.125,3.165Q-.049,2.45,0,1.991.1,1.532,1.432,1.634Z" transform="translate(1.88 7.232)"/><path class="f" d="M15.206,8.049q-1.838,5.054-4.339,7.3l-9.853-2.6q-1.225-.306-.97-1.429L.2,10.755Q2.954-1.6,10,.238a22.077,22.077,0,0,1,4.952,1.889q1.634.817,1.327,2.042l-.051.255q-.408,1.48-.817,2.859V7.232l-.2.817M6.323,9.58a12.214,12.214,0,0,0-3.012-.715q-1.327-.1-1.429.357-.051.459,1.123,1.174a14.12,14.12,0,0,0,2.859,1.327,17.74,17.74,0,0,0,3.012.715q1.327.1,1.378-.306.1-.459-1.021-1.174A12.238,12.238,0,0,0,6.323,9.58Z"/></g><g transform="translate(1006.054 -680.675)"><g transform="translate(0 0)"><path class="b" d="M541.9,91.746V87.559L502.6,81.23v4.186Z" transform="translate(-502.597 -53.763)"/><path class="e" d="M541.9,60.659,502.6,54.33V81.8l39.3,6.329Z" transform="translate(-502.597 -54.33)"/></g></g><g transform="translate(1001.599 -662.618)"><g transform="translate(0 0)"><path class="b" d="M519.968,91.558l-1.484-4.813-17.052,6.294-.015-.048a11.073,11.073,0,0,0-2.24,3.936l.638,2.07Z" transform="translate(-498.213 -71.704)"/><path class="c" d="M518.458,86.813l.048-.018L517.5,83.522l-17.1,6.312.994,3.225.015.048Z" transform="translate(-498.187 -71.772)"/><path class="d" d="M511.423,72.836a8.541,8.541,0,0,0-6.812-.22l-.048.018a9.319,9.319,0,0,0-5.25,4.672,8.968,8.968,0,0,0-.664,6.946l1.8,5.824,17.1-6.312-1.8-5.824A8.106,8.106,0,0,0,511.423,72.836Z" transform="translate(-498.233 -72.014)"/></g></g><g transform="translate(1027.142 -656.313)"><g transform="translate(0 0)"><path class="b" d="M523.249,99.276l.661-5.066,17.383,5.058.007-.051a12.78,12.78,0,0,1,2.777,3.858l-.284,2.178Z" transform="translate(-523.249 -77.851)"/><path class="c" d="M523.9,94.281l-.049-.014.45-3.445,17.433,5.072-.443,3.394-.007.051Z" transform="translate(-523.237 -77.923)"/><path class="d" d="M528.434,79.358a7.656,7.656,0,0,1,6.51-.788l.049.014a10.849,10.849,0,0,1,7.528,11.445l-.8,6.13-17.433-5.072.8-6.13A7.543,7.543,0,0,1,528.434,79.358Z" transform="translate(-523.227 -78.189)"/></g></g><g transform="translate(1049.163 -666.484) rotate(-175.262)"><g transform="translate(1.94)"><path class="i" d="M2.5,1.991A12.943,12.943,0,0,1,9.8,0a12.943,12.943,0,0,1,7.3,1.991,6.81,6.81,0,0,1,2.5,2.655H0A6.81,6.81,0,0,1,2.5,1.991Z" transform="translate(12.661 0)"/><path class="f" d="M42.221,4.646a69.53,69.53,0,0,1-.051,21.085q-.664,4.544-5.207,4.544H5.973q-4.493,0-5.207-4.646a72.6,72.6,0,0,1,0-21.034Q1.481,0,5.973,0H36.963Q41.506,0,42.221,4.646Z" transform="translate(0 4.646)"/></g><g transform="translate(0 6.416)"><path class="l" d="M8.577,39.634l-2.961-4.85q22.208,1.532,42.629,17.358Q22.463,46.68,8.577,39.634M25.322.068Q37.881.374,46.2,12.168,49.42,16.762,49.266,25.9a17.748,17.748,0,0,1-.511,4.748q-.1.306-.2.562-.736,2.207-.868,2.757a8.32,8.32,0,0,0,.153-2.706Q44.314,3.591,23.893.17,4.34,4.152.919,31.211-1.532,17.937,2.553,12.117,10.874.323,23.433.017a4.132,4.132,0,0,1,1.072.051A3.23,3.23,0,0,1,25.322.068Z"/><path class="b" d="M46.918,31.091a8.32,8.32,0,0,1-.153,2.706v.1q-1.838,7.5.562,18.073Q26.905,36.146,4.7,34.614L0,31.04Q3.421,3.982,22.974,0,43.4,3.421,46.918,31.091Z" transform="translate(0.919 0.17)"/></g></g></g></g></svg>