<svg xmlns="http://www.w3.org/2000/svg" width="514.053" height="257.025" viewBox="0 0 514.053 257.025"><defs><style>.a{fill:#e9dfb3;}.b{fill:#eee4b7;}.c{fill:#cbc29c;}.d{fill:#f7edbe;}</style></defs><g transform="translate(-11852.049 -2630)"><g transform="translate(11852.049 2646.064)"><g transform="translate(0 0)"><path class="a" d="M634.1,141.2q-1.289-.378-2.611-.8a177.568,177.568,0,0,1-12.449,26.506A170.978,170.978,0,0,1,608,183.572v72.69q35.743-51.2,98.995-66.867l-.2-.2q41.566-12.739,70.28-35.542-71.509,8.072-142.97-12.45M865.025,256.262v-72.69q-33.534,44.377-98.192,64.457l.2.2q-77.686,19.233-114.054,91.364-1.956,3.936-3.815,8.032h176.5q1.743-3.936,3.213-8.032a178.927,178.927,0,0,0,7.028-22.088q11.044-35.14,29.116-61.244M828.881,143.814a.258.258,0,0,1-.2.2l-14.859,15.662,15.863,15.06,15.06-15.863-15.863-15.06M642.538,279.153l6.225,18.474,18.474-6.225-6.225-18.674-18.474,6.426m6.627-16.867,12.65-17.67-17.47-12.65-12.851,17.47,17.671,12.851m99.6-50.4,13.855,16.867L779.685,214.9,765.629,198.03l-16.867,13.855m69.276-13.855L797.556,190.2l-7.831,20.482,20.682,8.032Z" transform="translate(-608 -106.666)"/><path class="b" d="M631.494,146.13q-11.731-3.47-23.494-7.63v50.8a170.986,170.986,0,0,0,11.044-16.666,177.569,177.569,0,0,0,12.449-26.506M828.881,345.325q-1.47,4.1-3.213,8.032h39.357V261.992q-18.072,26.1-29.116,61.244a178.927,178.927,0,0,1-7.028,22.088M788.118,157.978q-5.462.783-11.044,1.406-28.714,22.8-70.28,35.542l.2.2Q643.743,210.788,608,261.992v91.364h41.164q1.859-4.1,3.815-8.032,36.368-72.132,114.054-91.364l-.2-.2q64.658-20.08,98.192-64.457V138.5Q847,144.978,828.881,149.544l15.863,15.06-15.06,15.863-15.863-15.06,14.859-15.662a383.415,383.415,0,0,1-40.562,8.233m9.438,37.951,20.482,7.831-7.63,20.683-20.682-8.032,7.831-20.482m-34.939,38.554-13.855-16.867,16.867-13.855,14.056,16.867-17.068,13.855m-100.8,15.863-12.65,17.67-17.671-12.851,12.851-17.47,17.47,12.651m-13.052,53.011-6.225-18.474,18.474-6.426,6.225,18.674Z" transform="translate(-608 -112.396)"/><path class="c" d="M865.025,140.032V132Q736.513,164.128,608,132v8.032Q736.513,172.16,865.025,140.032Z" transform="translate(-608 -132)"/><path class="d" d="M777.074,172.955q5.582-.622,11.044-1.406a383.427,383.427,0,0,0,40.562-8.233.258.258,0,0,0,.2-.2q18.12-4.566,36.144-11.044V134Q736.513,166.128,608,134v18.072q11.763,4.16,23.494,7.63,1.322.426,2.611.8Q705.565,181.027,777.074,172.955Z" transform="translate(-608 -125.968)"/></g></g><g transform="translate(12109.076 2630)"><g transform="translate(0 0)"><path class="b" d="M921.668,364.968h39.357V273.6q-18.072,26.1-29.116,61.244a178.826,178.826,0,0,1-7.028,22.088q-1.47,4.1-3.213,8.032M802.794,206.537l.2.2Q739.743,222.4,704,273.6v91.364h41.164q1.859-4.1,3.815-8.032,36.368-72.132,114.054-91.364l-.2-.2q64.658-20.08,98.192-64.457v-50.8a391.308,391.308,0,0,0-49.6-14.458q-2.253-.494-4.619-1-33.763,50.285-104.015,71.887M721.671,334.045l-6.225-18.474,18.474-6.426,6.225,18.674-18.474,6.225M894.961,225.412l-7.63,20.682-20.682-8.032,7.831-20.482,20.481,7.831m-56.826,12.851L824.28,221.4l16.867-13.855L855.2,224.408l-17.068,13.855M715.044,184.248a181.557,181.557,0,0,0,17.871-43.172q-14.458,3.912-28.915,9.036v50.8A171.061,171.061,0,0,0,715.044,184.248Z" transform="translate(-704 -107.944)"/><path class="a" d="M748.979,362.667q-1.956,3.936-3.815,8.032h176.5q1.743-3.936,3.213-8.032a178.823,178.823,0,0,0,7.028-22.088q11.044-35.14,29.116-61.244v-72.69q-33.534,44.377-98.192,64.457l.2.2q-77.686,19.233-114.054,91.364m75.3-135.54,13.855,16.867L855.2,230.138l-14.056-16.867L824.28,227.126m63.052,24.7,7.63-20.682-20.481-7.831-7.831,20.482,20.682,8.032M715.445,321.3l6.225,18.474,18.474-6.225-6.225-18.674L715.445,321.3m61.847-184.134q-10.442,1.406-20.482,3.614L737.735,145.4a7.139,7.139,0,0,0-2.008.6q-1.406.373-2.811.8a181.558,181.558,0,0,1-17.871,43.172A171.072,171.072,0,0,1,704,206.645v72.69q35.742-51.2,98.995-66.867l-.2-.2q70.252-21.6,104.015-71.887a366.525,366.525,0,0,0-66.264-7.63H821.268a5.9,5.9,0,0,0-1.406.2h-1.405a4.447,4.447,0,0,0-1.406.2h-1.607A368.74,368.74,0,0,0,777.292,137.168Z" transform="translate(-704 -113.674)"/><path class="c" d="M704,144.064V152.1a531.884,531.884,0,0,1,120.48-16.064h16.064A531.891,531.891,0,0,1,961.025,152.1v-8.032a543.777,543.777,0,0,0-64.056-12.048A501.874,501.874,0,0,0,840.545,128H824.481a496.132,496.132,0,0,0-56.224,4.016A541.877,541.877,0,0,0,704,144.064Z" transform="translate(-704 -128)"/><path class="d" d="M704,146.064v18.072q14.457-5.124,28.915-9.036,1.406-.43,2.811-.8a7.138,7.138,0,0,1,2.008-.6l19.076-4.618q10.04-2.209,20.482-3.614a368.744,368.744,0,0,1,38.152-4.016h1.607a4.446,4.446,0,0,1,1.406-.2h1.405a5.9,5.9,0,0,1,1.406-.2h19.277a366.531,366.531,0,0,1,66.264,7.63q2.365.51,4.619,1a391.311,391.311,0,0,1,49.6,14.458V146.064A531.89,531.89,0,0,0,840.545,130H824.481A531.883,531.883,0,0,0,704,146.064Z" transform="translate(-704 -121.968)"/></g></g></g></svg>