<svg xmlns="http://www.w3.org/2000/svg" width="151.802" height="179.994" viewBox="0 0 151.802 179.994"><defs><style>.a{fill:#c99869;}.b{fill:#bf8f60;}.c{fill:#d3ad89;}.d{fill:#bb844d;}.e{fill:#ae7640;}</style></defs><g transform="translate(-1344.02 975.033)"><g transform="translate(1382.534 -975.012)"><g transform="translate(0 0)"><path class="a" d="M1172.366,749.056H1141v68.776h31.366V749.056M1141.9,653.284h-.9V670.51h31.366V653.284h-.9a15.848,15.848,0,0,0-3.728-5.656A14.817,14.817,0,0,0,1156.683,643a15.237,15.237,0,0,0-11.184,4.628A16.688,16.688,0,0,0,1141.9,653.284Z" transform="translate(-1141 -637.858)"/><path class="b" d="M1172.366,653.7H1141v78.545h31.366Z" transform="translate(-1141 -621.048)"/><path class="c" d="M1167.739,645.628A14.817,14.817,0,0,0,1156.683,641a15.237,15.237,0,0,0-11.184,4.628,15.424,15.424,0,0,0-4.5,10.8h.9a16.688,16.688,0,0,1,3.6-5.656,15.237,15.237,0,0,1,11.184-4.628,14.817,14.817,0,0,1,11.056,4.628,15.848,15.848,0,0,1,3.728,5.656h.9A15.192,15.192,0,0,0,1167.739,645.628Z" transform="translate(-1141 -641)"/></g></g><g transform="translate(1344.02 -975.033)"><g transform="translate(0 0)"><path class="d" d="M1219.682,651.683v5.142q.386-11.956,7.842-10.541,3.857-1.028,9.9,7.07l36.252,42.294.514.771a22.308,22.308,0,0,1,3.6,11.184V704.26a22.2,22.2,0,0,0-3.6-12.984l-.514-.771-36.252-42.294q-6.042-8.1-9.9-7.07-7.456-1.414-7.842,10.541m-91.143,14.655q-2.957,2.571-2.442,7.585v2.443a7.454,7.454,0,0,1,2.442-4.885q2.057-2.571,6.942-2.957h84.2v-5.142h-84.2Q1130.6,663.767,1128.539,666.338Z" transform="translate(-1126.02 -640.992)"/><path class="e" d="M1126.089,673.223v60.42a14.2,14.2,0,0,0,0,2.7,7.114,7.114,0,0,0,2.571,4.756q1.928,2.571,6.942,2.828h84.073v11.955q.386,11.955,7.842,10.413,3.857.9,9.9-6.942l36.252-42.294a3.234,3.234,0,0,0,.386-.771,20.612,20.612,0,0,0,3.728-11.441v-.385a22.308,22.308,0,0,0-3.6-11.184l-.514-.771-36.252-42.294q-6.042-8.1-9.9-7.07-7.456-1.414-7.842,10.541v11.7h-84.2q-4.885.386-6.942,2.957A7.454,7.454,0,0,0,1126.089,673.223Z" transform="translate(-1126.013 -637.85)"/></g></g></g></svg>