<?xml version="1.0" encoding="UTF-8"?>
<svg xmlns="http://www.w3.org/2000/svg" xmlns:xlink="http://www.w3.org/1999/xlink" width="500" height="500" viewBox="0 0 500 500">
<symbol id="player-walk-1" width="56.617" height="97.326" viewBox="0 0 56.617 97.326"><defs><style>.a{fill:#b8824d;}.b{fill:#2a7db4;}.c{fill:#3498db;}.d{fill:#ffe0b1;}.e{fill:#25a85c;}.f{fill:#2ecc71;}.g{fill:#e7cba0;}.h{fill:#d7bd93;}.i{fill:#fff;}.j{fill:#7f7058;}.k{fill:#c48a51;}</style></defs><g transform="translate(-91.403 -122.5)"><g transform="matrix(-0.866, -0.5, 0.5, -0.866, 116.5, 198.85)"><path class="a" d="M8.964-15.976v4.946H-8.762v.049a10,10,0,0,1-3.223-2.869v-2.127Z"/><path class="b" d="M8.964-11.03h.05v3.363H-8.762V-11.03Z"/><path class="c" d="M6.446,4.5A8.749,8.749,0,0,1,.151,7.024H.1A8.579,8.579,0,0,1-6.144,4.5,8.356,8.356,0,0,1-8.762-1.682V-7.667H9.014v5.985A8.436,8.436,0,0,1,6.446,4.5Z"/></g><g transform="translate(136.9 179.15) rotate(-159.263)"><g transform="translate(-0.4 0.05)"><path class="d" d="M-8.575-22.285A14.782,14.782,0,0,1-1-26.058,53.468,53.468,0,0,1,5.584-8.8L-7.877-6.338A75.148,75.148,0,0,1-8.575-22.285Z"/><path class="e" d="M6.082-8.9l.5,2.968-15.4,2.817q-1.3-.6-.5-2.968l1.446-.252L5.584-8.8Z"/><path class="f" d="M.947,6.841H.9a10.093,10.093,0,0,1-1.147.151Q-5.307,7.08-8.824-3.119l15.4-2.817.648,3.572A7.837,7.837,0,0,1,5.982,3.622,7.442,7.442,0,0,1,.947,6.841Z"/></g></g><g transform="translate(135.3 203.3) rotate(5.737)"><path class="g" d="M.65-9A17.6,17.6,0,0,1,4.9-1.85l.2.8V-1.1Q8.2-5.45.65-9m-7.4,6.35a11.962,11.962,0,0,0,2.95-.7A11.986,11.986,0,0,0-.95-4.7q1.1-.7,1-1.15Q0-6.25-1.3-6.15a17.375,17.375,0,0,0-2.95.7,13.829,13.829,0,0,0-2.8,1.3Q-8.2-3.45-8.15-3-8.05-2.55-6.75-2.65Z"/><path class="d" d="M4.9-1.85A17.6,17.6,0,0,0,.65-9L-9-6.45q-1.2.3-.95,1.4l.15.55Q-7.1,7.6-.2,5.8A21.623,21.623,0,0,0,4.65,3.95q1.6-.8,1.3-2L5.9,1.7Q5.5.25,5.1-1.1v.05l-.2-.8m-8.7-1.5a11.962,11.962,0,0,1-2.95.7q-1.3.1-1.4-.35-.05-.45,1.1-1.15a13.829,13.829,0,0,1,2.8-1.3,17.375,17.375,0,0,1,2.95-.7q1.3-.1,1.35.3.1.45-1,1.15A11.986,11.986,0,0,1-3.8-3.35Z"/></g><g transform="translate(125.15 203.85) rotate(180)"><path class="a" d="M8.964-15.976v4.946H-8.762v.049a10,10,0,0,1-3.223-2.869v-2.127Z"/><path class="b" d="M8.964-11.03h.05v3.363H-8.762V-11.03Z"/><path class="c" d="M6.446,4.5A8.749,8.749,0,0,1,.151,7.023H.1A8.579,8.579,0,0,1-6.144,4.5,8.355,8.355,0,0,1-8.762-1.682V-7.666H9.014v5.985A8.436,8.436,0,0,1,6.446,4.5Z"/></g><g transform="translate(121.1 192.5) rotate(2.26)"><g transform="translate(0.5 0.5)"><path class="a" d="M19.5,9.476V5.393h-39V9.476Z"/><path class="f" d="M19.5-21.524h-39V5.393h39Z"/></g></g><g transform="translate(106.1 176.7) rotate(9.552)"><g transform="translate(-0.4 -0.05)"><path class="d" d="M-8.575,22.285A14.782,14.782,0,0,0-1,26.058,53.468,53.468,0,0,0,5.584,8.8L-7.877,6.338A75.148,75.148,0,0,0-8.575,22.285Z"/><path class="e" d="M6.082,8.9l.5-2.968-15.4-2.817q-1.3.6-.5,2.968l1.446.252L5.584,8.8Z"/><path class="f" d="M.947-6.841H.9A10.093,10.093,0,0,0-.249-6.992Q-5.307-7.08-8.824,3.119l15.4,2.817.648-3.572A7.837,7.837,0,0,0,5.982-3.622,7.442,7.442,0,0,0,.947-6.841Z"/></g></g><g transform="matrix(0.974, 0.226, -0.226, 0.974, 102.5, 202.1)"><path class="g" d="M.65-9A17.6,17.6,0,0,1,4.9-1.85l.2.8V-1.1Q8.2-5.45.65-9m-7.4,6.35a11.962,11.962,0,0,0,2.95-.7A11.986,11.986,0,0,0-.95-4.7q1.1-.7,1-1.15Q0-6.25-1.3-6.15a17.375,17.375,0,0,0-2.95.7,13.829,13.829,0,0,0-2.8,1.3Q-8.2-3.45-8.15-3-8.05-2.55-6.75-2.65Z"/><path class="d" d="M4.9-1.85A17.6,17.6,0,0,0,.65-9L-9-6.45q-1.2.3-.95,1.4l.15.55Q-7.1,7.6-.2,5.8A21.623,21.623,0,0,0,4.65,3.95q1.6-.8,1.3-2L5.9,1.7Q5.5.25,5.1-1.1v.05l-.2-.8m-8.7-1.5a11.962,11.962,0,0,1-2.95.7q-1.3.1-1.4-.35-.05-.45,1.1-1.15a13.829,13.829,0,0,1,2.8-1.3,17.375,17.375,0,0,1,2.95-.7q1.3-.1,1.35.3.1.45-1,1.15A11.986,11.986,0,0,1-3.8-3.35Z"/></g><g transform="translate(125 174.75)"><path class="h" d="M-7.7,3.15A12.676,12.676,0,0,0-.55,5.1,12.676,12.676,0,0,0,6.6,3.15,6.669,6.669,0,0,0,9.05.55h-19.2A6.669,6.669,0,0,0-7.7,3.15Z"/><path class="d" d="M18.8-4a68.1,68.1,0,0,0-.05-20.65q-.65-4.45-5.1-4.45H-16.7q-4.4,0-5.1,4.55a71.1,71.1,0,0, 0,0,20.6q.7,4.5,5.1,4.5H13.65Q18.1.55,18.8-4Z"/><path class="i" d="M-5.1-16.1a3.294,3.294,0,0,0-2.55-1.1,3.612,3.612,0,0,0-2.65,1.1,3.984,3.984,0,0,0-1,2.7,3.8,3.8,0,0,0,1,2.65A3.535,3.535,0,0,0-7.65-9.6,3.229,3.229,0,0,0-5.1-10.75,3.612,3.612,0,0,0-4-13.4a3.78,3.78,0,0,0-1.1-2.7M3.05-5.65v-3H-3.8a.861.861,0,0,0-.55.2.764.764,0,0,0-.4.5.919.919,0,0,0,0,.6,3.263,3.263,0,0,0,.35.95,5.584,5.584,0,0,0,.45.75h7M13.5-16.1a3.294,3.294,0,0,0-2.55-1.1A3.612,3.612,0,0,0,8.3-16.1a3.984,3.984,0,0,0-1,2.7,3.8,3.8,0,0,0,1,2.65A3.535,3.535,0,0,0,10.95-9.6a3.229,3.229,0,0,0,2.55-1.15,3.612,3.612,0,0,0,1.1-2.65A3.78,3.78,0,0,0,13.5-16.1Z"/><path class="a" d="M-4.65-21.3a.974.974,0,0,0,.75,0,1.453,1.453,0,0,0,.55-.55.974.974,0,0,0,0-.75,1.1,1.1,0,0,0-.55-.55,5.439,5.439,0,0,0-4.5.05,5.967,5.967,0,0,0-2.5,1.9.956.956,0,0,0-.2.75.913.913,0,0,0,.4.65.956.956,0,0,0,.75.2A.913.913,0,0,0-9.3-20a3.788,3.788,0,0,1,1.7-1.25,3.641,3.641,0,0,1,2.95-.05M11.2-19.75a3.788,3.788,0,0,1,1.7,1.25.948.948,0,0,0,.7.4.878.878,0,0,0,.7-.2.913.913,0,0,0,.4-.65.956.956,0,0,0-.2-.75A5.967,5.967,0,0,0,12-21.6a5.325,5.325,0,0,0-4.45-.05A.9.9,0,0,0,7-21.1a.752.752,0,0,0,0,.75,1.1,1.1,0,0,0,.55.55.974.974,0,0,0,.75,0A3.525,3.525,0,0,1,11.2-19.75Z"/><path class="j" d="M6.5-6.4a4.776,4.776,0,0,0,.4-.95,1.163,1.163,0,0,0-.05-.6.811.811,0,0,0-.35-.5,1.075,1.075,0,0,0-.6-.2H3.05v3h-7a3.851,3.851,0,0,0,.75.9,5.812,5.812,0,0,0,4.25,1.8A5.728,5.728,0,0,0,5.25-4.7l.05-.05A6.331,6.331,0,0,0,6.5-6.4Z"/><path class="j" d="M11.45-11.2a3.657,3.657,0,0,0,.65-2.2,3.887,3.887,0,0,0-.65-2.25,1.763,1.763,0,0,0-1.5-.9,1.883,1.883,0,0,0-1.55.9,4.125,4.125,0,0,0-.6,2.25,3.877,3.877,0,0,0,.6,2.2,1.865,1.865,0,0,0,1.55.95A1.75,1.75,0,0,0,11.45-11.2Z"/><path class="j" d="M-5.4-11.2a3.657,3.657,0,0,0,.65-2.2,3.887,3.887,0,0,0-.65-2.25,1.763,1.763,0,0,0-1.5-.9,1.883,1.883,0,0,0-1.55.9,4.125,4.125,0,0,0-.6,2.25,3.877,3.877,0,0,0,.6,2.2,1.865,1.865,0,0,0,1.55.95A1.75,1.75,0,0,0-5.4-11.2Z"/><path class="a" d="M-23.55-31.75A53.318,53.318,0,0,0-22.3-6.5q4.95-4.65,5.6-16.5,4.75-17.6,39.5-29.25Q-2.45-46.9-16.05-40l-2.9,4.75Z"/><path class="k" d="M.8-24.75A58.3,58.3,0,0,0,18.55-22.6l1,8.1Q24.1-28,22.5-33.5q-2.2-7.65.3-18.75Q-11.95-40.6-16.7-23-9.5-27.9.8-24.75Z"/></g></g></symbol>
<symbol id="player-walk-2" width="76.137" height="96.485" viewBox="0 0 76.137 96.485"><defs><style>.a{fill:#b8824d;}.b{fill:#2a7db4;}.c{fill:#3498db;}.d{fill:#ffe0b1;}.e{fill:#25a85c;}.f{fill:#2ecc71;}.g{fill:#e7cba0;}.h{fill:#d7bd93;}.i{fill:#fff;}.j{fill:#7f7058;}.k{fill:#c48a51;}</style></defs><g transform="translate(-428 568.6)"><g transform="translate(459.382 -492.25) rotate(-135.001)"><path class="a" d="M8.964-15.976v4.946H-8.762v.049a10,10,0,0,1-3.223-2.869v-2.127Z"/><path class="b" d="M8.964-11.03h.05v3.363H-8.762V-11.03Z"/><path class="c" d="M6.446,4.5A8.75,8.75,0,0,1,.151,7.024H.1A8.579,8.579,0,0,1-6.144,4.5,8.356,8.356,0,0,1-8.762-1.682V-7.667H9.014v5.985A8.436,8.436,0,0,1,6.446,4.5Z"/></g><g transform="translate(489.732 -512.25) rotate(180)"><g transform="translate(-0.4 0.05)"><path class="d" d="M-8.575-22.285A14.782,14.782,0,0,1-1-26.058,53.468,53.468,0,0,1,5.584-8.8L-7.877-6.338A75.148,75.148,0,0,1-8.575-22.285Z"/><path class="e" d="M6.082-8.9l.5,2.968-15.4,2.817q-1.3-.6-.5-2.968l1.446-.252L5.584-8.8Z"/><path class="f" d="M.947,6.841H.9a10.093,10.093,0,0,1-1.147.151Q-5.307,7.08-8.824-3.119l15.4-2.817.648,3.572A7.837,7.837,0,0,1,5.982,3.622,7.442,7.442,0,0,1,.947,6.841Z"/></g></g><g transform="matrix(0.966, -0.259, 0.259, 0.966, 496.782, -489.1)"><path class="g" d="M.65-9A17.6,17.6,0,0,1,4.9-1.85l.2.8V-1.1Q8.2-5.45.65-9m-7.4,6.35a11.962,11.962,0,0,0,2.95-.7A11.986,11.986,0,0,0-.95-4.7q1.1-.7,1-1.15Q0-6.25-1.3-6.15a17.375,17.375,0,0,0-2.95.7,13.829,13.829,0,0,0-2.8,1.3Q-8.2-3.45-8.15-3-8.05-2.55-6.75-2.65Z"/><path class="d" d="M4.9-1.85A17.6,17.6,0,0,0,.65-9L-9-6.45q-1.2.3-.95,1.4l.15.55Q-7.1,7.6-.2,5.8A21.623,21.623,0,0,0,4.65,3.95q1.6-.8,1.3-2L5.9,1.7Q5.5.25,5.1-1.1v.05l-.2-.8m-8.7-1.5a11.962,11.962,0,0,1-2.95.7q-1.3.1-1.4-.35-.05-.45,1.1-1.15a13.829,13.829,0,0,1,2.8-1.3,17.375,17.375,0,0,1,2.95-.7q1.3-.1,1.35.3.1.45-1,1.15A11.986,11.986,0,0,1-3.8-3.35Z"/></g><g transform="translate(483.032 -489.75) rotate(135.001)"><path class="a" d="M8.964-15.976v4.946H-8.762v.049a10,10,0,0,1-3.223-2.869v-2.127Z"/><path class="b" d="M8.964-11.03h.05v3.363H-8.762V-11.03Z"/><path class="c" d="M6.446,4.5A8.75,8.75,0,0,1,.151,7.024H.1A8.579,8.579,0,0,1-6.144,4.5,8.356,8.356,0,0,1-8.762-1.682V-7.667H9.014v5.985A8.436,8.436,0,0,1,6.446,4.5Z"/></g><g transform="translate(470.482 -498.6) rotate(-3.954)"><g transform="translate(0.5 0.5)"><path class="a" d="M19.5,9.476V5.393h-39V9.476Z"/><path class="f" d="M19.5-21.524h-39V5.393h39Z"/></g></g><g transform="translate(452.032 -512.25) rotate(29.999)"><g transform="translate(-0.4 -0.05)"><path class="d" d="M-8.575,22.285A14.782,14.782,0,0,0-1,26.058,53.468,53.468,0,0,0,5.584,8.8L-7.877,6.338A75.148,75.148,0,0,0-8.575,22.285Z"/><path class="e" d="M6.082,8.9l.5-2.968-15.4-2.817q-1.3.6-.5,2.968l1.446.252L5.584,8.8Z"/><path class="f" d="M.947-6.841H.9A10.093,10.093,0,0,0-.249-6.992Q-5.307-7.08-8.824,3.119l15.4,2.817.648-3.572A7.837,7.837,0,0,0,5.982-3.622,7.442,7.442,0,0,0,.947-6.841Z"/></g></g><g transform="translate(439.332 -491.1) rotate(44.998)"><path class="g" d="M.65-9A17.6,17.6,0,0,1,4.9-1.85l.2.8V-1.1Q8.2-5.45.65-9m-7.4,6.35a11.962,11.962,0,0,0,2.95-.7A11.986,11.986,0,0,0-.95-4.7q1.1-.7,1-1.15Q0-6.25-1.3-6.15a17.375,17.375,0,0,0-2.95.7,13.829,13.829,0,0,0-2.8,1.3Q-8.2-3.45-8.15-3-8.05-2.55-6.75-2.65Z"/><path class="d" d="M4.9-1.85A17.6,17.6,0,0,0,.65-9L-9-6.45q-1.2.3-.95,1.4l.15.55Q-7.1,7.6-.2,5.8A21.623,21.623,0,0,0,4.65,3.95q1.6-.8,1.3-2L5.9,1.7Q5.5.25,5.1-1.1v.05l-.2-.8m-8.7-1.5a11.962,11.962,0,0,1-2.95.7q-1.3.1-1.4-.35-.05-.45,1.1-1.15a13.829,13.829,0,0,1,2.8-1.3,17.375,17.375,0,0,1,2.95-.7q1.3-.1,1.35.3.1.45-1,1.15A11.986,11.986,0,0,1-3.8-3.35Z"/></g><g transform="translate(470.382 -516.35)"><path class="h" d="M-7.7,3.15A12.676,12.676,0,0,0-.55,5.1,12.676,12.676,0,0,0,6.6,3.15,6.669,6.669,0,0,0,9.05.55h-19.2A6.669,6.669,0,0,0-7.7,3.15Z"/><path class="d" d="M18.8-4a68.1,68.1,0,0,0-.05-20.65q-.65-4.45-5.1-4.45H-16.7q-4.4,0-5.1,4.55a71.1,71.1,0,0,0,0,20.6q.7,4.5,5.1,4.5H13.65Q18.1.55,18.8-4Z"/><path class="i" d="M-5.1-16.1a3.294,3.294,0,0,0-2.55-1.1,3.612,3.612,0,0,0-2.65,1.1,3.984,3.984,0,0,0-1,2.7,3.8,3.8,0,0,0,1,2.65A3.535,3.535,0,0,0-7.65-9.6,3.229,3.229,0,0,0-5.1-10.75,3.612,3.612,0,0,0-4-13.4a3.78,3.78,0,0,0-1.1-2.7M3.05-5.65v-3H-3.8a.861.861,0,0,0-.55.2.764.764,0,0,0-.4.5.919.919,0,0,0,0,.6,3.263,3.263,0,0,0,.35.95,5.584,5.584,0,0,0,.45.75h7M13.5-16.1a3.294,3.294,0,0,0-2.55-1.1A3.612,3.612,0,0,0,8.3-16.1a3.984,3.984,0,0,0-1,2.7,3.8,3.8,0,0,0,1,2.65A3.535,3.535,0,0,0,10.95-9.6a3.229,3.229,0,0,0,2.55-1.15,3.612,3.612,0,0,0,1.1-2.65A3.78,3.78,0,0,0,13.5-16.1Z"/><path class="a" d="M-4.65-21.3a.974.974,0,0,0,.75,0,1.453,1.453,0,0,0,.55-.55.974.974,0,0,0,0-.75,1.1,1.1,0,0,0-.55-.55,5.439,5.439,0,0,0-4.5.05,5.967,5.967,0,0,0-2.5,1.9.956.956,0,0,0-.2.75.913.913,0,0,0,.4.65.956.956,0,0,0,.75.2A.913.913,0,0,0-9.3-20a3.788,3.788,0,0,1,1.7-1.25,3.641,3.641,0,0,1,2.95-.05M11.2-19.75a3.788,3.788,0,0,1,1.7,1.25.948.948,0,0,0,.7.4.878.878,0,0,0,.7-.2.913.913,0,0,0,.4-.65.956.956,0,0,0-.2-.75A5.967,5.967,0,0,0,12-21.6a5.325,5.325,0,0,0-4.45-.05A.9.9,0,0,0,7-21.1a.752.752,0,0,0,0,.75,1.1,1.1,0,0,0,.55.55.974.974,0,0,0,.75,0A3.525,3.525,0,0,1,11.2-19.75Z"/><path class="j" d="M6.5-6.4a4.776,4.776,0,0,0,.4-.95,1.163,1.163,0,0,0-.05-.6.811.811,0,0,0-.35-.5,1.075,1.075,0,0,0-.6-.2H3.05v3h-7a3.851,3.851,0,0,0,.75.9,5.812,5.812,0,0,0,4.25,1.8A5.728,5.728,0,0,0,5.25-4.7l.05-.05A6.331,6.331,0,0,0,6.5-6.4Z"/><path class="j" d="M11.45-11.2a3.657,3.657,0,0,0,.65-2.2,3.887,3.887,0,0,0-.65-2.25,1.763,1.763,0,0,0-1.5-.9,1.883,1.883,0,0,0-1.55.9,4.125,4.125,0,0,0-.6,2.25,3.877,3.877,0,0,0,.6,2.2,1.865,1.865,0,0,0,1.55.95A1.75,1.75,0,0,0,11.45-11.2Z"/><path class="j" d="M-5.4-11.2a3.657,3.657,0,0,0,.65-2.2,3.887,3.887,0,0,0-.65-2.25,1.763,1.763,0,0,0-1.5-.9,1.883,1.883,0,0,0-1.55.9,4.125,4.125,0,0,0-.6,2.25,3.877,3.877,0,0,0,.6,2.2,1.865,1.865,0,0,0,1.55.95A1.75,1.75,0,0,0-5.4-11.2Z"/><path class="a" d="M-23.55-31.75A53.318,53.318,0,0,0-22.3-6.5q4.95-4.65,5.6-16.5,4.75-17.6,39.5-29.25Q-2.45-46.9-16.05-40l-2.9,4.75Z"/><path class="k" d="M.8-24.75A58.3,58.3,0,0,0,18.55-22.6l1,8.1Q24.1-28,22.5-33.5q-2.2-7.65.3-18.75Q-11.95-40.6-16.7-23-9.5-27.9.8-24.75Z"/></g></g></symbol>
<symbol id="player-stand" width="67.028" height="95.926" viewBox="0 0 67.028 95.926"><defs><style>.a{fill:#b8824d;}.b{fill:#2a7db4;}.c{fill:#3498db;}.d{fill:#2ecc71;}.e{fill:#ffe0b1;}.f{fill:#25a85c;}.g{fill:#e7cba0;}.h{fill:#d7bd93;}.i{fill:#fff;}.j{fill:#7f7058;}.k{fill:#c48a51;}</style></defs><g transform="translate(-528.218 630.1)"><g transform="translate(551.882 -550.15)"><path class="a" d="M8.964,15.976V11.03H-8.763v-.049a10,10,0,0,0-3.223,2.869v2.127Z"/><path class="b" d="M8.964,11.03h.05V7.667H-8.763V11.03Z"/><path class="c" d="M6.446-4.5A8.75,8.75,0,0,0,.151-7.024H.1A8.579,8.579,0,0,0-6.144-4.5,8.356,8.356,0,0,0-8.763,1.682V7.667H9.014V1.682A8.436,8.436,0,0,0,6.446-4.5Z"/></g><g transform="translate(573.032 -550.15) rotate(180)"><path class="a" d="M8.964-15.976v4.946H-8.763v.049a10,10,0,0,1-3.223-2.869v-2.127Z"/><path class="b" d="M8.964-11.03h.05v3.363H-8.763V-11.03Z"/><path class="c" d="M6.446,4.5A8.75,8.75,0,0,1,.151,7.024H.1A8.579,8.579,0,0,1-6.144,4.5,8.356,8.356,0,0,1-8.763-1.682V-7.667H9.014v5.985A8.436,8.436,0,0,1,6.446,4.5Z"/></g><g transform="translate(562.482 -558.85)"><g transform="translate(0.5 0.5)"><path class="a" d="M19.5,9.476V5.393h-39V9.476Z"/><path class="d" d="M19.5-21.524h-39V5.393h39Z"/></g></g><g transform="matrix(0.966, 0.259, -0.259, 0.966, 544.682, -573.65)"><g transform="translate(-0.4 -0.045)"><path class="e" d="M-8.575,20.111A15.435,15.435,0,0,0-1,23.516,45.5,45.5,0,0,0,5.584,7.944L-7.877,5.72A61.279,61.279,0,0,0-8.575,20.111Z"/><path class="f" d="M6.082,8.035l.5-2.678-15.4-2.542q-1.3.545-.5,2.678l1.446.227L5.584,7.944Z"/><path class="d" d="M.947-6.174H.9A11.13,11.13,0,0,0-.249-6.31q-5.058-.079-8.575,9.125l15.4,2.542.648-3.223a6.525,6.525,0,0,0-1.246-5.4A7.558,7.558,0,0,0,.947-6.174Z"/></g></g><g transform="translate(539.432 -548.95) rotate(14.999)"><path class="g" d="M.65-9A17.6,17.6,0,0,1,4.9-1.85l.2.8V-1.1Q8.2-5.45.65-9m-7.4,6.35a11.962,11.962,0,0,0,2.95-.7A11.986,11.986,0,0,0-.95-4.7q1.1-.7,1-1.15Q0-6.25-1.3-6.15a17.375,17.375,0,0,0-2.95.7,13.829,13.829,0,0,0-2.8,1.3Q-8.2-3.45-8.15-3-8.05-2.55-6.75-2.65Z"/><path class="e" d="M4.9-1.85A17.6,17.6,0,0,0,.65-9L-9-6.45q-1.2.3-.95,1.4l.15.55Q-7.1,7.6-.2,5.8A21.623,21.623,0,0,0,4.65,3.95q1.6-.8,1.3-2L5.9,1.7Q5.5.25,5.1-1.1v.05l-.2-.8m-8.7-1.5a11.962,11.962,0,0,1-2.95.7q-1.3.1-1.4-.35-.05-.45,1.1-1.15a13.829,13.829,0,0,1,2.8-1.3,17.375,17.375,0,0,1,2.95-.7q1.3-.1,1.35.3.1.45-1,1.15A11.986,11.986,0,0,1-3.8-3.35Z"/></g><g transform="matrix(-0.966, 0.259, -0.259, -0.966, 578.732, -574.65)"><g transform="translate(-0.4 0.045)"><path class="e" d="M-8.575-20.111A15.435,15.435,0,0,1-1-23.516,45.5,45.5,0,0,1,5.584-7.944L-7.877-5.72A61.279,61.279,0,0,1-8.575-20.111Z"/><path class="f" d="M6.082-8.035l.5,2.678-15.4,2.542q-1.3-.545-.5-2.678l1.446-.227L5.584-7.944Z"/><path class="d" d="M.947,6.174H.9A11.13,11.13,0,0,1-.249,6.31q-5.058.079-8.575-9.125l15.4-2.542.648,3.223a6.525,6.525,0,0,1-1.246,5.4A7.558,7.558,0,0,1,.947,6.174Z"/></g></g><g transform="translate(584.032 -549.5) rotate(165.001)"><path class="g" d="M.65,9A17.6,17.6,0,0,0,4.9,1.85l.2-.8V1.1Q8.2,5.45.65,9m-7.4-6.35a11.962,11.962,0,0,1,2.95.7A11.986,11.986,0,0,1-.95,4.7q1.1.7,1,1.15-.05.4-1.35.3a17.375,17.375,0,0,1-2.95-.7,13.829,13.829,0,0,1-2.8-1.3Q-8.2,3.45-8.15,3-8.05,2.55-6.75,2.65Z"/><path class="e" d="M4.9,1.85A17.6,17.6,0,0,1,.65,9L-9,6.45q-1.2-.3-.95-1.4l.15-.55Q-7.1-7.6-.2-5.8A21.623,21.623,0,0,1,4.65-3.95q1.6.8,1.3,2L5.9-1.7Q5.5-.25,5.1,1.1V1.05l-.2.8m-8.7,1.5a11.962,11.962,0,0,0-2.95-.7q-1.3-.1-1.4.35-.05.45,1.1,1.15a13.829,13.829,0,0,0,2.8,1.3,17.375,17.375,0,0,0,2.95.7q1.3.1,1.35-.3.1-.45-1-1.15A11.986,11.986,0,0,0-3.8,3.35Z"/></g><g transform="translate(562.382 -577.85)"><path class="h" d="M-7.7,3.15A12.676,12.676,0,0,0-.55,5.1,12.676,12.676,0,0,0,6.6,3.15,6.669,6.669,0,0,0,9.05.55h-19.2A6.669,6.669,0,0,0-7.7,3.15Z"/><path class="e" d="M18.8-4a68.1,68.1,0,0,0-.05-20.65q-.65-4.45-5.1-4.45H-16.7q-4.4,0-5.1,4.55a71.1,71.1,0,0,0,0,20.6q.7,4.5,5.1,4.5H13.65Q18.1.55,18.8-4Z"/><path class="i" d="M-5.1-16.1a3.294,3.294,0,0,0-2.55-1.1,3.612,3.612,0,0,0-2.65,1.1,3.984,3.984,0,0,0-1,2.7,3.8,3.8,0,0,0,1,2.65A3.535,3.535,0,0,0-7.65-9.6,3.229,3.229,0,0,0-5.1-10.75,3.612,3.612,0,0,0-4-13.4a3.78,3.78,0,0,0-1.1-2.7M3.05-5.65v-3H-3.8a.861.861,0,0,0-.55.2.764.764,0,0,0-.4.5.919.919,0,0,0,0,.6,3.263,3.263,0,0,0,.35.95,5.584,5.584,0,0,0,.45.75h7M13.5-16.1a3.294,3.294,0,0,0-2.55-1.1A3.612,3.612,0,0,0,8.3-16.1a3.984,3.984,0,0,0-1,2.7,3.8,3.8,0,0,0,1,2.65A3.535,3.535,0,0,0,10.95-9.6a3.229,3.229,0,0,0,2.55-1.15,3.612,3.612,0,0,0,1.1-2.65A3.78,3.78,0,0,0,13.5-16.1Z"/><path class="a" d="M-4.65-21.3a.974.974,0,0,0,.75,0,1.453,1.453,0,0,0,.55-.55.974.974,0,0,0,0-.75,1.1,1.1,0,0,0-.55-.55,5.439,5.439,0,0,0-4.5.05,5.967,5.967,0,0,0-2.5,1.9.956.956,0,0,0-.2.75.913.913,0,0,0,.4.65.956.956,0,0,0,.75.2A.913.913,0,0,0-9.3-20a3.788,3.788,0,0,1,1.7-1.25,3.641,3.641,0,0,1,2.95-.05M11.2-19.75a3.788,3.788,0,0,1,1.7,1.25.948.948,0,0,0,.7.4.878.878,0,0,0,.7-.2.913.913,0,0,0,.4-.65.956.956,0,0,0-.2-.75A5.967,5.967,0,0,0,12-21.6a5.325,5.325,0,0,0-4.45-.05A.9.9,0,0,0,7-21.1a.752.752,0,0,0,0,.75,1.1,1.1,0,0,0,.55.55.974.974,0,0,0,.75,0A3.525,3.525,0,0,1,11.2-19.75Z"/><path class="j" d="M6.5-6.4a4.776,4.776,0,0,0,.4-.95,1.163,1.163,0,0,0-.05-.6.811.811,0,0,0-.35-.5,1.075,1.075,0,0,0-.6-.2H3.05v3h-7a3.851,3.851,0,0,0,.75.9,5.812,5.812,0,0,0,4.25,1.8A5.728,5.728,0,0,0,5.25-4.7l.05-.05A6.331,6.331,0,0,0,6.5-6.4Z"/><path class="j" d="M11.45-11.2a3.657,3.657,0,0,0,.65-2.2,3.887,3.887,0,0,0-.65-2.25,1.763,1.763,0,0,0-1.5-.9,1.883,1.883,0,0,0-1.55.9,4.125,4.125,0,0,0-.6,2.25,3.877,3.877,0,0,0,.6,2.2,1.865,1.865,0,0,0,1.55.95A1.75,1.75,0,0,0,11.45-11.2Z"/><path class="j" d="M-5.4-11.2a3.657,3.657,0,0,0,.65-2.2,3.887,3.887,0,0,0-.65-2.25,1.763,1.763,0,0,0-1.5-.9,1.883,1.883,0,0,0-1.55.9,4.125,4.125,0,0,0-.6,2.25,3.877,3.877,0,0,0,.6,2.2,1.865,1.865,0,0,0,1.55.95A1.75,1.75,0,0,0-5.4-11.2Z"/><path class="a" d="M-23.55-31.75A53.318,53.318,0,0,0-22.3-6.5q4.95-4.65,5.6-16.5,4.75-17.6,39.5-29.25Q-2.45-46.9-16.05-40l-2.9,4.75Z"/><path class="k" d="M.8-24.75A58.3,58.3,0,0,0,18.55-22.6l1,8.1Q24.1-28,22.5-33.5q-2.2-7.65.3-18.75Q-11.95-40.6-16.7-23-9.5-27.9.8-24.75Z"/></g></g></symbol>
</svg>
