<svg xmlns="http://www.w3.org/2000/svg" width="90.5" height="89.293" viewBox="0 0 90.5 89.293"><defs><style>.a{fill:#fff;}.b{fill:#fc0;}.c{fill:#fff3c6;}</style></defs><g transform="translate(-2349 -1381.25)"><path class="a" d="M787.109,136.824l1.357-3.771a6.25,6.25,0,0,0-1.207-3.771,5.147,5.147,0,0,0-3.318-2.263l-19.307-4.827-10.257-17.647a5.037,5.037,0,0,0-3.017-2.564,5.287,5.287,0,0,0-3.922,0,4.609,4.609,0,0,0-3.017,2.413l-10.407,17.8-19.458,4.827a4.623,4.623,0,0,0-3.167,2.263,5.793,5.793,0,0,0-1.358,3.771,5.453,5.453,0,0,0,1.508,3.771l12.821,15.988L722.7,173.326a6.109,6.109,0,0,0,1.056,3.922l3.167,2.413,4.073-.3,18.4-7.843,18.4,7.843,3.922.3,3.017-2.413,1.056-3.922-1.508-20.513,12.821-15.988M745.328,96.4l7.843-.151.452.151a10.073,10.073,0,0,1,6.033,5.128v.151l8.9,15.234,16.893,4.223H785.3a10.753,10.753,0,0,1,6.938,4.676l.151.151a12.5,12.5,0,0,1,2.112,7.089,12.185,12.185,0,0,1-2.715,7.693v-.151l-11.312,14.178,1.357,18.1a12.456,12.456,0,0,1-1.961,7.692l-.151.3a13.087,13.087,0,0,1-5.581,4.374l-.754.3-8.3-.754L749.4,178.153l-15.988,6.787-8.3.453h-.3a12.747,12.747,0,0,1-5.883-4.525l-.151-.3a11.958,11.958,0,0,1-2.112-7.692l1.508-18.1L707.168,140.9A11.325,11.325,0,0,1,704,133.053a11.584,11.584,0,0,1,2.715-7.542,9.972,9.972,0,0,1,6.636-4.374H713.2l17.044-4.223,9.05-15.536-.3.3a10.112,10.112,0,0,1,6.335-5.279" transform="translate(1645 1285)"/><path class="b" d="M783.076,133.245l-12.821,15.988,1.508,20.513-1.056,3.922-3.017,2.413-3.922-.3-18.4-7.843-18.4,7.843-4.073.3-3.167-2.413a6.109,6.109,0,0,1-1.056-3.922l1.659-20.513-12.821-15.988A5.453,5.453,0,0,1,706,129.474a5.793,5.793,0,0,1,1.358-3.771,4.623,4.623,0,0,1,3.167-2.263l19.458-4.827,10.407-17.8a4.609,4.609,0,0,1,3.017-2.413,5.287,5.287,0,0,1,3.922,0,5.037,5.037,0,0,1,3.017,2.564L760.6,118.614l19.307,4.827a5.147,5.147,0,0,1,3.318,2.263,6.25,6.25,0,0,1,1.207,3.771l-1.357,3.771m-19.759-2.112a9.279,9.279,0,0,0-9.05-9.05,8.852,8.852,0,0,0-6.486,2.715,8.607,8.607,0,0,0-2.564,6.335,8.77,8.77,0,0,0,9.05,9.05,8.606,8.606,0,0,0,6.335-2.564,8.851,8.851,0,0,0,2.715-6.486" transform="translate(1649.033 1288.58)"/><path class="c" d="M737.1,115.05a8.851,8.851,0,0,1-2.715,6.486,8.606,8.606,0,0,1-6.335,2.564,8.77,8.77,0,0,1-9.05-9.05,8.607,8.607,0,0,1,2.564-6.335A8.852,8.852,0,0,1,728.05,106a9.279,9.279,0,0,1,9.05,9.05" transform="translate(1675.25 1304.662)"/></g></svg>