<svg xmlns="http://www.w3.org/2000/svg" width="391.21" height="549.136" viewBox="0 0 391.21 549.136"><defs><style>.a{fill:#76af1c;}.b{fill:#93db24;}.c{fill:#80be1f;}.d{fill:#af7f51;}.e{fill:#bd8958;}</style></defs><g transform="translate(3647.3 79.097)"><g transform="translate(-3647.3 -79.097)"><g transform="translate(0)"><path class="a" d="M1462.879,204.607q-19.259,26.286-56.736,36.176-3.644.911-7.157,1.822-1.562,2.082-3.383,4.164-21.732,25.245-59.989,33.313a10.3,10.3,0,0,0-1.692.13q-38.128,7.808-70.79-6.637a5.778,5.778,0,0,1-1.041-.521q-1.692.521-3.384.911-38,8.328-71.18-5.075a9.087,9.087,0,0,0-1.3-.651q-33.313-13.664-42.031-41.641a22.336,22.336,0,0,1-1.041-3.644l-3.644-1.562q-32.532-14.444-40.34-42.292a4.647,4.647,0,0,0-.39-1.171,54.442,54.442,0,0,1-1.822-10.28q-.26,4.164-.13,8.328a103.861,103.861,0,0,0,1.952,16.787,10.283,10.283,0,0,1,.39,1.562q7.808,38.388,40.34,60.12,1.822,1.171,3.644,2.212.39,2.6,1.041,5.205,8.718,38.128,42.031,59.078l1.3.781q33.183,20.69,71.18,11.972l3.384-.781q.39.26,1.041.651,32.662,21.732,70.79,14.054.78-.13,1.692-.26,38.258-7.938,59.989-40.47,1.822-2.733,3.383-5.465,3.514-.781,7.157-1.822,37.477-10.8,56.736-44.894.39-.781.781-1.431a92.888,92.888,0,0,0,12.1-42.682,98.545,98.545,0,0,0-2.473-23.944l-.26-1.041a69.365,69.365,0,0,1-9.369,17.828A13.717,13.717,0,0,0,1462.879,204.607Z" transform="translate(-1096.784 148.816)"/><path class="b" d="M1186.087,71.291l1.3-1.041q31.361-23.423,70.009-17.958a93.38,93.38,0,0,1,26.937,7.938,92.957,92.957,0,0,1,26.937-5.6q38.778-2.733,68.578,23.033a15.842,15.842,0,0,0,1.3,1.171q28.759,25.245,31.882,62.982,27.717,18.348,37.607,51.141.261.781.521,1.692a101.312,101.312,0,0,1,4.164,25.375,93.905,93.905,0,0,0-4.164-30.58q-.26-.911-.521-1.692-9.89-32.792-37.607-51.141-3.123-37.737-31.882-62.982a15.845,15.845,0,0,1-1.3-1.171q-29.8-25.766-68.578-23.033a92.958,92.958,0,0,0-26.937,5.6,93.38,93.38,0,0,0-26.937-7.938q-38.648-5.465-70.009,17.958l-1.3,1.041q-31.231,23.553-36.826,62.071-23.163,14.7-35,41.121a7.183,7.183,0,0,1-.651,1.431,92.493,92.493,0,0,0-8.328,40.73,94.287,94.287,0,0,1,8.328-35.525,7.183,7.183,0,0,0,.651-1.431q11.842-26.416,35-41.121Q1154.856,94.844,1186.087,71.291Z" transform="translate(-1083.242 -46.053)"/><path class="c" d="M1200.823,67.044l-1.3,1.041q-31.231,23.553-36.826,62.071-23.163,14.7-35,41.121a7.183,7.183,0,0,1-.651,1.431,94.287,94.287,0,0,0-8.328,35.525,95.507,95.507,0,0,0,1.692,14.7l.26,1.3-.781,1.041q-17.047,20.821-19.909,49.189a9.492,9.492,0,0,1-.13,1.562,111.711,111.711,0,0,0-.52,13.143q0,1.562.13,3.383a87,87,0,0,0,7.678,30.71.375.375,0,0,1-.13.26l-.781,1.562a5.05,5.05,0,0,0-.26.651,88.913,88.913,0,0,0-9.109,33.573,54.442,54.442,0,0,0,1.822,10.28,4.647,4.647,0,0,1,.39,1.171q7.808,27.848,40.34,42.292l3.644,1.562a22.336,22.336,0,0,0,1.041,3.644q8.718,27.978,42.031,41.641a9.087,9.087,0,0,1,1.3.651q33.183,13.4,71.18,5.075,1.692-.39,3.384-.911a5.778,5.778,0,0,0,1.041.521q32.662,14.444,70.79,6.637a10.3,10.3,0,0,1,1.692-.13q38.258-8.068,59.989-33.313,1.822-2.082,3.383-4.164,3.514-.911,7.157-1.822,37.477-9.89,56.736-36.176a13.717,13.717,0,0,1,.781-1.171,69.365,69.365,0,0,0,9.369-17.828q-.26-1.3-.651-2.6l2.6-4.685a120.359,120.359,0,0,0,13.013-52.7q0-6.246-.39-12.492-.13-1.562-.26-3.253a233.6,233.6,0,0,0-13.924-51.791q-2.733-7.027-5.986-13.924v-.26l-.781-1.562v-.13a98.058,98.058,0,0,0,2.082-14.184q.13-1.431.13-2.863a101.312,101.312,0,0,0-4.164-25.375q-.26-.911-.521-1.692-9.89-32.792-37.607-51.141-3.123-37.737-31.882-62.982a15.842,15.842,0,0,1-1.3-1.171q-29.8-25.766-68.578-23.033a92.957,92.957,0,0,0-26.937,5.6,93.38,93.38,0,0,0-26.937-7.938Q1232.184,43.621,1200.823,67.044Z" transform="translate(-1096.677 -42.848)"/></g></g><g transform="translate(-3481.559 155.518)"><g transform="translate(0)"><path class="d" d="M1175.264,365.853l-8.849-25.635q-2.473,25.375-5.466,44.244l14.314-18.608m39.559-8.328q-4.815-41.641-7.938-105.014l-11.842,52.052,19.78,52.962M1184.5,212.692l-8.849-42.292q-1.431,47.367-3.383,86.275Z" transform="translate(-1159.692 -81.392)"/><path class="e" d="M1202.325,137.371a3.894,3.894,0,0,0-2.863-1.171h-18.088a4.054,4.054,0,0,0-2.993,1.171,3.846,3.846,0,0,0-1.3,2.993l-.52,76.516q-.13,4.164-.13,8.328l8.849,42.292-12.232,43.984q-2.473,48.278-5.856,83.543l8.849,25.635-14.314,18.608q-.65,3.253-1.171,6.506a4.012,4.012,0,0,0,.26,2.472,5.168,5.168,0,0,0,1.562,1.822,4.106,4.106,0,0,0,2.212.651h51.531a4.33,4.33,0,0,0,2.343-.651,4.066,4.066,0,0,0,1.431-1.822,4.807,4.807,0,0,0,.39-2.472q-2.6-14.444-4.684-33.443l-19.78-52.962,11.842-52.052q-2.082-40.73-3.383-90.44l-.651-76.516A3.846,3.846,0,0,0,1202.325,137.371Z" transform="translate(-1160.467 -136.2)"/></g></g><g transform="translate(-3498.924 368.278)"><g transform="translate(0)"><path class="e" d="M1160.836,218.861a3.965,3.965,0,0,0-2.472-.911,3.9,3.9,0,0,0-2.473,1.171l-.911.911a3.9,3.9,0,0,0-1.171,2.472,2.967,2.967,0,0,0,.911,2.472l25.115,29.8a5.406,5.406,0,0,0,1.691,1.171,4.23,4.23,0,0,0,2.082,0,3.55,3.55,0,0,0,1.692-.911l5.986-5.986a3.857,3.857,0,0,0,1.041-1.822,2.989,2.989,0,0,0-.13-1.952,3.54,3.54,0,0,0-1.3-1.822Z" transform="translate(-1153.795 -217.95)"/></g></g><g transform="translate(-3462.158 111.196)"><g transform="translate(0 0)"><path class="e" d="M1190.768,182.23l10.15-56.346a4.445,4.445,0,0,0-.651-3.774,5.46,5.46,0,0,0-3.383-2.212l-1.692-.521a6.78,6.78,0,0,0-4.164.26,6.173,6.173,0,0,0-2.473,2.993l-20.17,53.353a6.319,6.319,0,0,0-.39,3.383,6.134,6.134,0,0,0,1.3,2.6,6.377,6.377,0,0,0,2.733,1.431L1184,186.655a6.5,6.5,0,0,0,2.863-.13,6.377,6.377,0,0,0,2.733-1.431A10.442,10.442,0,0,0,1190.768,182.23Z" transform="translate(-1167.922 -119.17)"/></g></g><g transform="translate(-3447.119 316.58)"><g transform="translate(0)"><path class="e" d="M1216.252,199.945a4.364,4.364,0,0,0-2.212-1.692,3.886,3.886,0,0,0-2.6.13l-35.265,16.006a3.325,3.325,0,0,0-1.822,1.431,2.76,2.76,0,0,0-.651,1.822,3.442,3.442,0,0,0,.521,1.952l4.294,7.417a2.869,2.869,0,0,0,1.431,1.431,3.87,3.87,0,0,0,1.952.521q.91-.13,1.3,10.931,10.67-24.855,32.532-33.964a3.143,3.143,0,0,0,1.561-2.212,3.57,3.57,0,0,0-.52-2.6Z" transform="translate(-1173.7 -198.086)"/></g></g><g transform="translate(-3455.404 214.336)"><g transform="translate(0)"><path class="e" d="M1172.816,196.277a5.466,5.466,0,0,0-1.952,2.6,5.644,5.644,0,0,0-.26,2.993,6.532,6.532,0,0,0,1.562,2.6l8.849,8.849a6.152,6.152,0,0,0,2.472,1.3,6.332,6.332,0,0,0,3.123,0,7.331,7.331,0,0,0,2.473-1.822q-2.6-17.828,36.957-43.723a4.532,4.532,0,0,0,1.3-3.644,5.186,5.186,0,0,0-1.822-3.513l-1.171-1.3a6.706,6.706,0,0,0-3.773-1.822,6.243,6.243,0,0,0-3.644,1.3Z" transform="translate(-1170.517 -158.8)"/></g></g><g transform="translate(-3503.735 124.807)"><g transform="translate(0)"><path class="e" d="M1154.95,126.222l-1.171,1.3a5.187,5.187,0,0,0-1.822,3.513,4.532,4.532,0,0,0,1.3,3.644q39.559,25.9,36.957,43.723a7.331,7.331,0,0,0,2.472,1.822,6.335,6.335,0,0,0,3.123,0,6.158,6.158,0,0,0,2.472-1.3l8.849-8.849a6.531,6.531,0,0,0,1.561-2.6,5.646,5.646,0,0,0-.26-2.993,5.469,5.469,0,0,0-1.952-2.6L1162.367,125.7a6.241,6.241,0,0,0-3.643-1.3A6.709,6.709,0,0,0,1154.95,126.222Z" transform="translate(-1151.946 -124.4)"/></g></g></g></svg>