<svg xmlns="http://www.w3.org/2000/svg" xmlns:xlink="http://www.w3.org/1999/xlink" width="87" height="503" viewBox="0 0 87 503"><defs><style>.a{clip-path:url(#b);}.b{fill:#b99761;}.c{fill:#3498db;}.d{fill:#2f8ac7;}.e{fill:gray;}.f{fill:#999;}.g{fill:#ffd699;}.h{fill:#ffe0b1;}.i{fill:#dbc198;}.j{fill:#1d1d1b;}.k{fill:#78705c;}.l,.o{fill:#fff;}.m{fill:#ffcc80;}.n{fill:#483b31;}.o{opacity:0.2;}.p{fill:#cfb58f;}</style><clipPath id="b"><rect width="87" height="503"/></clipPath></defs><g id="a" class="a"><g transform="translate(-30.174 -12.896)"><g transform="translate(75.629 83.336)"><path class="b" d="M95.9,105.3l3.058,2.854a1.881,1.881,0,0,1,.51,1.223,1.786,1.786,0,0,1-1.733,1.733h-21.1a1.786,1.786,0,0,1-1.733-1.733V105.3Z" transform="translate(-74.9 -81.55)"/><path class="c" d="M74.9,92.5v9.072h21V92.5a10.5,10.5,0,1,0-21,0Z" transform="translate(-74.9 -82)"/><rect class="d" width="20.998" height="4.281" transform="translate(0 19.571)"/></g><g transform="translate(47.7 83.336)"><path class="b" d="M51.068,105.3l-3.058,2.854a1.881,1.881,0,0,0-.51,1.223,1.786,1.786,0,0,0,1.733,1.733h21.1a1.786,1.786,0,0,0,1.733-1.733V105.3Z" transform="translate(-47.5 -81.55)"/><g transform="translate(3.568)"><path class="c" d="M72,92.5v9.072H51V92.5a10.5,10.5,0,1,1,21,0Z" transform="translate(-51 -82)"/><rect class="d" width="20.998" height="4.281" transform="translate(0 19.571)"/></g></g><g transform="translate(48.719 60.299)"><g transform="translate(0 0)"><path class="e" d="M48.5,90.1v2.446a1.718,1.718,0,0,0,1.733,1.733H96.2a1.718,1.718,0,0,0,1.733-1.733V90.1Z" transform="translate(-48.5 -58.807)"/><path class="f" d="M98.04,72.14V90.59H48.5V70.611c0-.306.1-.612.1-.917,0-.1,0-.2.1-.2.1-.306.1-.612.2-1.019,0-.1,0-.1.1-.1a3.052,3.052,0,0,1,.408-1.019v-.1c.2-.306.306-.714.51-1.019h0c.2-.306.408-.714.612-1.019,0-.1.1-.1.1-.2.2-.306.408-.51.612-.815.2-.2.306-.408.51-.612l.306-.306.408-.408c.2-.1.306-.306.51-.408.306-.2.612-.51.917-.714h0a12.861,12.861,0,0,1,3.364-1.631h0c.408-.1.714-.2,1.121-.306h.1c.306-.1.714-.1,1.121-.2h.2c.408,0,.815-.1,1.325-.1h.2a12.145,12.145,0,0,0,23.445,0h.2a5.812,5.812,0,0,1,1.325.1h.2a4.335,4.335,0,0,1,1.121.2h.1c.408.1.714.2,1.121.306h.1a13.951,13.951,0,0,1,3.262,1.631h.1a5.6,5.6,0,0,1,.917.714c.2.1.306.306.51.51.1.1.306.2.408.408a1.408,1.408,0,0,1,.306.408l.51.51a5.654,5.654,0,0,0,.612.815l.1.1c.2.306.408.714.612,1.019h0a11.96,11.96,0,0,1,.51,1.121h0c.1.306.306.714.408,1.019v.1a3.016,3.016,0,0,1,.2,1.019c0,.1,0,.2.1.2a2.822,2.822,0,0,1,.1.917v.306A1.6,1.6,0,0,1,98.04,72.14Z" transform="translate(-48.5 -59.398)"/><path class="f" d="M59.9,59.5c.408,0,.815-.1,1.325-.1C60.715,59.4,60.308,59.5,59.9,59.5Z" transform="translate(-48.28 -59.4)"/><path class="f" d="M85.825,59.5c-.408,0-.815-.1-1.325-.1C84.908,59.4,85.417,59.5,85.825,59.5Z" transform="translate(-47.804 -59.4)"/></g><path class="g" d="M84.745,59.4a12.145,12.145,0,0,1-23.445,0H84.745Z" transform="translate(-48.253 -59.4)"/></g><g transform="translate(37.174 57.083)"><g transform="translate(0.62 0)"><path class="h" d="M48.911,73.221,41.164,72.1s-3.67,9.684-3.364,16.207c0,0-.1,3.772,2.854,5.2,3.16,1.121,5.708-1.733,5.708-1.733,4.791-4.485,8.868-14.067,8.868-14.067Z" transform="translate(-37.782 -55.938)"/><g transform="translate(2.834)"><path class="f" d="M55.659,56.5C51.786,54.874,45.67,61.092,42,70.266l14.067,5.606C59.736,66.7,59.533,58.034,55.659,56.5Z" transform="translate(-40.535 -56.245)"/><path class="e" d="M56.2,75.611,41.824,69.8a.454.454,0,0,0-.612.306L40.6,71.737a.454.454,0,0,0,.306.612l14.373,5.81a.454.454,0,0,0,.612-.306l.612-1.631A.454.454,0,0,0,56.2,75.611Z" transform="translate(-40.563 -55.984)"/></g></g><g transform="translate(0 28.559)"><path class="i" d="M50.4,86.2s4.179,2.854,4.281,5.912-3.364,3.975-3.466,3.873Z" transform="translate(-36.918 -84.225)"/><path class="h" d="M44.03,84.3s-5.708.408-6.626,4.077,1.019,11.111,3.772,12.232c2.752,1.223,9.684,1.631,11.111-.714s.1-12.028-1.223-13.659C49.738,84.708,46.069,84.1,44.03,84.3Z" transform="translate(-37.174 -84.263)"/><path class="i" d="M44.2,86.1s-3.262.1-4.893,1.121c-.2.1-.2.408.1.51a16.538,16.538,0,0,0,4.893.51,15.412,15.412,0,0,0,4.587-1.019.212.212,0,0,0,0-.408C48.273,86.406,46.948,86,44.2,86.1Z" transform="translate(-37.136 -84.227)"/></g></g><g transform="translate(87.641 57.924)"><g transform="translate(0)"><path class="h" d="M96.52,74.021l7.747-1.121s3.67,9.684,3.364,16.207c0,0,.1,3.772-2.854,5.2-3.16,1.121-5.708-1.733-5.708-1.733C94.277,88.088,90.2,78.506,90.2,78.506Z" transform="translate(-86.616 -56.764)"/><path class="f" d="M89.758,57.3c3.873-1.529,9.989,4.587,13.659,13.761L89.351,76.672C85.681,67.5,85.783,58.833,89.758,57.3Z" transform="translate(-86.684 -57.07)"/><path class="e" d="M89.106,76.411l14.373-5.81a.454.454,0,0,1,.612.306l.612,1.631a.454.454,0,0,1-.306.612l-14.373,5.81a.454.454,0,0,1-.612-.306L88.8,77.023A.616.616,0,0,1,89.106,76.411Z" transform="translate(-86.643 -56.809)"/></g><g transform="translate(3.887 28.459)"><path class="i" d="M94.781,87S90.6,89.854,90.5,92.912s3.364,3.975,3.466,3.873S94.781,87,94.781,87Z" transform="translate(-90.498 -84.95)"/><path class="h" d="M101.368,85s5.708.408,6.626,4.077-1.019,11.111-3.772,12.232c-2.752,1.223-9.684,1.631-11.111-.714s-.1-12.028,1.223-13.659C95.66,85.51,99.33,84.9,101.368,85Z" transform="translate(-90.459 -84.989)"/><path class="i" d="M101.092,86.9s3.262.1,4.893,1.121c.2.1.2.408-.1.51a16.538,16.538,0,0,1-4.893.51A15.412,15.412,0,0,1,96.4,88.022a.212.212,0,0,1,0-.408C96.913,87.207,98.34,86.7,101.092,86.9Z" transform="translate(-90.387 -84.953)"/></g></g><g transform="translate(41.139 12.896)"><path class="j" d="M93.6,41.164,99.818,37.8v2.446l-4.791,2.141Z" transform="translate(-40.048 -12.415)"/><path class="h" d="M96.638,33.543C86.75,27.631,72.378,26,72.378,26S58.005,27.733,48.22,33.543c0,0-3.058,12.436,1.325,24.872a5.084,5.084,0,0,0,4.689,3.568H90.726a5.186,5.186,0,0,0,4.689-3.568C99.594,45.877,96.638,33.543,96.638,33.543Z" transform="translate(-40.945 -12.643)"/><g transform="translate(29.598 39.044)"><path class="k" d="M82.72,51.2A6.456,6.456,0,0,1,71.1,53.646a33.319,33.319,0,0,0,9.276-.1V51.3H82.72Z" transform="translate(-70.081 -51.2)"/><path class="l" d="M80.4,51.2v2.243a33.318,33.318,0,0,1-9.276.1A6.845,6.845,0,0,1,70.1,51.2Z" transform="translate(-70.1 -51.2)"/></g><g transform="translate(18.997 25.487)"><path class="l" d="M69.893,43a5.047,5.047,0,0,1-5.1,5.1A5.125,5.125,0,0,1,59.7,43.3V43a5.047,5.047,0,0,1,5.1-5.1,4.987,4.987,0,0,1,4.995,4.485A1.293,1.293,0,0,1,69.893,43Z" transform="translate(-59.7 -37.9)"/><circle class="j" cx="2.344" cy="2.344" r="2.344" transform="translate(2.752 4.077)"/><path class="m" d="M69.891,42.385V43.3a17.721,17.721,0,0,0-10.091,0h0V43a5.062,5.062,0,0,1,10.091-.612Z" transform="translate(-59.698 -37.9)"/></g><g transform="translate(42.237 25.487)"><path class="l" d="M92.693,43a5.047,5.047,0,0,1-5.1,5.1A5.125,5.125,0,0,1,82.5,43.3V43a5.047,5.047,0,0,1,5.1-5.1,4.987,4.987,0,0,1,4.995,4.485A1.293,1.293,0,0,1,92.693,43Z" transform="translate(-82.5 -37.9)"/><circle class="j" cx="2.344" cy="2.344" r="2.344" transform="translate(2.752 4.077)"/><path class="m" d="M92.591,42.385V43.3a17.721,17.721,0,0,0-10.091,0h0V43a5.062,5.062,0,0,1,10.091-.612Z" transform="translate(-82.5 -37.9)"/></g><path class="n" d="M49.051,51.737a5.108,5.108,0,0,1-.815,4.179,2.818,2.818,0,0,1-1.325,1.121,4.9,4.9,0,0,0,.408-3.568c-.612-1.835-4.893-5.3-6.116-13.863s6.014-12.13,6.83-11.518-.714,2.956-.714,2.956-2.752-8.46,12.844-15.188,29.968-.51,34.657,4.077c4.689,4.689,7.951,19.163-3.975,13.761C83,30.127,74.025,27.68,66.788,27.782c-6.524.1-12.13,5.1-13.659,11.009a10.314,10.314,0,0,0,.408,5.5l-2.65,1.223s-2.039-3.568-3.873-3.67C45.484,41.747,48.338,48.271,49.051,51.737Z" transform="translate(-41.064 -12.896)"/><path class="h" d="M49.108,42.327s-3.466-3.16-5.2,0,1.631,8.257,4.893,7.237C52.064,48.443,49.108,42.327,49.108,42.327Z" transform="translate(-41.018 -12.355)"/><g transform="translate(19.094 22.706)"><path class="n" d="M62.246,39.991a.1.1,0,0,1,.1-.1c0-.1.2-.306-.1.1.1-.1.1-.2.2-.306.2-.2.306-.408.51-.51.1,0,.1-.1.2-.1.1-.1.306-.2,0,0,.1-.1.306-.2.408-.306a9.472,9.472,0,0,1,1.019-.51c-.306.2-.1,0,0,0s.2-.1.306-.1c.2-.1.408-.1.612-.2a.374.374,0,0,0,.306-.1h1.835c.1,0,.51.1.2,0,.2,0,.306.1.51.1.714.1,1.529-.2,1.631-.917s-.2-1.529-.917-1.631a9.793,9.793,0,0,0-5.912.51,7.143,7.143,0,0,0-2.65,1.937,3.1,3.1,0,0,0-.51.714,1.258,1.258,0,0,0,.51,1.835,1.1,1.1,0,0,0,1.733-.408Z" transform="translate(-59.796 -35.171)"/></g><g transform="translate(43.017 21.942)"><path class="n" d="M91.455,38.477l-.1-.1c-.1-.1-.408-.2.1.1l-.2-.2a2.132,2.132,0,0,0-.612-.408c-.1,0-.1-.1-.2-.1-.1-.1-.306-.1,0,0-.1-.1-.306-.1-.408-.2a4.26,4.26,0,0,1-1.019-.408c.408.1.1,0,0,0a.374.374,0,0,1-.306-.1,1.293,1.293,0,0,1-.612-.1h-.408a2.244,2.244,0,0,0-.815.1,2.976,2.976,0,0,0-.917.2c-.1,0-.51.2-.2.1-.2.1-.306.1-.51.2a1.434,1.434,0,0,1-1.835-.612,1.371,1.371,0,0,1,.612-1.835,9.768,9.768,0,0,1,5.912-.408,7.437,7.437,0,0,1,2.956,1.529c.2.2.51.408.612.612a1.341,1.341,0,0,1-.2,1.937,1.441,1.441,0,0,1-1.835-.306Z" transform="translate(-83.265 -34.422)"/></g><g transform="translate(12.167 24.663)"><path class="j" d="M102.641,37.814S93.06,37,87.963,37.1a11.339,11.339,0,0,0-7.747,2.854,2.242,2.242,0,0,1-1.427.2H77.26c-.714.1-1.019.1-1.427-.2A11.339,11.339,0,0,0,68.086,37.1c-5.1-.1-14.678.714-14.678.714a.544.544,0,0,0-.408.51l.1,1.427a.788.788,0,0,0,.815.714h1.019s.714,3.262.917,4.077v.1h0c.51,1.733,1.223,4.077,2.243,5.1,1.223,1.223,4.791,2.141,11.009,1.325,0,0,4.587-.917,5.3-2.752.714-1.733,1.529-5.81,3.67-6.218,2.141.408,2.956,4.485,3.67,6.218.714,1.835,5.3,2.752,5.3,2.752,6.32.815,9.786-.1,11.009-1.325,1.019-1.019,1.733-3.364,2.243-5.1h0a.316.316,0,0,1,.1-.2c.2-.917.917-4.077.917-4.077h1.121a.874.874,0,0,0,.714-.612l.1-1.529A.724.724,0,0,0,102.641,37.814Zm-28.134,5.3a16.889,16.889,0,0,1-1.121,3.873c-1.223,2.446-3.975,2.752-6.218,2.956-3.058.2-6.626.2-8.257-1.121s-2.446-6.931-2.548-7.951a1.523,1.523,0,0,1,1.631-1.835,57.554,57.554,0,0,1,9.378-.306,24.035,24.035,0,0,1,2.854.408C72.367,39.75,74.814,40.872,74.508,43.114Zm22.425,5.81c-1.631,1.325-5.2,1.325-8.257,1.121-2.243-.2-4.995-.51-6.218-2.956a25.442,25.442,0,0,1-1.121-3.975c-.306-2.243,2.141-3.364,4.179-3.975a9.208,9.208,0,0,1,2.854-.408,59.183,59.183,0,0,1,9.48.306,1.523,1.523,0,0,1,1.631,1.835C99.38,41.891,98.564,47.6,96.933,48.924Z" transform="translate(-53 -37.091)"/><path class="o" d="M70.263,39.109a9.208,9.208,0,0,0-2.854-.408,57.554,57.554,0,0,0-9.378.306A1.523,1.523,0,0,0,56.4,40.842c.1,1.019.917,6.626,2.548,7.951s5.2,1.325,8.257,1.121c2.243-.2,4.995-.51,6.218-2.956a12.984,12.984,0,0,0,1.121-3.873C74.748,40.842,72.3,39.721,70.263,39.109Z" transform="translate(-52.935 -37.062)"/><path class="o" d="M97.312,39.007a57.554,57.554,0,0,0-9.378-.306,24.035,24.035,0,0,0-2.854.408c-2.039.612-4.485,1.733-4.179,3.975a12.984,12.984,0,0,0,1.121,3.873C83.245,49.4,86,49.71,88.24,49.914c3.058.2,6.626.2,8.257-1.121s2.446-6.931,2.548-7.951A1.685,1.685,0,0,0,97.312,39.007Z" transform="translate(-52.461 -37.062)"/></g><path class="j" d="M47.2,41.164,53.316,37.8v2.446l-4.791,2.141Z" transform="translate(-40.945 -12.415)"/><path class="p" d="M46.32,43.105s-1.223-.612-1.019,0,1.631.408,2.039,2.243c0,0-1.223.2-1.121,1.223.2,1.019,1.631,1.019,1.631.917s-1.325-.2-1.121-.917c.2-.815,1.529-.408,1.631-.408A3.581,3.581,0,0,0,46.32,43.105Z" transform="translate(-40.982 -12.318)"/></g></g><g transform="translate(-29.574 -21.752)"><g transform="translate(79.833 160.687)"><path class="h" d="M88.027,178.2,81.1,181.613s2.309,9.939,6.225,15.059c0,0,2.008,3.213,5.221,2.61,3.213-.8,3.715-4.518,3.715-4.518,1.406-6.325-.6-16.365-.6-16.365Z" transform="translate(-79.668 -160.467)"/><path class="f" d="M84.118,160.6c-4.016.9-5.622,9.337-3.514,18.774l14.557-3.213C93.153,166.724,88.133,159.8,84.118,160.6Z" transform="translate(-79.674 -160.537)"/><path class="e" d="M95.36,176.1,80.5,179.313a.551.551,0,0,0-.4.6l.4,1.707a.551.551,0,0,0,.6.4l14.859-3.213a.551.551,0,0,0,.4-.6l-.4-1.707C95.862,176.2,95.561,176,95.36,176.1Z" transform="translate(-79.672 -160.475)"/><g transform="translate(7.214 27.335)"><path class="i" d="M96.7,188s4.919,0,6.727,2.41-.5,5.12-.6,5.12Z" transform="translate(-86.821 -187.763)"/><path class="h" d="M90.213,190.109s-4.417,3.514-3.112,7.028,6.927,8.433,9.839,7.931c2.911-.6,8.835-4.016,8.634-6.727-.1-2.711-6.626-9.839-8.534-10.441S91.82,188.8,90.213,190.109Z" transform="translate(-86.86 -187.764)"/><path class="i" d="M91.513,191.509s-2.61,1.908-3.313,3.614a.222.222,0,0,0,.3.3,16.608,16.608,0,0,0,4.217-2.309,15.279,15.279,0,0,0,3.213-3.413c.1-.2,0-.4-.2-.4A11.733,11.733,0,0,0,91.513,191.509Z" transform="translate(-86.855 -187.758)"/></g></g><g transform="translate(47.76 187.278)"><path class="b" d="M67.478,213.944l1,3.915a2.007,2.007,0,0,1-.2,1.305,1.641,1.641,0,0,1-2.309.5L48.5,208.423a1.641,1.641,0,0,1-.5-2.309L50.21,202.7Z" transform="translate(-47.727 -186.962)"/><g transform="translate(2.305)"><path class="c" d="M57.119,191.819l-4.819,7.53,17.469,11.144,4.819-7.53a10.388,10.388,0,0,0-3.112-14.357A10.5,10.5,0,0,0,57.119,191.819Z" transform="translate(-50.015 -187.024)"/><rect class="d" width="4.217" height="20.682" transform="translate(0 15.988) rotate(-57.364)"/></g></g><g transform="translate(65 193.178)"><path class="b" d="M85.582,216.2l3.012,2.811a1.852,1.852,0,0,1,.5,1.2,1.759,1.759,0,0,1-1.707,1.707H66.607a1.759,1.759,0,0,1-1.707-1.707V216.2Z" transform="translate(-64.9 -192.808)"/><path class="c" d="M64.9,203.241v8.935H85.582v-8.935a10.341,10.341,0,0,0-20.682,0Z" transform="translate(-64.9 -192.9)"/><rect class="d" width="20.682" height="4.217" transform="translate(0 19.276)"/></g><g transform="translate(44.118 167.476)"><path class="e" d="M44.1,198v2.41a1.692,1.692,0,0,0,1.707,1.707H91.085a1.692,1.692,0,0,0,1.707-1.707V198Z" transform="translate(-44.1 -167.178)"/><path class="f" d="M81.305,167.4c-.4,0-.8-.1-1.305-.1C80.5,167.3,80.9,167.4,81.305,167.4Z" transform="translate(-43.958 -167.3)"/><path class="f" d="M92.792,179.849v18.172H44.1V179.849a4.888,4.888,0,0,1,.1-1.2v-.3c0-.3.1-.6.1-.9,0-.1,0-.2.1-.2a2.97,2.97,0,0,0,.2-1,.1.1,0,0,1,.1-.1,3.007,3.007,0,0,1,.4-1v-.1c.2-.3.3-.7.5-1h0c.2-.3.4-.7.6-1,0-.1.1-.1.1-.2.2-.3.4-.5.6-.8.2-.2.3-.4.5-.6l.3-.3.4-.4c.2-.1.3-.3.5-.4.3-.2.6-.5.9-.7h0A12.667,12.667,0,0,1,52.834,168h0c.4-.1.7-.2,1.1-.3h.1c.4-.1.7-.1,1.1-.2h.2c.4,0,.9-.1,1.305-.1h6.024a11.931,11.931,0,0,0,22.69,1.1,16.246,16.246,0,0,1,1.807,1h.1a5.517,5.517,0,0,1,.9.7c.2.1.3.3.5.5.1.1.3.2.4.4a1.386,1.386,0,0,1,.3.4c.2.2.3.4.5.5a5.568,5.568,0,0,0,.6.8l.1.1c.2.3.4.7.6,1h0a11.778,11.778,0,0,1,.5,1.1h0c.1.3.3.7.4,1v.1a3.567,3.567,0,0,1,.2,1c0,.1,0,.1.1.2a2.78,2.78,0,0,1,.1.9.369.369,0,0,0,.1.3A3.19,3.19,0,0,1,92.792,179.849Z" transform="translate(-44.1 -167.3)"/><path class="g" d="M85.39,168.5a11.931,11.931,0,0,1-22.69-1.1H80.069a5.724,5.724,0,0,1,1.305.1h.2a4.27,4.27,0,0,1,1.1.2h.1c.4.1.7.2,1.1.3h0A4.441,4.441,0,0,1,85.39,168.5Z" transform="translate(-44.026 -167.3)"/></g><g transform="translate(39.574 162.527)"><g transform="translate(0.611)"><path class="h" d="M51.143,179.3l-7.63-1.1S39.9,187.738,40.2,194.163c0,0-.1,3.715,2.811,5.12,3.112,1.1,5.622-1.707,5.622-1.707,4.719-4.417,8.734-13.855,8.734-13.855Z" transform="translate(-40.182 -162.308)"/><g transform="translate(2.892)"><path class="f" d="M57.853,162.6c-3.815-1.506-9.839,4.518-13.453,13.553l13.855,5.522C61.869,172.741,61.668,164.107,57.853,162.6Z" transform="translate(-43.057 -162.37)"/><path class="e" d="M58.36,181.622,44.3,176a.447.447,0,0,0-.6.3l-.6,1.606a.447.447,0,0,0,.3.6l14.156,5.723a.447.447,0,0,0,.6-.3l.6-1.606A.672.672,0,0,0,58.36,181.622Z" transform="translate(-43.063 -162.316)"/></g></g><g transform="translate(0 28.099)"><path class="i" d="M52.8,192.4s4.116,2.811,4.217,5.823-3.313,3.915-3.413,3.815C53.6,201.938,52.8,192.4,52.8,192.4Z" transform="translate(-39.522 -190.35)"/><path class="h" d="M46.327,190.4s-5.622.4-6.526,4.016,1,10.943,3.715,12.048,9.538,1.606,10.943-.7.1-11.847-1.2-13.453S48.335,190.2,46.327,190.4Z" transform="translate(-39.574 -190.358)"/><path class="i" d="M46.52,192.2s-3.213.1-4.819,1.1c-.2.1-.2.4.1.5a16.288,16.288,0,0,0,4.819.5,15.18,15.18,0,0,0,4.518-1,.209.209,0,0,0,0-.4C50.535,192.5,49.23,192.1,46.52,192.2Z" transform="translate(-39.566 -190.351)"/></g></g><g transform="translate(41.772 122.752)"><path class="j" d="M94.3,151.013l6.124-3.313v2.41l-4.719,2.108Z" transform="translate(-41.556 -122.653)"/><path class="h" d="M96.492,143.329C86.854,137.607,72.7,135.9,72.7,135.9s-14.156,1.707-23.794,7.429c0,0-3.012,12.248,1.305,24.5a5.007,5.007,0,0,0,4.618,3.514H90.769a5.108,5.108,0,0,0,4.618-3.514C99.5,155.477,96.492,143.329,96.492,143.329Z" transform="translate(-41.74 -122.7)"/><g transform="translate(29.151 38.5)"><path class="k" d="M83.245,161.1A6.359,6.359,0,0,1,71.8,163.51a32.816,32.816,0,0,0,9.136-.1V161.2h2.309Z" transform="translate(-70.796 -161.1)"/><path class="l" d="M80.94,161.1v2.209a32.817,32.817,0,0,1-9.136.1,6.742,6.742,0,0,1-1-2.309Z" transform="translate(-70.8 -161.1)"/></g><g transform="translate(18.71 25.147)"><path class="l" d="M70.44,152.82a4.971,4.971,0,0,1-5.02,5.02,5.048,5.048,0,0,1-5.02-4.719v-.3a4.971,4.971,0,0,1,5.02-5.02,4.912,4.912,0,0,1,4.919,4.417A1.273,1.273,0,0,1,70.44,152.82Z" transform="translate(-60.4 -147.8)"/><circle class="j" cx="2.309" cy="2.309" r="2.309" transform="translate(2.711 4.016)"/><path class="m" d="M70.339,152.217v.9a17.454,17.454,0,0,0-9.939,0h0v-.3a4.986,4.986,0,0,1,9.939-.6Z" transform="translate(-60.4 -147.8)"/></g><g transform="translate(41.5 25.147)"><path class="l" d="M93.14,152.82a4.971,4.971,0,0,1-5.02,5.02,5.048,5.048,0,0,1-5.02-4.719v-.3a4.971,4.971,0,0,1,5.02-5.02,4.912,4.912,0,0,1,4.919,4.417A1.273,1.273,0,0,1,93.14,152.82Z" transform="translate(-83.1 -147.8)"/><circle class="j" cx="2.309" cy="2.309" r="2.309" transform="translate(2.811 4.016)"/><path class="m" d="M93.139,152.217v.9a17.454,17.454,0,0,0-9.939,0h0v-.3a4.986,4.986,0,0,1,9.939-.6Z" transform="translate(-83.1 -147.8)"/></g><path class="n" d="M49.631,161.051a5.031,5.031,0,0,1-.8,4.116,2.776,2.776,0,0,1-1.305,1.1,4.823,4.823,0,0,0,.4-3.514c-.6-1.807-4.819-5.221-6.024-13.654-1.2-8.534,5.923-11.947,6.727-11.345s-.7,2.911-.7,2.911-2.711-8.333,12.65-14.959c15.361-6.727,29.516-.5,34.135,4.016,4.618,4.618,7.831,18.874-3.915,13.553-7.73-3.514-16.565-5.923-23.693-5.823A14.607,14.607,0,0,0,53.647,148.3a10.158,10.158,0,0,0,.4,5.421l-2.61,1.2s-2.008-3.514-3.815-3.614C46.117,151.212,48.928,157.638,49.631,161.051Z" transform="translate(-41.764 -122.752)"/><path class="h" d="M49.622,152.205s-3.413-3.112-5.12,0,1.606,8.132,4.819,7.128S49.622,152.205,49.622,152.205Z" transform="translate(-41.755 -122.641)"/><g transform="translate(18.706 22.408)"><path class="n" d="M62.81,149.819a.1.1,0,0,1,.1-.1l-.1.1c.1-.1.1-.2.2-.3.2-.2.3-.4.5-.5.1,0,.1-.1.2-.1.1-.1.3-.2,0,0,.1-.1.3-.2.4-.3a9.329,9.329,0,0,1,1-.5c-.3.2-.1,0,0,0s.2-.1.3-.1c.2-.1.4-.1.6-.2a.369.369,0,0,0,.3-.1h1.807c.1,0,.5.1.2,0,.2,0,.3.1.5.1.7.1,1.506-.2,1.606-.9s-.2-1.506-.9-1.606a9.645,9.645,0,0,0-5.823.5,7.035,7.035,0,0,0-2.61,1.908,3.051,3.051,0,0,0-.5.7,1.239,1.239,0,0,0,.5,1.807,1.078,1.078,0,0,0,1.707-.4Z" transform="translate(-60.396 -145.071)"/></g><g transform="translate(42.368 21.656)"><path class="n" d="M92.032,148.316l-.1-.1c-.2-.1-.4-.2.1.1l-.2-.2a2.1,2.1,0,0,0-.6-.4c-.1,0-.1-.1-.2-.1-.1-.1-.3-.1,0,0-.1-.1-.3-.1-.4-.2a4.2,4.2,0,0,1-1-.4c.4.1.1,0,0,0a.369.369,0,0,1-.3-.1,1.273,1.273,0,0,1-.6-.1h-.4a2.21,2.21,0,0,0-.8.1,2.932,2.932,0,0,0-.9.2c-.1,0-.5.2-.2.1-.2.1-.3.1-.5.2a1.412,1.412,0,0,1-1.807-.6A1.351,1.351,0,0,1,84.7,145a9.621,9.621,0,0,1,5.823-.4,7.325,7.325,0,0,1,2.911,1.506c.2.2.5.4.6.6a1.321,1.321,0,0,1-.2,1.908,1.3,1.3,0,0,1-1.807-.3Z" transform="translate(-83.965 -144.322)"/></g><g transform="translate(11.883 24.335)"><path class="j" d="M102.493,147.7s-9.437-.8-14.457-.7a11.168,11.168,0,0,0-7.63,2.811,2.208,2.208,0,0,1-1.406.2H77.494c-.7.1-1,.1-1.406-.2A11.168,11.168,0,0,0,68.459,147c-5.02-.1-14.457.7-14.457.7a.536.536,0,0,0-.4.5l.1,1.406a.776.776,0,0,0,.8.7h1s.7,3.213.9,4.016v.1h0c.5,1.707,1.2,4.016,2.209,5.02,1.2,1.2,4.719,2.108,10.843,1.305,0,0,4.518-.9,5.221-2.711.7-1.707,1.506-5.723,3.614-6.124,2.108.4,2.911,4.417,3.614,6.124.7,1.807,5.221,2.711,5.221,2.711,6.225.8,9.638-.1,10.843-1.305,1-1,1.707-3.313,2.209-5.02h0a.311.311,0,0,1,.1-.2c.2-.9.9-4.016.9-4.016h1.1a.861.861,0,0,0,.7-.6l.1-1.506A1.138,1.138,0,0,0,102.493,147.7Zm-27.609,5.221a16.635,16.635,0,0,1-1.1,3.815c-1.2,2.41-3.915,2.711-6.124,2.911-3.012.2-6.526.2-8.132-1.1s-2.41-6.827-2.51-7.831a1.5,1.5,0,0,1,1.606-1.807,56.684,56.684,0,0,1,9.236-.3,23.675,23.675,0,0,1,2.811.4C72.776,149.61,75.185,150.715,74.884,152.923Zm22.087,5.723c-1.606,1.305-5.12,1.305-8.132,1.1-2.209-.2-4.919-.5-6.124-2.911a23.854,23.854,0,0,1-1.1-3.815c-.3-2.209,2.108-3.313,4.116-3.915a9.069,9.069,0,0,1,2.811-.4,56.684,56.684,0,0,1,9.236.3,1.5,1.5,0,0,1,1.606,1.807C99.381,151.719,98.577,157.341,96.971,158.646Z" transform="translate(-53.6 -146.991)"/><path class="o" d="M70.754,149a9.069,9.069,0,0,0-2.811-.4,56.685,56.685,0,0,0-9.236.3,1.5,1.5,0,0,0-1.606,1.807c.1,1,.9,6.526,2.51,7.831s5.12,1.305,8.132,1.1c2.209-.2,4.919-.5,6.124-2.911a12.788,12.788,0,0,0,1.1-3.815C75.171,150.709,72.762,149.6,70.754,149Z" transform="translate(-53.586 -146.985)"/><path class="o" d="M97.664,148.9a56.684,56.684,0,0,0-9.236-.3,23.675,23.675,0,0,0-2.811.4c-2.008.6-4.417,1.707-4.116,3.915a12.788,12.788,0,0,0,1.1,3.815c1.2,2.41,3.915,2.711,6.124,2.911,3.012.2,6.526.2,8.132-1.1s2.41-6.827,2.51-7.831C99.571,148.9,97.664,148.9,97.664,148.9Z" transform="translate(-53.49 -146.985)"/></g><path class="j" d="M47.9,151.013l6.024-3.313v2.41l-4.719,2.108Z" transform="translate(-41.739 -122.653)"/><path class="p" d="M47,153s-1.2-.6-1,0,1.606.4,2.008,2.209c0,0-1.2.2-1.1,1.2s1.606,1,1.606.9-1.305-.2-1.1-.9c.2-.8,1.506-.4,1.606-.4A3.769,3.769,0,0,0,47,153Z" transform="translate(-41.747 -122.633)"/></g></g><g transform="translate(-29.694 -30.552)"><g transform="translate(38.969 299.278)"><path class="b" d="M56.5,325.375v4.148A1.675,1.675,0,0,1,56,330.738a1.744,1.744,0,0,1-2.428-.1L39.305,315.36a1.744,1.744,0,0,1,.1-2.428L42.34,310.2Z" transform="translate(-38.862 -298.37)"/><g transform="translate(3.346 0)"><path class="c" d="M51.876,301.333,45.3,307.5l14.265,15.277,6.576-6.171a10.451,10.451,0,0,0-14.265-15.277Z" transform="translate(-42.133 -298.507)"/><rect class="d" width="4.249" height="20.841" transform="translate(0 11.838) rotate(-43.079)"/></g></g><g transform="translate(74.225 301.849)"><path class="b" d="M100.667,312.9l4.148-.2a1.675,1.675,0,0,1,1.315.506,1.652,1.652,0,0,1,0,2.428L91.562,330.708a1.652,1.652,0,0,1-2.428,0L86.2,327.875Z" transform="translate(-73.563 -300.912)"/><g transform="translate(0 0)"><path class="c" d="M76.937,319.008l6.475,6.273L97.88,310.206,91.4,303.933a10.447,10.447,0,1,0-14.467,15.074Z" transform="translate(-73.71 -301.048)"/><rect class="d" width="20.841" height="4.249" transform="translate(9.764 24.17) rotate(-46.102)"/></g></g><g transform="translate(29.694 232.552)"><g transform="translate(51.963 38.723)"><path class="h" d="M92.364,286.827,86.8,292.189s5.362,8.8,10.724,12.444c0,0,2.934,2.428,5.868.809,2.732-1.821,2.125-5.463,2.125-5.463-.607-6.475-5.666-15.479-5.666-15.479Z" transform="translate(-80.989 -270.668)"/><path class="f" d="M83.124,271.306c-3.541,2.125-2.428,10.623,2.529,19.121l12.95-7.588C93.646,274.341,86.665,269.181,83.124,271.306Z" transform="translate(-81.056 -270.828)"/><path class="e" d="M98.655,282.5,85.5,290.291a.487.487,0,0,0-.2.607l.911,1.518a.487.487,0,0,0,.607.2l13.152-7.79a.487.487,0,0,0,.2-.607l-.911-1.518C99.161,282.4,98.857,282.3,98.655,282.5Z" transform="translate(-81.007 -270.692)"/><g transform="translate(15.574 22.218)"><path class="i" d="M103.6,293.407s4.755-1.518,7.183.2c2.428,1.821,1.113,5.059,1.012,5.059Z" transform="translate(-96.367 -292.789)"/><path class="h" d="M98.119,297.35s-3.136,4.755-.809,7.689c2.428,3.035,9.308,5.868,11.938,4.451s7.183-6.576,6.171-9.206c-1.012-2.529-9.409-7.284-11.432-7.284C101.964,293.2,99.232,295.63,98.119,297.35Z" transform="translate(-96.451 -292.786)"/><path class="i" d="M99.723,298.339s-1.922,2.63-2.023,4.553c0,.2.2.4.4.2a19.275,19.275,0,0,0,3.339-3.541,16.29,16.29,0,0,0,2.023-4.249c0-.2-.1-.4-.3-.3A8.726,8.726,0,0,0,99.723,298.339Z" transform="translate(-96.436 -292.763)"/></g></g><g transform="translate(15.687 45.069)"><path class="e" d="M45.2,307.7v2.428a1.705,1.705,0,0,0,1.72,1.72H92.548a1.705,1.705,0,0,0,1.72-1.72V307.7Z" transform="translate(-45.2 -276.742)"/><path class="f" d="M82.515,277.2c-.4,0-.809-.1-1.315-.1A6.223,6.223,0,0,1,82.515,277.2Z" transform="translate(-44.779 -277.1)"/><path class="f" d="M94.369,289.745v18.312H45.2V289.745a4.926,4.926,0,0,1,.1-1.214v-.3c0-.3.1-.607.1-.911,0-.1,0-.2.1-.2a2.993,2.993,0,0,0,.2-1.012.1.1,0,0,1,.1-.1,3.03,3.03,0,0,1,.4-1.012v-.1c.2-.3.3-.708.506-1.012h0c.2-.3.4-.708.607-1.012,0-.1.1-.1.1-.2.2-.3.4-.506.607-.809.2-.2.3-.4.506-.607l.3-.3.4-.4c.2-.1.3-.3.506-.4.3-.2.607-.506.911-.708h0A12.763,12.763,0,0,1,54,277.807h0c.4-.1.708-.2,1.113-.3h.1c.4-.1.708-.1,1.113-.2h.2c.4,0,.911-.1,1.315-.1h6.07a12.023,12.023,0,0,0,22.864,1.113,16.37,16.37,0,0,1,1.821,1.012h.1a5.56,5.56,0,0,1,.911.708c.2.1.3.3.506.506.1.1.3.2.4.4a1.4,1.4,0,0,1,.3.4c.2.2.3.4.506.506a5.609,5.609,0,0,0,.607.809l.1.1c.2.3.4.708.607,1.012h0a11.866,11.866,0,0,1,.506,1.113h0c.1.3.3.708.4,1.012v.1a3.6,3.6,0,0,1,.2,1.012c0,.1,0,.1.1.2a2.8,2.8,0,0,1,.1.911.372.372,0,0,0,.1.3A3.493,3.493,0,0,1,94.369,289.745Z" transform="translate(-45.2 -277.099)"/><path class="g" d="M86.664,278.213A12.023,12.023,0,0,1,63.8,277.1H81.4a5.769,5.769,0,0,1,1.315.1h.2a4.3,4.3,0,0,1,1.113.2h.1c.4.1.708.2,1.113.3h0A5.848,5.848,0,0,1,86.664,278.213Z" transform="translate(-44.982 -277.1)"/></g><g transform="translate(0 40.361)"><g transform="translate(2.392)"><path class="h" d="M48.49,286.446,41.813,282.5s-7.082,7.487-9.206,13.557c0,0-1.619,3.44.708,5.868,2.428,2.226,5.868.607,5.868.607,6.07-2.327,13.456-9.51,13.456-9.51Z" transform="translate(-32.058 -272.329)"/><g transform="translate(9.299)"><path class="f" d="M61.106,273.512c-2.934-2.934-10.926.4-17.806,7.385l10.724,10.522C60.9,284.439,64.141,276.446,61.106,273.512Z" transform="translate(-41.226 -272.447)"/><path class="e" d="M54.25,291.426,43.324,280.7a.489.489,0,0,0-.708,0L41.4,281.916a.489.489,0,0,0,0,.708l10.926,10.724a.489.489,0,0,0,.708,0l1.214-1.214A.489.489,0,0,0,54.25,291.426Z" transform="translate(-41.25 -272.352)"/></g></g><g transform="translate(0 22.073)"><path class="i" d="M44.935,299.1s2.732,4.148,1.619,6.981-4.654,2.327-4.654,2.327C42,308.306,44.935,299.1,44.935,299.1Z" transform="translate(-29.551 -294.208)"/><path class="h" d="M39.716,294.806s-5.362-1.821-7.689,1.214-3.237,10.522-1.214,12.646,8.195,5.16,10.421,3.541,4.654-11.028,4.047-12.95C44.774,297.336,41.739,295.413,39.716,294.806Z" transform="translate(-29.694 -294.264)"/><path class="i" d="M39.259,296.61S36.224,295.5,34.4,295.8a.217.217,0,0,0-.1.4,20,20,0,0,0,4.249,2.327,16.718,16.718,0,0,0,4.654.809c.2,0,.3-.2.2-.4A11.843,11.843,0,0,0,39.259,296.61Z" transform="translate(-29.641 -294.247)"/></g></g><g transform="translate(13.324)"><path class="j" d="M95.4,260.839l6.171-3.339v2.428l-4.755,2.125Z" transform="translate(-42.249 -232.26)"/><path class="h" d="M98.068,253.087C88.355,247.32,74.09,245.6,74.09,245.6s-14.366,1.72-24.078,7.487c0,0-3.035,12.343,1.315,24.685a5.046,5.046,0,0,0,4.654,3.541H92.2a5.147,5.147,0,0,0,4.654-3.541C101,265.429,98.068,253.087,98.068,253.087Z" transform="translate(-42.792 -232.399)"/><g transform="translate(29.376 38.796)"><path class="k" d="M84.433,270.9A6.408,6.408,0,0,1,72.9,273.328a33.069,33.069,0,0,0,9.206-.1V271h2.327Z" transform="translate(-71.888 -270.9)"/><path class="l" d="M82.118,270.9v2.226a33.068,33.068,0,0,1-9.206.1A6.794,6.794,0,0,1,71.9,270.9H82.118Z" transform="translate(-71.9 -270.9)"/></g><g transform="translate(18.854 25.341)"><path class="l" d="M71.617,262.659a5.009,5.009,0,0,1-5.058,5.059,5.087,5.087,0,0,1-5.058-4.755v-.3a5.009,5.009,0,0,1,5.058-5.059,4.95,4.95,0,0,1,4.957,4.451A1.283,1.283,0,0,1,71.617,262.659Z" transform="translate(-61.5 -257.6)"/><circle class="j" cx="2.327" cy="2.327" r="2.327" transform="translate(2.732 4.047)"/><path class="m" d="M71.616,262.051v.911a17.589,17.589,0,0,0-10.016,0h0v-.3a5.024,5.024,0,0,1,10.016-.607Z" transform="translate(-61.499 -257.6)"/></g><g transform="translate(41.921 25.341)"><path class="l" d="M94.417,262.659a5.009,5.009,0,0,1-5.058,5.059,5.087,5.087,0,0,1-5.059-4.755v-.3a5.009,5.009,0,0,1,5.059-5.059,4.95,4.95,0,0,1,4.957,4.451A1.283,1.283,0,0,1,94.417,262.659Z" transform="translate(-84.3 -257.6)"/><circle class="j" cx="2.327" cy="2.327" r="2.327" transform="translate(2.732 4.047)"/><path class="m" d="M94.316,262.051v.911a17.589,17.589,0,0,0-10.016,0h0v-.3a5.024,5.024,0,0,1,10.016-.607Z" transform="translate(-84.3 -257.6)"/></g><path class="n" d="M50.792,271.146a5.07,5.07,0,0,1-.809,4.148,2.8,2.8,0,0,1-1.315,1.113,4.86,4.86,0,0,0,.4-3.541c-.607-1.821-4.856-5.261-6.07-13.759-1.214-8.6,5.969-12.039,6.778-11.432s-.708,2.934-.708,2.934-2.732-8.4,12.747-15.074c15.479-6.778,29.744-.506,34.4,4.047,4.654,4.654,7.891,19.02-3.946,13.658-7.79-3.541-16.693-5.969-23.876-5.868A14.72,14.72,0,0,0,54.838,258.3a10.236,10.236,0,0,0,.4,5.463l-2.63,1.214s-2.023-3.541-3.844-3.642C47.251,261.232,50.083,267.707,50.792,271.146Z" transform="translate(-42.864 -232.552)"/><path class="h" d="M50.865,261.916s-3.44-3.136-5.16,0,1.619,8.195,4.856,7.183S50.865,261.916,50.865,261.916Z" transform="translate(-42.836 -232.225)"/><g transform="translate(18.85 22.58)"><path class="n" d="M63.928,259.655a.1.1,0,0,1,.1-.1l-.1.1c.1-.1.1-.2.2-.3.2-.2.3-.4.506-.506.1,0,.1-.1.2-.1.1-.1.3-.2,0,0,.1-.1.3-.2.4-.3a9.4,9.4,0,0,1,1.012-.506c-.3.2-.1,0,0,0s.2-.1.3-.1c.2-.1.4-.1.607-.2a.372.372,0,0,0,.3-.1H69.29c.1,0,.506.1.2,0,.2,0,.3.1.506.1.708.1,1.518-.2,1.619-.911s-.2-1.518-.911-1.619a9.72,9.72,0,0,0-5.868.506,7.089,7.089,0,0,0-2.63,1.922,3.075,3.075,0,0,0-.506.708,1.249,1.249,0,0,0,.506,1.821,1.119,1.119,0,0,0,1.72-.4Z" transform="translate(-61.496 -254.871)"/></g><g transform="translate(42.695 21.822)"><path class="n" d="M93.194,258.147l-.1-.1c-.1-.1-.4-.3.1.1l-.2-.2a2.116,2.116,0,0,0-.607-.4c-.1,0-.1-.1-.2-.1-.1-.1-.3-.1,0,0-.1-.1-.3-.1-.4-.2a4.229,4.229,0,0,1-1.012-.4c.4.1.1,0,0,0a.372.372,0,0,1-.3-.1,1.283,1.283,0,0,1-.607-.1h-.4a2.228,2.228,0,0,0-.809.1,2.954,2.954,0,0,0-.911.2c-.1,0-.506.2-.2.1-.2.1-.3.1-.506.2a1.423,1.423,0,0,1-1.821-.607,1.361,1.361,0,0,1,.607-1.821,9.7,9.7,0,0,1,5.868-.4,7.381,7.381,0,0,1,2.934,1.518c.2.2.506.4.607.607a1.331,1.331,0,0,1-.2,1.922,1.43,1.43,0,0,1-1.821-.3Z" transform="translate(-85.065 -254.122)"/></g><g transform="translate(12.076 24.523)"><path class="j" d="M104.07,257.508S94.56,256.7,89.5,256.8a11.254,11.254,0,0,0-7.689,2.833,2.225,2.225,0,0,1-1.416.2H78.878c-.708.1-1.012.1-1.416-.2a11.254,11.254,0,0,0-7.689-2.833c-5.058-.1-14.568.708-14.568.708a.54.54,0,0,0-.4.506l.1,1.416a.782.782,0,0,0,.809.708h1.012s.708,3.237.911,4.047v.1h0c.506,1.72,1.214,4.047,2.226,5.058,1.214,1.214,4.755,2.125,10.926,1.315,0,0,4.553-.911,5.261-2.732.708-1.72,1.518-5.767,3.642-6.171,2.125.4,2.934,4.451,3.642,6.171.708,1.821,5.261,2.732,5.261,2.732,6.273.809,9.712-.1,10.926-1.315,1.012-1.012,1.72-3.339,2.226-5.058h0a.313.313,0,0,1,.1-.2c.2-.911.911-4.047.911-4.047h1.113a.868.868,0,0,0,.708-.607l.1-1.518A.719.719,0,0,0,104.07,257.508Zm-27.923,5.261a16.763,16.763,0,0,1-1.113,3.844c-1.214,2.428-3.946,2.732-6.171,2.934-3.035.2-6.576.2-8.195-1.113s-2.428-6.88-2.529-7.891a1.512,1.512,0,0,1,1.619-1.821,57.121,57.121,0,0,1,9.308-.3,23.863,23.863,0,0,1,2.833.4C74.022,259.431,76.45,260.543,76.147,262.769ZM98.4,268.435c-1.619,1.315-5.16,1.315-8.195,1.113-2.226-.2-4.957-.506-6.171-2.934a24.037,24.037,0,0,1-1.113-3.844c-.3-2.226,2.125-3.339,4.148-3.946a9.14,9.14,0,0,1,2.833-.4,57.125,57.125,0,0,1,9.308.3,1.512,1.512,0,0,1,1.619,1.821C100.832,261.555,100.023,267.221,98.4,268.435Z" transform="translate(-54.8 -256.791)"/><path class="o" d="M71.959,258.806a9.14,9.14,0,0,0-2.833-.4,57.125,57.125,0,0,0-9.308.3,1.512,1.512,0,0,0-1.619,1.821c.1,1.012.911,6.576,2.529,7.891s5.16,1.315,8.195,1.113c2.226-.2,4.957-.506,6.171-2.934a12.887,12.887,0,0,0,1.113-3.844C76.411,260.526,73.983,259.413,71.959,258.806Z" transform="translate(-54.76 -256.773)"/><path class="o" d="M98.989,258.7a57.121,57.121,0,0,0-9.308-.3,23.863,23.863,0,0,0-2.833.4c-2.023.607-4.451,1.72-4.148,3.946a12.887,12.887,0,0,0,1.113,3.844c1.214,2.428,3.946,2.732,6.171,2.934,3.035.2,6.576.2,8.195-1.113s2.428-6.88,2.529-7.891A1.6,1.6,0,0,0,98.989,258.7Z" transform="translate(-54.474 -256.774)"/></g><path class="j" d="M49,260.839l6.07-3.339v2.428l-4.755,2.125Z" transform="translate(-42.792 -232.26)"/><path class="p" d="M48.112,262.8s-1.214-.607-1.012,0,1.619.4,2.023,2.226c0,0-1.214.2-1.113,1.214.2,1.012,1.619,1.012,1.619.911s-1.315-.2-1.113-.911c.2-.809,1.518-.4,1.619-.4A3.554,3.554,0,0,0,48.112,262.8Z" transform="translate(-42.814 -232.201)"/></g></g></g><g transform="translate(-30.167 -41.932)"><g transform="translate(82.32 369.269)"><g transform="translate(0 9.927)"><path class="h" d="M92.287,398.6l7.512,1.726s4.466-9.237,4.771-15.835c0,0,.406-3.756-2.436-5.38-3.045-1.421-5.786,1.218-5.786,1.218-5.177,4.06-9.948,13.2-9.948,13.2Z" transform="translate(-81.608 -378.686)"/><g transform="translate(0 14.49)"><path class="f" d="M84.137,414.686c3.756,1.929,10.354-3.756,14.82-12.485l-13.4-6.8C80.99,404.13,80.381,412.758,84.137,414.686Z" transform="translate(-81.679 -392.924)"/><path class="e" d="M85.2,395.437l13.7,6.9a.488.488,0,0,0,.609-.2l.812-1.523a.488.488,0,0,0-.2-.609l-13.7-7a.488.488,0,0,0-.609.2L85,394.726A.582.582,0,0,0,85.2,395.437Z" transform="translate(-81.63 -392.961)"/></g></g><g transform="translate(6.82)"><path class="i" d="M92.765,384.245S88.5,381.5,88.4,378.459s3.248-4.06,3.248-3.959S92.765,384.245,92.765,384.245Z" transform="translate(-88.398 -368.823)"/><path class="h" d="M99.437,386.055s5.684-.508,6.5-4.263-1.32-10.963-4.162-12.079-9.643-1.32-11.064,1.015c-1.32,2.436.3,11.978,1.624,13.5C93.753,385.852,97.407,386.359,99.437,386.055Z" transform="translate(-88.37 -368.907)"/><path class="i" d="M99.073,384.031s3.248-.2,4.771-1.32a.218.218,0,0,0-.1-.406,15.961,15.961,0,0,0-4.872-.3,16.912,16.912,0,0,0-4.568,1.117.211.211,0,0,0,0,.406A10.065,10.065,0,0,0,99.073,384.031Z" transform="translate(-88.311 -368.71)"/></g></g><g transform="translate(48.235 389.766)"><path class="e" d="M49.9,423.268l.2,2.335a1.739,1.739,0,0,0,1.929,1.624l45.577-4.263a1.739,1.739,0,0,0,1.624-1.929l-.2-2.335Z" transform="translate(-48.073 -388.654)"/><path class="f" d="M97.331,400.773l1.726,18.373-49.13,4.568L48.2,405.443v-.1c0-.406-.1-.812-.1-1.218v-.3a2.81,2.81,0,0,1,.1-.914v-.3a3.606,3.606,0,0,1,.2-1.015v-.1c.1-.406.2-.711.3-1.015v-.1c.1-.406.3-.711.406-1.117v-.1a9.432,9.432,0,0,1,.508-1.015c0-.1.1-.1.1-.2.2-.3.3-.609.508-.914a2.691,2.691,0,0,1,.508-.609,1.4,1.4,0,0,0,.3-.406c.1-.2.3-.3.406-.406.1-.2.3-.3.406-.508.3-.3.609-.508.914-.812h0a12.485,12.485,0,0,1,3.147-1.929h0c.3-.1.711-.3,1.015-.406a.1.1,0,0,0,.1-.1c.3-.1.711-.2,1.015-.3h.2c.406-.1.812-.1,1.32-.2h.2A12.162,12.162,0,0,0,83.12,389.2h.2c.406,0,.914-.1,1.32-.1h.2a4.163,4.163,0,0,1,1.117.1h.1a4.317,4.317,0,0,1,1.117.2h.1a14.252,14.252,0,0,1,3.451,1.32h.1a8.927,8.927,0,0,0,1.015.609,2.215,2.215,0,0,1,.508.406,1.4,1.4,0,0,1,.406.3,1.4,1.4,0,0,0,.406.3c.2.2.406.3.508.508a2.736,2.736,0,0,1,.711.812l.1.1c.2.3.508.609.711.914h0c.2.3.406.711.609,1.015h0c.2.3.3.711.508,1.015a.1.1,0,0,0,.1.1c.1.3.2.609.3,1.015,0,.1.1.1.1.2a2.964,2.964,0,0,1,.2.914c0,.1.1.2.1.3C97.23,399.961,97.23,400.367,97.331,400.773Z" transform="translate(-48.1 -389.1)"/><path class="f" d="M58.3,391.7c.406-.1.812-.1,1.32-.2A6.986,6.986,0,0,0,58.3,391.7Z" transform="translate(-47.946 -389.064)"/><path class="f" d="M84.22,389.3a6.244,6.244,0,0,0-1.32.1A5.363,5.363,0,0,1,84.22,389.3Z" transform="translate(-47.575 -389.097)"/><path class="g" d="M83.047,389.4a12.088,12.088,0,0,1-10.861,9.948A12.217,12.217,0,0,1,59.7,391.532Z" transform="translate(-47.925 -389.095)"/></g><g transform="translate(40.662 350.009)"><g transform="translate(1.99 11.909)"><path class="h" d="M50.92,383.22l7.207-2.944s-1.726-10.151-5.278-15.632c0,0-1.827-3.35-5.075-2.944-3.248.609-3.959,4.365-3.959,4.365-1.827,6.294-.508,16.546-.508,16.546Z" transform="translate(-42.596 -361.666)"/><g transform="translate(0 18.407)"><path class="f" d="M53.651,400.979c4.162-.609,6.293-9.034,4.771-18.779L43.5,384.433C45.023,394.279,49.489,401.588,53.651,400.979Z" transform="translate(-42.586 -379.764)"/><path class="e" d="M43.412,384.672l15.226-2.233c.3,0,.406-.3.406-.508l-.3-1.726c0-.3-.3-.406-.508-.406l-15.226,2.233c-.3,0-.406.3-.406.508l.3,1.726C42.9,384.571,43.108,384.672,43.412,384.672Z" transform="translate(-42.6 -379.8)"/></g></g><path class="i" d="M54.509,364.545s3.756-3.35,3.35-6.395S54,354.7,53.9,354.8C54,354.8,54.509,364.545,54.509,364.545Z" transform="translate(-40.44 -349.861)"/><path class="h" d="M48.416,367.562s-5.684.406-7.106-3.147-.508-11.064,2.03-12.587,9.339-2.944,11.064-.812,1.726,11.876.711,13.6C54,366.344,50.547,367.46,48.416,367.562Z" transform="translate(-40.64 -349.934)"/><path class="i" d="M48.376,365.431a13.7,13.7,0,0,1-4.974-.406.288.288,0,0,1,0-.508,17.4,17.4,0,0,1,4.771-1.117,17.138,17.138,0,0,1,4.669.3.251.251,0,0,1,.1.406C52.436,364.517,51.117,365.228,48.376,365.431Z" transform="translate(-40.6 -349.732)"/></g><g transform="translate(47.306 412.895)"><path class="b" d="M50.737,437.375,48.5,440.827a1.554,1.554,0,0,0-.2,1.32,1.66,1.66,0,0,0,2.03,1.218l20.4-5.075a1.589,1.589,0,0,0,1.218-2.03L70.937,432.3Z" transform="translate(-47.169 -411.577)"/><path class="c" d="M67.806,419.818l2.233,8.831-20.3,5.075L47.5,424.893a10.463,10.463,0,0,1,20.3-5.075Z" transform="translate(-47.185 -411.885)"/><rect class="d" width="20.911" height="4.263" transform="translate(2.534 21.788) rotate(-13.951)"/></g><g transform="translate(75.452 405.524)"><path class="b" d="M96.216,430.493l2.03,3.553a1.518,1.518,0,0,1,.1,1.32,1.673,1.673,0,0,1-2.132,1.117l-20.1-6.294A1.673,1.673,0,0,1,75,428.057l1.218-3.857Z" transform="translate(-74.913 -404.329)"/><g transform="translate(1.311)"><path class="c" d="M80.141,411.908,77.4,420.536l20,6.293,2.741-8.628a10.482,10.482,0,0,0-20-6.294Z" transform="translate(-76.186 -404.624)"/><rect class="d" width="4.263" height="20.911" transform="translate(0 20.012) rotate(-72.603)"/></g></g><g transform="translate(39.167 344.931)"><g transform="translate(12.113 24.626)"><path class="j" d="M100.534,369.911s-9.542-.812-14.617-.711a11.292,11.292,0,0,0-7.715,2.842,2.233,2.233,0,0,1-1.421.2H75.259c-.711.1-1.015.1-1.421-.2a11.292,11.292,0,0,0-7.715-2.842c-5.075-.1-14.617.711-14.617.711a.542.542,0,0,0-.406.508l.1,1.421a.784.784,0,0,0,.812.711h1.015s.711,3.248.914,4.06v.1h0c.508,1.726,1.218,4.06,2.233,5.075,1.218,1.218,4.771,2.132,10.963,1.32,0,0,4.568-.914,5.278-2.741.711-1.726,1.523-5.786,3.654-6.192,2.132.406,2.944,4.466,3.654,6.192.711,1.827,5.278,2.741,5.278,2.741,6.293.812,9.745-.1,10.963-1.32,1.015-1.015,1.726-3.35,2.233-5.075h0a.314.314,0,0,1,.1-.2c.2-.914.914-4.06.914-4.06h1.117a.871.871,0,0,0,.711-.609l.1-1.523A.721.721,0,0,0,100.534,369.911Zm-28.016,5.278a16.819,16.819,0,0,1-1.117,3.857c-1.218,2.436-3.959,2.741-6.192,2.944-3.045.2-6.6.2-8.222-1.117s-2.436-6.9-2.538-7.918a1.517,1.517,0,0,1,1.624-1.827,57.313,57.313,0,0,1,9.339-.3,23.943,23.943,0,0,1,2.842.406C70.387,371.839,72.823,372.956,72.518,375.189Zm22.332,5.786c-1.624,1.32-5.177,1.32-8.222,1.117-2.233-.2-4.974-.508-6.192-2.944a24.117,24.117,0,0,1-1.117-3.857c-.3-2.233,2.132-3.35,4.162-3.959a9.171,9.171,0,0,1,2.842-.406,57.313,57.313,0,0,1,9.339.3,1.517,1.517,0,0,1,1.624,1.827C97.286,373.971,96.474,379.655,94.85,380.975Z" transform="translate(-51.1 -369.191)"/><path class="o" d="M68.305,371.207a9.171,9.171,0,0,0-2.842-.406,57.317,57.317,0,0,0-9.339.3,1.517,1.517,0,0,0-1.624,1.827c.1,1.015.914,6.6,2.538,7.918s5.177,1.32,8.222,1.117c2.233-.2,4.974-.508,6.192-2.944a12.93,12.93,0,0,0,1.117-3.857C72.772,372.933,70.335,371.816,68.305,371.207Z" transform="translate(-51.049 -369.168)"/><path class="o" d="M95.343,371.106A57.313,57.313,0,0,0,86,370.8a23.943,23.943,0,0,0-2.842.406c-2.03.609-4.466,1.726-4.162,3.959a12.93,12.93,0,0,0,1.117,3.857c1.218,2.436,3.959,2.741,6.192,2.944,3.045.2,6.6.2,8.222-1.117s2.436-6.9,2.538-7.918A1.678,1.678,0,0,0,95.343,371.106Z" transform="translate(-50.68 -369.168)"/></g><path class="h" d="M94.53,365.612c-9.745-5.786-24.057-7.512-24.057-7.512s-14.313,1.726-24.057,7.512c0,0-3.045,12.384,1.32,24.768a5.063,5.063,0,0,0,4.669,3.553H88.541a5.164,5.164,0,0,0,4.669-3.553C97.474,377.894,94.53,365.612,94.53,365.612Z" transform="translate(-39.073 -344.733)"/><path class="n" d="M92.594,352.005c-4.669-4.669-18.982-10.861-34.513-4.06-9.745,4.263-12.282,9.136-12.79,12.181-2.03.609-7,4.162-5.989,11.47,1.218,8.628,5.481,12.079,6.09,13.805a4.74,4.74,0,0,1-.406,3.553s21.621,3.35,33.6,0,9.745-15.023,11.369-14.617.508,1.32,2.03,1.421,1.929-.508,1.929-1.421-1.929-5.38.812-7.715h0C98.989,364.694,96.146,355.558,92.594,352.005Z" transform="translate(-39.167 -344.931)"/><path class="j" d="M90.2,374.163l7.715-4.263v2.436l-6.9,3.147Z" transform="translate(-38.397 -344.555)"/><g transform="translate(46.562 28.453)"><path class="h" d="M90.988,375.234a3.544,3.544,0,0,0-1.218-1.523c-1.117-.711-3.045-1.523-4.263.711-1.726,3.147,1.624,8.222,4.872,7.207C92.816,380.715,91.7,376.959,90.988,375.234Z" transform="translate(-85.037 -372.962)"/><path class="p" d="M87.815,375.2s-1.218-.609-1.015,0,1.624.406,2.03,2.233c0,0-1.218.2-1.117,1.218.2,1.015,1.624,1.015,1.624.914s-1.32-.2-1.117-.914c.2-.812,1.523-.406,1.624-.406A3.354,3.354,0,0,0,87.815,375.2Z" transform="translate(-85.011 -372.932)"/></g></g></g><g transform="translate(9.645 403.795)"><g transform="translate(0 24.337)"><g transform="translate(1.575 9.927)"><path class="h" d="M98.7,398.6l-7.512,1.726s-4.466-9.237-4.771-15.835c0,0-.406-3.756,2.436-5.38,3.045-1.421,5.786,1.218,5.786,1.218,5.177,4.06,9.948,13.2,9.948,13.2Z" transform="translate(-86.4 -378.686)"/><g transform="translate(4.244 14.49)"><path class="f" d="M96.5,414.686c-3.756,1.929-10.354-3.756-14.82-12.485l13.4-6.8C99.646,404.13,100.255,412.758,96.5,414.686Z" transform="translate(-80.218 -392.924)"/><path class="e" d="M100.125,395.437l-13.7,6.9a.488.488,0,0,1-.609-.2L85,400.614a.488.488,0,0,1,.2-.609l13.7-7a.488.488,0,0,1,.609.2l.812,1.523A.582.582,0,0,1,100.125,395.437Z" transform="translate(-84.961 -392.961)"/></g></g><g transform="translate(0)"><path class="i" d="M88.4,384.245s4.263-2.741,4.365-5.786-3.248-4.06-3.248-3.959S88.4,384.245,88.4,384.245Z" transform="translate(-75.027 -368.823)"/><path class="h" d="M96.889,386.055s-5.684-.508-6.5-4.263,1.32-10.963,4.162-12.079,9.643-1.32,11.064,1.015c1.32,2.436-.3,11.978-1.624,13.5C102.573,385.852,98.919,386.359,96.889,386.055Z" transform="translate(-90.218 -368.907)"/><path class="i" d="M99.032,384.031s-3.248-.2-4.771-1.32a.218.218,0,0,1,.1-.406,15.961,15.961,0,0,1,4.872-.3,16.912,16.912,0,0,1,4.568,1.117.211.211,0,0,1,0,.406A10.065,10.065,0,0,1,99.032,384.031Z" transform="translate(-92.056 -368.71)"/></g></g><g transform="translate(7.473 44.835)"><path class="e" d="M99.243,423.268l-.2,2.335a1.739,1.739,0,0,1-1.929,1.624l-45.577-4.263a1.739,1.739,0,0,1-1.624-1.929l.2-2.335Z" transform="translate(-49.9 -388.654)"/><g transform="translate(0.213)"><path class="f" d="M49.826,400.773,48.1,419.146l49.13,4.568,1.726-18.271v-.1c0-.406.1-.812.1-1.218v-.3a2.81,2.81,0,0,0-.1-.914v-.3a3.606,3.606,0,0,0-.2-1.015v-.1c-.1-.406-.2-.711-.3-1.015v-.1c-.1-.406-.3-.711-.406-1.117v-.1a9.433,9.433,0,0,0-.508-1.015c0-.1-.1-.1-.1-.2-.2-.3-.3-.609-.508-.914a2.691,2.691,0,0,0-.508-.609,1.4,1.4,0,0,1-.3-.406c-.1-.2-.3-.3-.406-.406-.1-.2-.3-.3-.406-.508-.3-.3-.609-.508-.914-.812h0a12.485,12.485,0,0,0-3.147-1.929h0c-.3-.1-.711-.3-1.015-.406a.1.1,0,0,1-.1-.1c-.3-.1-.711-.2-1.015-.3h-.2c-.406-.1-.812-.1-1.32-.2h-.2A12.162,12.162,0,0,1,64.037,389.2h-.2c-.406,0-.914-.1-1.32-.1h-.2a4.163,4.163,0,0,0-1.117.1h-.1a4.317,4.317,0,0,0-1.117.2h-.1a14.251,14.251,0,0,0-3.451,1.32h-.1a8.927,8.927,0,0,1-1.015.609,2.215,2.215,0,0,0-.508.406,1.4,1.4,0,0,0-.406.3,1.4,1.4,0,0,1-.406.3c-.2.2-.406.3-.508.508a2.736,2.736,0,0,0-.711.812l-.1.1c-.2.3-.508.609-.711.914h0c-.2.3-.406.711-.609,1.015h0c-.2.3-.3.711-.508,1.015a.1.1,0,0,1-.1.1c-.1.3-.2.609-.3,1.015,0,.1-.1.1-.1.2a2.964,2.964,0,0,0-.2.914c0,.1-.1.2-.1.3C49.927,399.961,49.927,400.367,49.826,400.773Z" transform="translate(-48.1 -389.1)"/><path class="f" d="M59.62,391.7c-.406-.1-.812-.1-1.32-.2A6.986,6.986,0,0,1,59.62,391.7Z" transform="translate(-19.016 -389.064)"/><path class="f" d="M82.9,389.3a6.244,6.244,0,0,1,1.32.1A5.363,5.363,0,0,0,82.9,389.3Z" transform="translate(-68.587 -389.097)"/></g><path class="g" d="M59.7,389.4a12.088,12.088,0,0,0,10.861,9.948,12.217,12.217,0,0,0,12.485-7.816Z" transform="translate(-43.652 -389.095)"/></g><g transform="translate(47.782 5.078)"><g transform="translate(0 11.909)"><path class="h" d="M50.053,383.22l-7.207-2.944s1.726-10.151,5.278-15.632c0,0,1.827-3.35,5.075-2.944,3.248.609,3.959,4.365,3.959,4.365,1.827,6.294.508,16.546.508,16.546Z" transform="translate(-41.932 -361.666)"/><g transform="translate(0 18.407)"><path class="f" d="M48.763,400.979c-4.162-.609-6.293-9.034-4.771-18.779l14.922,2.233C57.391,394.279,52.924,401.588,48.763,400.979Z" transform="translate(-43.383 -379.764)"/><path class="e" d="M58.232,384.672l-15.226-2.233c-.3,0-.406-.3-.406-.508l.3-1.726c0-.3.3-.406.508-.406l15.226,2.233c.3,0,.406.3.406.508l-.3,1.726C58.74,384.571,58.537,384.672,58.232,384.672Z" transform="translate(-42.6 -379.8)"/></g></g><g transform="translate(0.984)"><path class="i" d="M57.28,364.545s-3.756-3.35-3.35-6.395,3.857-3.451,3.959-3.35C57.788,354.8,57.28,364.545,57.28,364.545Z" transform="translate(-53.9 -349.861)"/><path class="h" d="M48.029,367.562s5.684.406,7.106-3.147.508-11.064-2.03-12.587-9.339-2.944-11.064-.812-1.726,11.876-.711,13.6C42.446,366.344,45.9,367.46,48.029,367.562Z" transform="translate(-38.355 -349.934)"/><path class="i" d="M47.885,365.431a13.7,13.7,0,0,0,4.974-.406.288.288,0,0,0,0-.508,17.4,17.4,0,0,0-4.771-1.117,17.138,17.138,0,0,0-4.669.3.251.251,0,0,0-.1.406C43.824,364.517,45.144,365.228,47.885,365.431Z" transform="translate(-38.211 -349.732)"/></g></g><g transform="translate(34.709 67.963)"><path class="b" d="M69.535,437.375l2.233,3.451a1.554,1.554,0,0,1,.2,1.32,1.66,1.66,0,0,1-2.03,1.218l-20.4-5.075a1.589,1.589,0,0,1-1.218-2.03l1.015-3.959Z" transform="translate(-48.24 -411.577)"/><g transform="translate(1.007)"><path class="c" d="M49.418,419.818l-2.233,8.831,20.3,5.075,2.233-8.831a10.463,10.463,0,0,0-20.3-5.075Z" transform="translate(-46.184 -411.885)"/><rect class="d" width="20.911" height="4.263" transform="matrix(-0.971, -0.241, 0.241, -0.971, 20.294, 25.925)"/></g></g><g transform="translate(5.681 60.593)"><path class="b" d="M77.155,430.493l-2.03,3.553a1.518,1.518,0,0,0-.1,1.32,1.673,1.673,0,0,0,2.132,1.117l20.1-6.294a1.673,1.673,0,0,0,1.117-2.132L97.152,424.2Z" transform="translate(-72.714 -404.329)"/><g transform="translate(0)"><path class="c" d="M97.879,411.908l2.741,8.628-20,6.293L77.882,418.2a10.482,10.482,0,0,1,20-6.294Z" transform="translate(-77.4 -404.624)"/><rect class="d" width="4.264" height="20.912" transform="translate(4.479 26.264) rotate(-107.397)"/></g></g><g transform="translate(5.554)"><g transform="translate(0 24.626)"><path class="j" d="M51.709,369.911s9.542-.812,14.617-.711a11.292,11.292,0,0,1,7.715,2.842,2.233,2.233,0,0,0,1.421.2h1.523c.711.1,1.015.1,1.421-.2A11.292,11.292,0,0,1,86.12,369.2c5.075-.1,14.617.711,14.617.711a.542.542,0,0,1,.406.508l-.1,1.421a.784.784,0,0,1-.812.711H99.215s-.711,3.248-.914,4.06v.1h0c-.508,1.726-1.218,4.06-2.233,5.075-1.218,1.218-4.771,2.132-10.963,1.32,0,0-4.568-.914-5.278-2.741-.711-1.726-1.523-5.786-3.654-6.192-2.132.406-2.944,4.466-3.654,6.192-.711,1.827-5.278,2.741-5.278,2.741-6.294.812-9.745-.1-10.963-1.32-1.015-1.015-1.726-3.35-2.233-5.075h0a.314.314,0,0,0-.1-.2c-.2-.914-.914-4.06-.914-4.06H51.912a.871.871,0,0,1-.711-.609l-.1-1.523A.721.721,0,0,1,51.709,369.911Zm28.016,5.278a16.819,16.819,0,0,0,1.117,3.857c1.218,2.436,3.959,2.741,6.192,2.944,3.045.2,6.6.2,8.222-1.117s2.436-6.9,2.538-7.918a1.517,1.517,0,0,0-1.624-1.827,57.313,57.313,0,0,0-9.339-.3,23.943,23.943,0,0,0-2.842.406C81.857,371.839,79.421,372.956,79.725,375.189Zm-22.332,5.786c1.624,1.32,5.177,1.32,8.222,1.117,2.233-.2,4.974-.508,6.192-2.944a24.117,24.117,0,0,0,1.117-3.857c.3-2.233-2.132-3.35-4.162-3.959a9.171,9.171,0,0,0-2.842-.406,57.313,57.313,0,0,0-9.339.3,1.517,1.517,0,0,0-1.624,1.827C54.957,373.971,55.769,379.655,57.393,380.975Z" transform="translate(-51.1 -369.191)"/><path class="o" d="M58.76,371.207A9.171,9.171,0,0,1,61.6,370.8a57.317,57.317,0,0,1,9.339.3,1.517,1.517,0,0,1,1.624,1.827c-.1,1.015-.914,6.6-2.538,7.918s-5.177,1.32-8.222,1.117c-2.233-.2-4.974-.508-6.192-2.944a12.93,12.93,0,0,1-1.117-3.857C54.293,372.933,56.73,371.816,58.76,371.207Z" transform="translate(-25.973 -369.168)"/><path class="o" d="M80.7,371.106a57.313,57.313,0,0,1,9.339-.3,23.943,23.943,0,0,1,2.842.406c2.03.609,4.466,1.726,4.162,3.959a12.93,12.93,0,0,1-1.117,3.857c-1.218,2.436-3.959,2.741-6.192,2.944-3.045.2-6.6.2-8.222-1.117s-2.436-6.9-2.538-7.918A1.678,1.678,0,0,1,80.7,371.106Z" transform="translate(-75.324 -369.168)"/></g><path class="h" d="M46.372,365.612c9.745-5.786,24.057-7.512,24.057-7.512s14.313,1.726,24.057,7.512c0,0,3.045,12.384-1.32,24.768a5.063,5.063,0,0,1-4.669,3.553H52.361a5.164,5.164,0,0,1-4.669-3.553C43.429,377.894,46.372,365.612,46.372,365.612Z" transform="translate(-39.673 -344.733)"/><path class="n" d="M43.439,352.005c4.669-4.669,18.982-10.861,34.513-4.06,9.745,4.263,12.282,9.136,12.79,12.181,2.03.609,7,4.162,5.989,11.47-1.218,8.628-5.481,12.079-6.09,13.805a4.74,4.74,0,0,0,.406,3.553s-21.621,3.35-33.6,0S47.7,373.931,46.078,374.337s-.508,1.32-2.03,1.421-1.929-.508-1.929-1.421,1.929-5.38-.812-7.715h0C37.044,364.694,39.886,355.558,43.439,352.005Z" transform="translate(-34.709 -344.931)"/><path class="j" d="M97.915,374.163,90.2,369.9v2.436l6.9,3.147Z" transform="translate(-87.561 -344.555)"/><g transform="translate(8.76 28.453)"><path class="h" d="M85.92,375.234a3.544,3.544,0,0,1,1.218-1.523c1.117-.711,3.045-1.523,4.263.711,1.726,3.147-1.624,8.222-4.872,7.207C84.093,380.715,85.21,376.959,85.92,375.234Z" transform="translate(-85.037 -372.962)"/><path class="p" d="M88.85,375.2s1.218-.609,1.015,0-1.624.406-2.03,2.233c0,0,1.218.2,1.117,1.218-.2,1.015-1.624,1.015-1.624.914s1.32-.2,1.117-.914c-.2-.812-1.523-.406-1.624-.406A3.354,3.354,0,0,1,88.85,375.2Z" transform="translate(-84.82 -372.932)"/></g></g></g></g></svg>