<svg xmlns="http://www.w3.org/2000/svg" width="105.911" height="124.999" viewBox="0 0 105.911 124.999">
  <g id="Group_3977" data-name="Group 3977" transform="translate(105.911) rotate(90)">
    <g id="Group_1186" data-name="Group 1186">
      <path id="Path_1750" data-name="Path 1750" d="M77.125,8.8v4.234q.318-9.845,6.457-8.68,3.176-.847,8.151,5.822l29.851,34.826.424.635a18.37,18.37,0,0,1,2.964,9.209V52.1a18.283,18.283,0,0,0-2.964-10.691l-.424-.635L91.733,5.945Q86.757-.724,83.582.123q-6.14-1.164-6.457,8.68M2.074,20.871Q-.361,22.988.063,27.116v2.011A6.139,6.139,0,0,1,2.074,25.1Q3.768,22.988,7.79,22.67H77.125V18.436H7.79Q3.768,18.753,2.074,20.871Z" fill="#d7ac00"/>
      <path id="Path_1751" data-name="Path 1751" d="M.053,24.893V74.645a11.692,11.692,0,0,0,0,2.223A5.859,5.859,0,0,0,2.17,80.784Q3.758,82.9,7.886,83.113H77.115v9.844q.318,9.844,6.457,8.574,3.176.741,8.151-5.716L121.574,60.99a2.661,2.661,0,0,0,.318-.635,16.973,16.973,0,0,0,3.07-9.421v-.317A18.37,18.37,0,0,0,122,41.406l-.424-.635L91.723,5.945Q86.748-.724,83.572.123q-6.14-1.164-6.457,8.68v9.633H7.78q-4.022.318-5.716,2.435A6.139,6.139,0,0,0,.053,24.893Z" transform="translate(0.01 4.234)" fill="#fc0"/>
    </g>
  </g>
</svg>
