<svg xmlns="http://www.w3.org/2000/svg" width="708.567" height="156" viewBox="0 0 708.567 156"><defs><style>.a{fill:#e2665b;}.b{fill:#c6594f;}.c{fill:#ff7366;}.d{fill:#fff1d2;}.e{fill:#8e3f38;}.f{fill:rgba(0,0,0,0.2);}.g{fill:#515f6b;}.h{fill:#778d9f;}</style></defs><g transform="translate(-605.716 -55.005)"><g transform="translate(-156.284 -30.995)"><path class="a" d="M1562.534,80.882l.132,1.322a23.828,23.828,0,0,0,2.776,8.989l-2.115.132-59.091,3.834-31.727,1.719-84.605,3.569-84.6,1.851-52.878.264h-15.864l-42.3-.4-26.571-.4-10.443-.132L1086.5,99.522l-37.015-1.586-53.407-2.776-58.43-3.834-2.248-.132a24.778,24.778,0,0,0,3.041-10.443L996.6,86.434l52.878,4.1,37.015,2.38,68.742,3.04,10.576.264,26.439.661,42.3.529h15.864l52.878-.4,84.6-2.776,84.605-5.156,31.727-2.644,58.3-5.552m15.731,22.209a26.355,26.355,0,0,0,10.576,2.115v60.81a26.355,26.355,0,0,0-10.576,2.115v-65.04m-5.288-3.04v71.121l-2.908,2.512a24.216,24.216,0,0,0-3.569,4.495l-5.023.264-57.241,3.834-31.727,1.719-84.605,3.569-84.6,1.851-52.878.4h-15.864l-31.462-.264-10.84-.132-37.015-.661-68.742-2.115-15.2-.661-21.812-.925-109.854-6.61-5.288-.264-3.7-4.495-2.776-2.38V99.918l2.776-2.512,1.19-1.19,5.42.4,58.43,3.834,53.8,2.776,37.015,1.586,68.742,2.115,10.311.132,26.7.4,42.3.4h15.864l52.878-.264,84.6-1.851,84.605-3.569,31.727-1.719,59.488-3.834,5.288-.4,1.058,1.19,2.908,2.644M912,105.206a25.757,25.757,0,0,0,10.576-2.115v65.04A25.757,25.757,0,0,0,912,166.016v-60.81m650.534,89.1-58.3,3.834-31.727,1.719-84.605,3.569-84.6,1.983-52.878.264h-15.864l-31.727-.264-10.576-.132-37.015-.661L1086.5,202.5l-15.863-.661-21.151-.925-111.044-6.61v-1.851a26.3,26.3,0,0,0-1.454-8.857l2.247.132,110.251,6.61,21.68.925,15.334.661,68.742,2.115,37.015.661,10.708.132,31.595.264h15.864l52.878-.4,84.6-1.851,84.605-3.569,31.727-1.719,57.637-3.834,1.983-.132a26.3,26.3,0,0,0-1.454,8.857l.132,1.851" transform="translate(-134.137 23.106)"/><path class="b" d="M1562.534,195.539l-.132-1.851a26.3,26.3,0,0,1,1.454-8.857l13.616-.925-.4.132,1.19-.132V169.364a26.355,26.355,0,0,1,10.576-2.115v26.307l-10.708.925-15.6,1.058m2.908-103.112a23.828,23.828,0,0,1-2.776-8.989l-.132-1.322v-.132l15.731-1.19L1588.841,80v26.439a26.355,26.355,0,0,1-10.576-2.115V91.369l-12.823,1.058m-627-10.443A24.778,24.778,0,0,1,935.4,92.426L922.576,91.5v12.823A25.757,25.757,0,0,1,912,106.439V80l10.576.793.529.132,15.334,1.058M1569.011,97.45l3.966-.264v4.1l-2.908-2.644-1.058-1.19m3.966,74.955v6.478l-6.478.529a24.216,24.216,0,0,1,3.569-4.495l2.908-2.512m-638.636,7.006-6.478-.529v-6.345l2.776,2.38,3.7,4.495m-6.478-78.26V97.185l3.966.264-1.19,1.19-2.776,2.512m10.576,94.388L923.1,194.481h-.265L912,193.556V167.249a25.757,25.757,0,0,1,10.576,2.115v14.542H923.9l13.087.925a26.3,26.3,0,0,1,1.454,8.857v1.851" transform="translate(-134.137 21.873)"/><path class="c" d="M1546.095,80.882l-58.3,5.552-31.727,2.644-84.605,5.156-84.6,2.776-52.878.4h-15.864l-42.3-.529-26.439-.661-10.576-.264-68.742-3.04-37.015-2.38-52.878-4.1L922,80.75l58.166,3.834,52.878,2.776,37.015,1.586,68.742,2.115,10.576.132,26.439.4,42.3.4h15.864l52.878-.264,84.6-1.851,84.605-3.569,31.727-1.719,58.3-3.834v.132" transform="translate(-117.697 23.106)"/><path class="d" d="M928.823,85.358l2.248.132,58.43,3.834,53.407,2.776,37.015,1.586,68.742,2.115,10.443.132,26.571.4,42.3.4h15.864l52.878-.264,84.6-1.851,84.605-3.569,31.727-1.719,59.091-3.834,2.115-.132,12.823-1.058v92.537l-1.19.132.4-.132-13.616.925-1.983.132-57.637,3.834-31.727,1.719-84.605,3.569-84.6,1.851-52.878.4h-15.864L1196.386,189l-10.708-.132-37.015-.661-68.742-2.115-15.334-.661-21.68-.925-110.251-6.61-2.247-.132-13.087-.925H916v-92.4l12.823.925M1566.4,94.215v-4.1l-3.966.264-5.288.4-59.488,3.834-31.727,1.719L1381.328,99.9l-84.6,1.851-52.878.264h-15.864l-42.3-.4-26.7-.4-10.311-.132-68.742-2.115-37.015-1.586-53.8-2.776-58.43-3.834-5.42-.4-3.966-.264v81.7l6.478.529,5.288.264,109.854,6.61,21.812.925,15.2.661,68.742,2.115,37.015.661,10.84.132,31.462.264h15.864l52.878-.4,84.6-1.851,84.605-3.569,31.727-1.719,57.241-3.834,5.023-.264,6.478-.529v-77.6" transform="translate(-127.561 28.942)"/><path class="e" d="M1592.128,109.739V83.3l-10.576.793-15.731,1.19-58.3,3.834L1475.8,90.835,1391.191,94.4l-84.6,1.851-52.878.264h-15.864l-42.3-.4-26.439-.4-10.576-.132-68.742-2.115-37.015-1.586-52.878-2.776-58.166-3.834-15.334-1.058-.529-.132L915.288,83.3V196.855l10.84.925h.265l15.334,1.058,111.044,6.61,21.151.925,15.863.661,68.742,2.115,37.015.661,10.576.132,31.727.264h15.864l52.878-.264,84.6-1.983,84.605-3.569,31.727-1.719,58.3-3.834,15.6-1.058,10.708-.925V109.739M933.134,203.6l-6.742-.529-11.1-.925h-.4a4.667,4.667,0,0,1-3.437-1.719A4.852,4.852,0,0,1,910,196.855V83.3a5.315,5.315,0,0,1,.793-2.776l2.115-1.851a4.49,4.49,0,0,1,2.776-.661l10.179.793.529.132,15.2,1.058,111.176,6.61,37.015,1.586,68.742,2.115,10.576.132,26.439.4,42.3.4h15.864l52.878-.264,84.6-1.851,84.605-3.569,31.727-1.719,58.43-3.834,15.6-1.19,10.179-.793a4.49,4.49,0,0,1,2.776.661l2.115,1.851.793,2.776V196.855a5.187,5.187,0,0,1-4.891,5.288h-.4l-17.846,1.454-7.667.529-59.091,3.834-31.727,1.851-84.605,3.437-84.6,1.983-52.878.264h-15.864l-31.727-.264-10.576-.132-37.015-.661-68.742-2.115-37.015-1.586L940.8,204.126l-7.667-.529" transform="translate(-137.424 18.573)"/><path class="f" d="M918.75,125.5l7.667.529,111.969,6.61,37.015,1.586,68.742,2.115,37.015.661,10.576.132,31.727.264h15.864l52.878-.264,84.6-1.983,84.605-3.437,31.727-1.851,59.091-3.834,7.667-.529-7.535.925-59.224,6.478-31.727,2.908-84.605,5.817-84.6,3.173-52.878.529H1223.46l-31.727-.4-10.576-.264-37.015-1.058-68.742-3.437-37.015-2.644-112.1-11.1-7.535-.925" transform="translate(-123.04 96.671)"/><path class="g" d="M919.219,79.42l-7.8,7.8,15.6,15.467,7.8-7.8-15.6-15.467m3.834-3.834,15.6,15.467a6.24,6.24,0,0,1,1.719,3.966,5.03,5.03,0,0,1-1.719,3.834l-7.8,7.8a5.725,5.725,0,0,1-3.834,1.719,5.494,5.494,0,0,1-3.833-1.851l-15.6-15.467a5.073,5.073,0,0,1-1.586-3.7,5.381,5.381,0,0,1,1.586-3.966l7.8-7.8A5.672,5.672,0,0,1,919.352,74a5.073,5.073,0,0,1,3.7,1.586" transform="translate(-144 12.009)"/><path class="h" d="M915.849,76.05l15.6,15.467-7.8,7.8L908.05,83.85l7.8-7.8" transform="translate(-140.63 15.379)"/><path class="g" d="M1178.185,75.592a4.783,4.783,0,0,1,3.966-1.586,5.029,5.029,0,0,1,3.833,1.719l7.667,7.667a5.867,5.867,0,0,1,1.719,3.966,5.519,5.519,0,0,1-1.586,3.834l-15.467,15.467a5.867,5.867,0,0,1-3.966,1.719,6.436,6.436,0,0,1-3.966-1.851l-7.667-7.667a5.179,5.179,0,0,1-1.719-3.7,5.323,5.323,0,0,1,1.719-4.1l15.467-15.467m3.966,3.966-15.467,15.467,7.667,7.667,15.467-15.467-7.667-7.667" transform="translate(275.197 12.004)"/><path class="h" d="M1178.617,76.1l7.667,7.667-15.467,15.467-7.667-7.667L1178.617,76.1" transform="translate(278.731 15.462)"/></g></g></svg>