<svg xmlns="http://www.w3.org/2000/svg" width="103.109" height="103.109" viewBox="0 0 103.109 103.109"><defs><style>.a{opacity:0.26;}.b{fill:#fff;}</style></defs><g class="a" transform="translate(-1492 -628)"><g transform="translate(1492 628)"><path class="b" d="M1595.109,679.555a49.715,49.715,0,0,0-15.036-36.518A50.122,50.122,0,0,0,1543.554,628a50.2,50.2,0,0,0-15.036,2.148,52.059,52.059,0,0,0-21.481,12.889,51.644,51.644,0,1,0,88.072,36.518m-25.562-25.777a34.7,34.7,0,0,1,10.741,25.777,36.671,36.671,0,0,1-36.733,36.733,35.869,35.869,0,0,1-25.992-10.741,35.4,35.4,0,0,1-10.74-25.992,34.7,34.7,0,0,1,10.74-25.777,35.516,35.516,0,0,1,25.992-10.955A35.058,35.058,0,0,1,1569.547,653.777Z" transform="translate(-1492 -628)"/></g></g></svg>