<svg xmlns="http://www.w3.org/2000/svg" width="470.059" height="417.792" viewBox="0 0 470.059 417.792"><defs><style>.a{fill:#a4afaf;}.b{fill:#5b6666;}.c{fill:#7e8787;}.d{fill:#d26f49;}.e{fill:#767e7e;}.f{fill:#95a1a1;}</style></defs><g transform="translate(-212.15 509.55)"><g transform="translate(212.15 -509.55)"><path class="a" d="M517.222-351.361l-2.887,55.654H614.79l-11.547-48.842-86.022-6.812M326.473-295.707,323.587-352.4l-86.022,7.852L232.6-295.707Z" transform="translate(-185.375 713.499)"/><path class="b" d="M288.5-375.706l6.582,121.7H397.615l8.66-130.245Z" transform="translate(-112.185 671.797)"/><path class="c" d="M324.723-344.006v156.224h33.023l-6.582-121.7,117.775-8.544-8.66,130.245h31.868V-348.971l-167.425,4.965M240.78-415.825l4.85,36.256,30.136-4.157-5.081-36.141a14.017,14.017,0,0,0-5.773-10.045,14.037,14.037,0,0,0-11.2-3,14.339,14.339,0,0,0-9.93,5.889,14.634,14.634,0,0,0-3,11.2m204.6,26.9-7.736-33.485h-54.5l-12.7,35.332-15.588.231-10.738-35.563h-19.4v62.351l167.425-9.006v-53.345H464.9l-4.157,33.138-15.357.346m133.709-38.565a17.625,17.625,0,0,0-12.355-7.159,17.491,17.491,0,0,0-13.74,3.81,18.039,18.039,0,0,0-7.274,12.355L540.066-373.8l37.064,4.734,5.658-44.685A17.716,17.716,0,0,0,579.093-427.487Z" transform="translate(-174.85 605.574)"/><path class="d" d="M255.98-509.55,218.8-369.606q46.071-33.947,108.422-24.594L255.98-509.55M658.145-369.606,620.965-509.55,549.723-394.2Q612.074-403.553,658.145-369.606Z" transform="translate(-203.443 509.55)"/><path class="e" d="M288.834-429.45H268.05l9.122,177.932,2.887,56.693h8.775V-429.45m167.425,0v234.625H467.92l2.887-55.654,9.122-178.971Z" transform="translate(-138.96 612.617)"/><path class="f" d="M212.15-421.044l33.139,42.838L264.34-203.046l86.022-7.852L341.24-388.829l-.577-11.777,20.322-52.537q-2.54-.693-5.2-1.386a196.5,196.5,0,0,0-19.86-3.926q-62.351-9.353-108.422,24.594a148.887,148.887,0,0,0-15.357,12.817m70.78,75.052-4.85-36.256a14.634,14.634,0,0,1,3-11.2,14.339,14.339,0,0,1,9.93-5.889,14.037,14.037,0,0,1,11.2,3,14.017,14.017,0,0,1,5.773,10.045l5.081,36.141-30.136,4.157m246.518,30.6v-20.091l-167.425,9.006v16.05l167.425-4.965m17.32-140.983q-6.581,1.386-13.394,3.233L553.7-400.607l-.577,11.777L544-209.858l86.022,6.812L649.07-378.206l33.138-42.838a148.881,148.881,0,0,0-15.357-12.817q-46.071-33.947-108.422-24.594-5.658.808-11.662,2.078m57.271,55.308a17.625,17.625,0,0,1,12.355,7.159,17.715,17.715,0,0,1,3.695,13.74l-5.658,44.685-37.064-4.734,5.658-44.685a18.039,18.039,0,0,1,7.274-12.355A17.491,17.491,0,0,1,604.039-401.068Z" transform="translate(-212.15 571.996)"/></g></g></svg>