<svg xmlns="http://www.w3.org/2000/svg" width="256" height="146.286" viewBox="0 0 256 146.286"><defs><style>.a{fill:#a1b1b1;}.b{fill:#bbcbcc;}.c{fill:#869595;}.d{fill:#acc0c1;}.e{fill:#93a3a3;}</style></defs><g transform="translate(816 1027.286) rotate(180)"><g transform="translate(560 881)"><path class="a" d="M655.086,958.012q0-7.134-7.132-7.134H625.463q-6.948,0-6.949,7.134v22.5q0,6.768,6.583,6.951H648.5q6.583-.183,6.583-6.951v-22.5m25.6-36.4V910.634H614.857V921.61h65.828m65.829-14.634V896H680.686v10.976h65.829M816,928.927V917.951H746.514v10.975H816M560,896v10.976h54.857V896Z" transform="translate(-560 -841.177)"/><path class="b" d="M763.65,972.17H741.161q-6.948,0-6.948,7.134v.183h36.568V979.3q0-7.134-7.131-7.134M566,899v29.268q0,7.134,7.314,7.134h44.064q7.131,0,7.131-7.134V913.634h-25.6V899Z" transform="translate(-544.049 -833.201)"/><path class="c" d="M746.514,930.561v21.951H816V883H560v47.561h54.857v14.634h65.828V930.561Z" transform="translate(-560 -875.683)"/><path class="d" d="M560,899v80.487h65.1q-6.583-.183-6.583-6.951v-22.5q0-7.134,6.949-7.134h22.491q7.132,0,7.132,7.134v22.5q0,6.768-6.583,6.951H750.171V979.3q0-7.134,6.949-7.134h22.491q7.132,0,7.132,7.134v.183H816V920.951H746.514V899H680.686v14.634H640.457v14.634q0,7.134-7.131,7.134H589.257q-7.314,0-7.314-7.134V899Z" transform="translate(-560 -833.201)"/><path class="e" d="M816,888.317V881H560v7.317Z" transform="translate(-560 -881)"/></g></g></svg>