<svg xmlns="http://www.w3.org/2000/svg" width="257.014" height="257.014" viewBox="0 0 257.014 257.014"><defs><style>.a{fill:#94afb1;}.b{fill:#89a4a6;}.c{fill:#677c7e;}.d{fill:#6c8385;}.e{fill:#819a9c;}.f{fill:#5f7374;}</style></defs><g transform="translate(-6360.39 3214.622)"><g transform="translate(0.24 0.278)"><path class="a" d="M1400.414,290.864l23.694-.6,16.264-.4,10.642-.4v8.032l-164.047,4.417-.2-8.032,15.662-.4,32.528-.8,28.513-.8,17.67-.4,19.276-.6M1194,170.389v-8.032l153.2,6.425,36.544,1.406V173.2l-.2,5.02L1194,170.389m257.014-8.032v8.032l-42.166-1.807-4.217,100.2h-.4l.8-15.863.4-12.65,3.414-79.714,42.166,1.807M1194,297.49v-8.032l67.868-1.807,2.811,108.428h-.2l-2.61-100.4L1194,297.49" transform="translate(5166.15 -3365.209)"/><path class="b" d="M1194,291.459l67.868-1.807,2.61,100.4-38.351,1-21.886.6-10.241.2v-100.4m0-26.705v-100.4l189.548,7.831-2.811,68.47h-.2l.2.2-1.406,29.717-.2,2.008-16.264-.6-32.93-1.406-33.331-1.405L1194,264.753m257.014-100.4v100.4l-46.383-2.008,4.217-100.2,42.166,1.807m0,127.1v100.4l-61.844,1.606-38.953,1-60.639,1.606-.6-22.89-1-41.564-1-35.741,164.047-4.417m-140.755-53.411-19.477-2.209-2.008,19.477,19.477,2.209,2.008-19.477m19.477-11.244,2.208-20.28-20.481-2.209-2.209,20.28,20.481,2.209m8.834-.4-3.212,30.32,30.32,3.213,3.213-30.32-30.32-3.213m-7.027,111.841-1.406-30.52-30.722,1.606,1.807,30.32,30.32-1.405m7.027-26.3,1,20.079,20.682-1-1-20.28-20.682,1.2m-.2,33.532-15.26.6.8,15.059,15.461-.6-1-15.059m-127.3,27.709,15.461-.6-1-15.059-15.26.6.8,15.059m42.367-30.721-20.682,1.2,1,20.079,20.681-1-1-20.28" transform="translate(5166.15 -3359.178)"/><path class="c" d="M1194,170.048V158h155.413l-2.209,18.473L1194,170.048M1388.166,158h62.848v12.048l-42.166-1.807-3.414,79.714-9.839-9.437-14.858,15.863,2.811-68.47.2-5.02,1.807.2,2.61-23.091m62.848,120.475v17.67l-10.642,1.406-16.264.4,4.016-10.843-20.481-7.831-7.229,19.276-19.276.6,6.225-5.221-8.032-9.638,1.406-29.717L1396.4,269.44l8.634-8.835-.8,15.863h.4l46.383,2.008m0,127.1v9.437h-62.647l.8-7.831,61.844-1.606m-101.6,9.437H1194v-9.437l10.241-.2.4,2.811,21.485-3.413,38.351-1h.2l-2.811-108.428L1194,297.149V278.475l102.605,4.418,5.823,18.272-15.662.4.2,8.032,1,35.741h-.2l-14.858-3.413-8.634,39.355,24.5,5.622h.2l.6,22.89,60.639-1.606-.8,6.827M1329.936,284.3l32.93,1.406-6.426,5.221,7.028,8.634-28.513.8-5.02-16.063" transform="translate(5166.15 -3372.9)"/><path class="d" d="M1277.159,284.3l5.02,16.063-32.528.8-5.823-18.272,33.331,1.405M1296.636,158h38.752l-2.61,23.091-1.807-.2v-3.012l-36.544-1.406L1296.636,158m38.954,257.014h-38.954l.8-6.827,38.953-1-.8,7.831m-7.63-160.433-.2-.2h.2l14.858-15.863,9.839,9.437-.4,12.65-8.634,8.835-15.662-14.859M1236.2,386.9h-.2l-24.5-5.622,8.634-39.355,14.858,3.413h.2l1,41.564" transform="translate(5218.927 -3372.9)"/><path class="e" d="M1438.8,251.058v1l-10.642.4,10.642-1.406m-121.278-55.619-20.481-2.209,2.209-20.28,20.481,2.209-2.208,20.28m-19.477,11.244-2.008,19.477-19.477-2.209,2.007-19.477,19.477,2.209m28.312-11.646,30.32,3.213-3.213,30.32-30.32-3.213,3.212-30.32m-.2,119.07,1,15.059-15.461.6-.8-15.06,15.26-.6m.2-33.532,20.682-1.2,1,20.28-20.682,1-1-20.079m-7.027,26.3-30.32,1.405-1.807-30.32,30.722-1.606,1.406,30.52m-120.475,34.938-.8-15.06,15.26-.6,1,15.059-15.461.6M1241.22,311.1l1,20.28-20.681,1-1-20.079,20.682-1.2" transform="translate(5178.365 -3327.813)"/></g><path class="f" d="M1355.176,194.625l16.264.6.2-2.008,8.031,9.638-6.225,5.221-17.67.4-7.028-8.634,6.426-5.221M1218.436,313.7l-21.485,3.413-.4-2.811,21.886-.6m174.287-106.219,7.229-19.276,20.481,7.831-4.016,10.843-23.694.6" transform="translate(5173.839 -3281.822)"/></g></svg>