<svg xmlns="http://www.w3.org/2000/svg" xmlns:xlink="http://www.w3.org/1999/xlink" width="257" height="256" viewBox="0 0 257 256"><defs><style>.a{clip-path:url(#b);}.b{fill:#94afb1;}.c{fill:#89a4a6;}.d{fill:#677c7e;}.e{fill:#6c8385;}.f{fill:#819a9c;}.g{fill:#5f7374;}.h{opacity:0.8;}.i{fill:#fff;}</style><clipPath id="b"><rect width="257" height="256"/></clipPath></defs><g id="a" class="a"><rect class="i" width="257" height="256"/><path class="b" d="M1400.412,290.725l23.693-.6,16.264-.4,10.642-.4v8.023l-164.045,4.413-.2-8.023,15.662-.4,32.527-.8,28.512-.8,17.67-.4,19.276-.6M1194,170.378v-8.023l153.2,6.419,36.544,1.4v3.009l-.2,5.014L1194,170.378m257.011-8.023v8.023l-42.166-1.805-4.217,100.089h-.4l.8-15.846.4-12.637,3.414-79.63,42.166,1.805M1194,297.345v-8.023l67.867-1.805,2.811,108.312h-.2l-2.61-100.289L1194,297.345" transform="translate(-1194 -150.32)"/><path class="c" d="M1194,291.321l67.867-1.805,2.61,100.289-38.351,1-21.886.6-10.241.2V291.321m0-26.677V164.355l189.546,7.823-2.811,68.4h-.2l.2.2-1.406,29.686-.2,2.006-16.264-.6-32.93-1.4-33.33-1.4L1194,264.644m257.011-100.289V264.644l-46.383-2.006,4.217-100.089,42.166,1.805m0,126.966V391.611l-61.844,1.6-38.953,1-60.639,1.6-.6-22.866-1-41.52-1-35.7,164.045-4.413m-140.754-53.354-19.477-2.206-2.008,19.456,19.476,2.206,2.008-19.456m19.477-11.232,2.208-20.258-20.48-2.206-2.209,20.258,20.481,2.206m8.834-.4-3.212,30.287,30.319,3.209,3.213-30.287-30.32-3.209m-7.027,111.722-1.406-30.488-30.721,1.6,1.807,30.287,30.319-1.4m7.027-26.276,1,20.058,20.682-1-1-20.258-20.682,1.2m-.2,33.5-15.26.6.8,15.043,15.461-.6-1-15.043m-127.3,27.68,15.461-.6-1-15.043-15.26.6.8,15.043m42.367-30.689-20.682,1.2,1,20.058,20.681-1-1-20.258" transform="translate(-1194 -144.297)"/><path class="d" d="M1194,170.035V158h155.411l-2.209,18.453L1194,170.035M1388.164,158h62.847v12.035l-42.166-1.805-3.414,79.63-9.839-9.427-14.858,15.846,2.811-68.4.2-5.014,1.807.2,2.61-23.067m62.847,120.347V296l-10.642,1.4-16.264.4,4.016-10.831-20.48-7.823-7.229,19.256-19.276.6,6.225-5.215-8.032-9.628,1.406-29.686,15.661,14.843,8.634-8.825-.8,15.846h.4l46.383,2.006m0,126.966v9.427h-62.646l.8-7.823,61.844-1.6m-101.6,9.427H1194v-9.427l10.241-.2.4,2.808,21.484-3.41,38.351-1h.2L1261.867,295.2,1194,297V278.347l102.6,4.413,5.823,18.253-15.662.4.2,8.023,1,35.7h-.2l-14.858-3.41-8.634,39.313,24.5,5.616h.2l.6,22.866,60.639-1.6-.8,6.82m-19.477-130.577,32.93,1.4-6.426,5.215,7.028,8.625-28.512.8-5.02-16.046" transform="translate(-1194 -158)"/><path class="e" d="M1277.158,284.164l5.02,16.046-32.528.8-5.823-18.253,33.33,1.4M1296.635,158h38.752l-2.61,23.067-1.807-.2v-3.009l-36.544-1.4L1296.635,158m38.953,256.741h-38.953l.8-6.82,38.953-1-.8,7.823m-7.63-160.262-.2-.2h.2l14.858-15.846,9.839,9.427-.4,12.637-8.634,8.825-15.661-14.843M1236.2,386.66h-.2l-24.5-5.616,8.634-39.313,14.858,3.41h.2l1,41.52" transform="translate(-1141.224 -158)"/><path class="f" d="M1438.8,250.975v1l-10.642.4,10.642-1.4m-121.277-55.56-20.481-2.206,2.209-20.258,20.48,2.206-2.208,20.258m-19.477,11.232-2.008,19.456-19.476-2.206,2.007-19.456,19.477,2.206m28.311-11.634,30.32,3.209-3.213,30.287-30.319-3.209,3.212-30.287m-.2,118.943,1,15.043-15.461.6-.8-15.043,15.26-.6m.2-33.5,20.682-1.2,1,20.258-20.682,1-1-20.058m-7.027,26.276-30.319,1.4-1.807-30.287,30.721-1.6,1.406,30.488m-120.474,34.9-.8-15.043,15.26-.6,1,15.043-15.461.6m42.367-30.689,1,20.258-20.681,1-1-20.058,20.682-1.2" transform="translate(-1181.785 -112.977)"/><path class="g" d="M1355.174,194.619l16.263.6.2-2.006,8.031,9.628-6.224,5.215-17.669.4-7.028-8.625,6.426-5.215M1218.436,313.562l-21.484,3.41-.4-2.808,21.886-.6m174.285-106.106,7.229-19.256,20.481,7.823-4.016,10.831-23.693.6" transform="translate(-1186.551 -67.329)"/><path class="b" d="M1400.412,290.725l23.693-.6,16.264-.4,10.642-.4v8.023l-164.045,4.413-.2-8.023,15.662-.4,32.527-.8,28.512-.8,17.67-.4,19.276-.6M1194,170.378v-8.023l153.2,6.419,36.544,1.4v3.009l-.2,5.014L1194,170.378m257.011-8.023v8.023l-42.166-1.805-4.217,100.089h-.4l.8-15.846.4-12.637,3.414-79.63,42.166,1.805M1194,297.345v-8.023l67.867-1.805,2.811,108.312h-.2l-2.61-100.289L1194,297.345" transform="translate(-1194 -150.32)"/><path class="c" d="M1194,291.321l67.867-1.805,2.61,100.289-38.351,1-21.886.6-10.241.2V291.321m0-26.677V164.355l189.546,7.823-2.811,68.4h-.2l.2.2-1.406,29.686-.2,2.006-16.264-.6-32.93-1.4-33.33-1.4L1194,264.644m257.011-100.289V264.644l-46.383-2.006,4.217-100.089,42.166,1.805m0,126.966V391.611l-61.844,1.6-38.953,1-60.639,1.6-.6-22.866-1-41.52-1-35.7,164.045-4.413m-140.754-53.354-19.477-2.206-2.008,19.456,19.476,2.206,2.008-19.456m19.477-11.232,2.208-20.258-20.48-2.206-2.209,20.258,20.481,2.206m8.834-.4-3.212,30.287,30.319,3.209,3.213-30.287-30.32-3.209m-7.027,111.722-1.406-30.488-30.721,1.6,1.807,30.287,30.319-1.4m7.027-26.276,1,20.058,20.682-1-1-20.258-20.682,1.2m-.2,33.5-15.26.6.8,15.043,15.461-.6-1-15.043m-127.3,27.68,15.461-.6-1-15.043-15.26.6.8,15.043m42.367-30.689-20.682,1.2,1,20.058,20.681-1-1-20.258" transform="translate(-1194 -144.297)"/><path class="d" d="M1194,170.035V158h155.411l-2.209,18.453L1194,170.035M1388.164,158h62.847v12.035l-42.166-1.805-3.414,79.63-9.839-9.427-14.858,15.846,2.811-68.4.2-5.014,1.807.2,2.61-23.067m62.847,120.347V296l-10.642,1.4-16.264.4,4.016-10.831-20.48-7.823-7.229,19.256-19.276.6,6.225-5.215-8.032-9.628,1.406-29.686,15.661,14.843,8.634-8.825-.8,15.846h.4l46.383,2.006m0,126.966v9.427h-62.646l.8-7.823,61.844-1.6m-101.6,9.427H1194v-9.427l10.241-.2.4,2.808,21.484-3.41,38.351-1h.2L1261.867,295.2,1194,297V278.347l102.6,4.413,5.823,18.253-15.662.4.2,8.023,1,35.7h-.2l-14.858-3.41-8.634,39.313,24.5,5.616h.2l.6,22.866,60.639-1.6-.8,6.82m-19.477-130.577,32.93,1.4-6.426,5.215,7.028,8.625-28.512.8-5.02-16.046" transform="translate(-1194 -158)"/><path class="e" d="M1277.158,284.164l5.02,16.046-32.528.8-5.823-18.253,33.33,1.4M1296.635,158h38.752l-2.61,23.067-1.807-.2v-3.009l-36.544-1.4L1296.635,158m38.953,256.741h-38.953l.8-6.82,38.953-1-.8,7.823m-7.63-160.262-.2-.2h.2l14.858-15.846,9.839,9.427-.4,12.637-8.634,8.825-15.661-14.843M1236.2,386.66h-.2l-24.5-5.616,8.634-39.313,14.858,3.41h.2l1,41.52" transform="translate(-1141.224 -158)"/><path class="f" d="M1438.8,250.975v1l-10.642.4,10.642-1.4m-121.277-55.56-20.481-2.206,2.209-20.258,20.48,2.206-2.208,20.258m-19.477,11.232-2.008,19.456-19.476-2.206,2.007-19.456,19.477,2.206m28.311-11.634,30.32,3.209-3.213,30.287-30.319-3.209,3.212-30.287m-.2,118.943,1,15.043-15.461.6-.8-15.043,15.26-.6m.2-33.5,20.682-1.2,1,20.258-20.682,1-1-20.058m-7.027,26.276-30.319,1.4-1.807-30.287,30.721-1.6,1.406,30.488m-120.474,34.9-.8-15.043,15.26-.6,1,15.043-15.461.6m42.367-30.689,1,20.258-20.681,1-1-20.058,20.682-1.2" transform="translate(-1181.785 -112.977)"/><g transform="translate(-9145.997 726)"><rect class="h" width="428" height="354" transform="translate(9134.997 -735)"/></g></g></svg>