<svg xmlns="http://www.w3.org/2000/svg" width="257.025" height="257.025" viewBox="0 0 257.025 257.025"><defs><style>.a{fill:#a1b1b1;}.b{fill:#bbcbcc;}.c{fill:#869595;}.d{fill:#acc0c1;}.e{fill:#93a3a3;}</style></defs><g transform="translate(-160 -801)"><g transform="translate(160 801)"><path class="a" d="M182.031,827.015h33.046V816H160v11.015h22.031m33.046,3.672V841.7h66.092V830.687H215.077m132.184-3.672V816H281.169v11.015h66.092m47.733,154.031V952.04q0-7.527-7.527-7.527H358.644q-7.711,0-7.711,7.527v29.007q0,7.527,7.711,7.527h28.823q7.527,0,7.527-7.527M218.749,878.237v22.581q0,6.976,6.976,6.977h22.581q7.16,0,7.16-6.977V878.237q0-7.16-7.16-7.16H225.725q-6.976,0-6.976,7.16m128.512-40.206v11.015h69.764V838.031Z" transform="translate(-160 -760.923)"/><path class="b" d="M199.046,833.687V819H166v29.374q0,7.16,7.344,7.16h44.245q7.16,0,7.16-7.16V833.687h-25.7m91.795,103.177q0,6.976,6.976,6.976H320.4q7.16,0,7.16-6.976V914.283a8.655,8.655,0,0,0-.734-3.855q-1.652-3.3-6.426-3.3H297.817q-4.773,0-6.242,3.3a8.655,8.655,0,0,0-.734,3.855v22.581m51.038-44.428q-6.976,0-6.976,7.16v22.581q0,6.976,6.976,6.977H364.46q7.16,0,7.16-6.977V899.6q0-7.16-7.16-7.16Z" transform="translate(-143.969 -752.908)"/><path class="c" d="M347.261,861.749v11.015h69.764V803H160v47.733h55.077V865.42h66.092V850.733h66.092Z" transform="translate(-160 -795.656)"/><path class="d" d="M347.261,841.031V819H281.169v14.687h-40.39v14.687q0,7.16-7.16,7.16H189.374q-7.344,0-7.344-7.16V819H160v190.933H417.025v-168.9H347.261m3.672,58.565q0-7.16,6.976-7.16h22.582q7.16,0,7.16,7.16v22.581q0,6.976-7.16,6.977H357.909q-6.976,0-6.976-6.977V899.6M218.749,892.8V870.221q0-7.16,6.976-7.16h22.581q7.16,0,7.16,7.16V892.8q0,6.976-7.16,6.977H225.725q-6.976,0-6.976-6.977m95.1,51.038q-6.976,0-6.976-6.976V914.283a8.655,8.655,0,0,1,.734-3.855q1.469-3.3,6.242-3.3h22.581q4.773,0,6.426,3.3a8.655,8.655,0,0,1,.734,3.855v22.581q0,6.976-7.16,6.976H313.848m81.146.184v29.007q0,7.527-7.527,7.527H358.644q-7.711,0-7.711-7.527V944.024q0-7.527,7.711-7.527h28.823Q394.994,936.5,394.994,944.024Z" transform="translate(-160 -752.908)"/><path class="e" d="M417.025,808.344V801H160v7.344Z" transform="translate(-160 -801)"/></g></g></svg>