<svg xmlns="http://www.w3.org/2000/svg" width="29.395" height="108.452" viewBox="0 0 29.395 108.452"><defs><style>.a{fill:#bbcbcc;}.b{fill:#d3dbdb;}.c{fill:#aec1c2;}</style></defs><g transform="translate(0)"><g transform="translate(0 3.326)"><path class="a" d="M1004.515,218.148H996.78q-10.6,0-10.83,10.443v22.356q.232,10.443,10.83,10.443h7.735q10.6,0,10.83-10.443V228.591q-.232-10.443-10.83-10.443m0,6.188a1.367,1.367,0,0,1,1.547,1.547v24.754a1.378,1.378,0,0,1-1.547,1.47H996.78a1.378,1.378,0,0,1-1.547-1.47V225.884a1.367,1.367,0,0,1,1.547-1.547h7.735m10.83-49.894Q1015.113,164,1004.515,164H996.78q-10.6,0-10.83,10.443V196.8q.232,10.443,10.83,10.443h7.735q10.6,0,10.83-10.443V174.443m-10.83-4.255a1.367,1.367,0,0,1,1.547,1.547v24.754a1.378,1.378,0,0,1-1.547,1.47H996.78a1.378,1.378,0,0,1-1.547-1.47V171.736a1.367,1.367,0,0,1,1.547-1.547Z" transform="translate(-985.95 -160.906)"/><path class="b" d="M1004.515,216.148H996.78a14.008,14.008,0,0,0-4.873.774q-5.956,2.011-5.956,10.056v2.707q.232-10.443,10.83-10.443h7.735q10.6,0,10.83,10.443v-2.707q0-8.045-5.879-10.056a14.675,14.675,0,0,0-4.951-.774m0-51.054q10.6,0,10.83,10.443V172.83q0-10.83-10.83-10.83H996.78q-10.83,0-10.83,10.83v2.707q.232-10.443,10.83-10.443Z" transform="translate(-985.95 -162)"/></g><g transform="translate(9.36)"><path class="c" d="M997.415,246.565a5.3,5.3,0,0,0-3.79,1.47,4.32,4.32,0,0,0-1.624,3.4V268.3h10.83V251.438a4.406,4.406,0,0,0-1.547-3.4,5.57,5.57,0,0,0-3.868-1.47m3.868-48.037a5.956,5.956,0,0,0-3.868-1.315,5.653,5.653,0,0,0-3.79,1.315A4.547,4.547,0,0,0,992,202.008v24.444a4.547,4.547,0,0,0,1.624,3.481,5.653,5.653,0,0,0,3.79,1.315,5.956,5.956,0,0,0,3.868-1.315,4.644,4.644,0,0,0,1.547-3.481V202.008a4.644,4.644,0,0,0-1.547-3.481m1.547-21.814V159.85H992v16.863a4.32,4.32,0,0,0,1.624,3.4,5.3,5.3,0,0,0,3.79,1.47,5.57,5.57,0,0,0,3.868-1.47A4.407,4.407,0,0,0,1002.83,176.713Z" transform="translate(-992 -159.85)"/></g></g></svg>