<svg xmlns="http://www.w3.org/2000/svg" width="1080" height="621.014" viewBox="0 0 1080 621.014"><path d="M94.111,787.335a3.165,3.165,0,0,0-.386.482l-3.279-3.471q-3.086-3.086-6.268-5.786Q55.346,753.682,16.1,753.682A111.742,111.742,0,0,0-.1,754.839v619.168H1079.8l.1-619.65q-34.425,5.979-59.111,32.689a109.963,109.963,0,0,0-17.55,24.975q-21.6-9.45-47.25-8.486-29.025,1.157-51.879,15.332-3.279-3.664-6.943-7.039-39.343-36.354-92.861-34.329-53.421,2.121-89.775,41.368-4.725,5.207-8.968,10.511a63.778,63.778,0,0,0-4.629-4.725,47.772,47.772,0,0,0-67.886,2.7,36.554,36.554,0,0,0-6.364,8.2q-24.782-13.4-54.964-12.15-32.014,1.157-56.6,18.225-28.253-19.768-64.7-18.321-40.693,1.639-69.525,28.832l-.1-.1q-32.689-29.989-77.336-28.35a111.888,111.888,0,0,0-27.386,4.436q-8-26.421-29.893-46.671a113.771,113.771,0,0,0-15.911-12.343q-27.1-17.454-61.232-16.007Q124.389,754.839,94.111,787.335Z" transform="translate(0.1 -752.993)" fill="#dcfafc"/></svg>