<svg xmlns="http://www.w3.org/2000/svg" width="188.65" height="127.1" viewBox="0 0 188.65 127.1"><defs><style>.a{fill:#c9dee5;}.b{fill:#e8f2f5;}</style></defs><g transform="translate(-581.7 1017.45)"><path class="a" d="M609-968.25v-.05a50.825,50.825,0,0,0-13.7,23.6,9.973,9.973,0,0,1-3.15,5.1,9.62,9.62,0,0,1-5.55,2.4,18.373,18.373,0,0,0-4.3,1,27.708,27.708,0,0,0,7.9,14.55,28.161,28.161,0,0,0,20.6,8.5A29.274,29.274,0,0,0,621-914.9q1.4,1.55,2.9,3.05a59.521,59.521,0,0,0,43.75,18.15A59.859,59.859,0,0,0,699-902.05a40.6,40.6,0,0,0,29.2,11.7,45.345,45.345,0,0,0,4.8-.25,31.032,31.032,0,0,0,5.35-17.9,30.93,30.93,0,0,0-9.4-22.7,31.012,31.012,0,0,0-22.75-9.45h-1.5a9.72,9.72,0,0,1-5.9-1.95,9.637,9.637,0,0,1-3.6-5,51.562,51.562,0,0,0-12.85-20.65v-.05a50.2,50.2,0,0,0-36.7-15.15A49.842,49.842,0,0,0,609-968.25Z"/><path class="b" d="M609-968.3v.05a49.842,49.842,0,0,1,36.65-15.2,50.2,50.2,0,0,1,36.7,15.15v.05A51.562,51.562,0,0,1,695.2-947.6a9.637,9.637,0,0,0,3.6,5,9.72,9.72,0,0,0,5.9,1.95h1.5a31.012,31.012,0,0,1,22.75,9.45,30.93,30.93,0,0,1,9.4,22.7A31.032,31.032,0,0,1,733-890.6a40.4,40.4,0,0,0,25-12.1,40.609,40.609,0,0,0,12.35-29.8A40.609,40.609,0,0,0,758-962.3a40.609,40.609,0,0,0-29.8-12.35h-1.5a60.875,60.875,0,0,0-15.3-24.7,59.71,59.71,0,0,0-43.75-18.1,59.6,59.6,0,0,0-43.75,18.1,60.212,60.212,0,0,0-16.3,28.2,28.042,28.042,0,0,0-17.4,8.35,28.161,28.161,0,0,0-8.5,20.6,29.544,29.544,0,0,0,.6,6,18.373,18.373,0,0,1,4.3-1,9.62,9.62,0,0,0,5.55-2.4,9.973,9.973,0,0,0,3.15-5.1A50.825,50.825,0,0,1,609-968.3Z"/></g></svg>