<svg xmlns="http://www.w3.org/2000/svg" width="77.7" height="77.7" viewBox="0 0 77.7 77.7"><defs><style>.a{fill:#fc0;}.b{fill:#d7ac00;}</style></defs><g transform="translate(-4336 -1644)"><path class="a" d="M87.988,58.85a28.128,28.128,0,0,0-8.559-20.639,28.028,28.028,0,0,0-20.578-8.5A29.016,29.016,0,0,0,29.713,58.85a28.1,28.1,0,0,0,8.5,20.639,28.229,28.229,0,0,0,20.639,8.5,28.028,28.028,0,0,0,20.578-8.5A28,28,0,0,0,87.988,58.85M58.729,42.46a5.6,5.6,0,0,1,4.31,1.942,6.8,6.8,0,0,1,1.76,4.735V68.563a6.8,6.8,0,0,1-1.76,4.735,5.753,5.753,0,0,1-8.62,0,6.8,6.8,0,0,1-1.76-4.735V49.138a6.8,6.8,0,0,1,1.76-4.735,5.6,5.6,0,0,1,4.31-1.942M97.7,58.85a37.351,37.351,0,0,1-11.412,27.5A37.38,37.38,0,0,1,58.85,97.7a37.451,37.451,0,0,1-27.5-11.351A37.451,37.451,0,0,1,20,58.85a37.581,37.581,0,0,1,11.351-27.5A37.451,37.451,0,0,1,58.85,20,37.38,37.38,0,0,1,86.288,31.351,37.48,37.48,0,0,1,97.7,58.85" transform="translate(4316 1624)"/><path class="b" d="M57.016,40.748a5.6,5.6,0,0,0-4.31,1.942,6.8,6.8,0,0,0-1.76,4.735V66.85a6.8,6.8,0,0,0,1.76,4.735,5.753,5.753,0,0,0,8.62,0,6.8,6.8,0,0,0,1.76-4.735V47.425a6.8,6.8,0,0,0-1.76-4.735,5.6,5.6,0,0,0-4.31-1.942m29.259,16.39a28,28,0,0,1-8.559,20.639,28.028,28.028,0,0,1-20.578,8.5,28.229,28.229,0,0,1-20.639-8.5A28.1,28.1,0,0,1,28,57.138,29.016,29.016,0,0,1,57.138,28a28.028,28.028,0,0,1,20.578,8.5,28.128,28.128,0,0,1,8.559,20.639" transform="translate(4317.712 1625.713)"/></g></svg>