<svg xmlns="http://www.w3.org/2000/svg" width="196.551" height="254.763" viewBox="0 0 196.551 254.763"><defs><style>.a{fill:#e599ee;}.b{fill:#d58ede;}</style></defs><g transform="translate(-1001.624 -39)"><g transform="translate(1001.624 39)"><path class="a" d="M1173.37,116.546a1.717,1.717,0,0,0-.67-.223q-6.257,15.643-7.375,19-17.878,52.293,4.246,103.022,12.292,28.381,15.2,55.422h13.409q-2.906-24.806-15.2-50.729-22.124-46.26-4.246-94.083a89.017,89.017,0,0,1,3.576-8.716,18.048,18.048,0,0,0,.447-13.632,17.792,17.792,0,0,0-9.386-10.056M1039.955,80.12a16.765,16.765,0,0,0-3.129-1.788,17.344,17.344,0,0,0-13.632-.223,16.878,16.878,0,0,0-10.057,9.386q-23.465,52.74.894,100.564,22.124,43.578,3.352,93.86-1.788,4.693-4.022,9.163a20.485,20.485,0,0,0-1.118,2.682h33.075q8.269-43.131-13.632-88.943-22.124-46.036-4.246-93.86.223-.67,12.515-30.84m72.629-39.555A14.323,14.323,0,0,0,1106.1,39q24.135,77.1-1.341,130.733-24.135,51.176-7.821,109.95,1.564,5.587,3.576,10.95a26.25,26.25,0,0,1,1.117,3.129h21.9a26.253,26.253,0,0,0-1.118-3.129q-2.235-5.363-4.022-10.95-18.773-58.774,3.352-109.95,24.359-56.092.894-118.219Q1119.512,43.47,1112.584,40.564Z" transform="translate(-1001.624 -39)"/><path class="b" d="M1158.862,116.323a17.7,17.7,0,0,0-12.961,0,16.878,16.878,0,0,0-10.057,9.386q-23.242,52.74.894,100.564,16.314,31.734,10.5,67.49h23.688q-2.9-27.041-15.2-55.422-22.124-50.729-4.246-103.022,1.118-3.352,7.375-19m-126.935-14.3a18.039,18.039,0,0,0,.447-13.632,18.318,18.318,0,0,0-6.257-8.269q-12.292,30.169-12.515,30.84-17.878,47.824,4.246,93.86,21.9,45.813,13.632,88.943h14.75q8.268-43.131-13.632-88.943-22.124-46.036-4.246-93.86a79.759,79.759,0,0,1,3.575-8.939m44.249-33.3q2.011,5.14,3.576,10.28,17.878,56.092-4.246,110.4-21.9,53.634-13.632,104.363H1087.8a26.25,26.25,0,0,0-1.117-3.129q-2.011-5.363-3.576-10.95-16.314-58.774,7.821-109.95Q1116.4,116.1,1092.266,39a15.867,15.867,0,0,0-7.151,1.788q-6.7,3.576-9.386,11.844A24.833,24.833,0,0,0,1076.176,68.722Z" transform="translate(-987.787 -39)"/></g></g></svg>