<svg xmlns="http://www.w3.org/2000/svg" width="255" height="255" viewBox="0 0 255 255"><g transform="translate(-160 -321)"><g transform="translate(160 321)"><path d="M160,366.125V389.8l42.439-41.893L245.061,389.8l42.621-41.893L329.939,389.8l42.621-41.893L415,389.8V366.125L372.561,334.25l-42.621,31.875L287.682,334.25l-42.621,31.875L202.439,334.25Z" transform="translate(-160 -285.982)" fill="#bb8044"/><path d="M160,499.907v4.736H415v-5.1l-6.375-6.375a.161.161,0,0,0,.182-.182l-36.064-35.7-42.621,41.893-42.257-41.893-42.621,41.893-42.621-41.893-36.246,35.882a.161.161,0,0,0,.182.182L160,499.907m0-80.871h.182q18.4-18.4,36.975-36.611l5.282-5.282,42.621,41.893,42.621-41.893,42.257,41.893,42.621-41.893L415,419.036V389.893L372.561,348l-42.621,41.893L287.682,348l-42.621,41.893L202.439,348,160,389.893Z" transform="translate(-160 -249.643)" fill="#c99869"/><path d="M166.557,494.279,160,500.836v25.5l6.557-6.557a.161.161,0,0,1-.182-.182l36.246-35.882,42.621,41.893,42.621-41.893,42.257,41.893,42.621-41.893,36.064,35.7a.161.161,0,0,1-.182.182L415,525.971v-25.5l-6.375-6.375a.161.161,0,0,0,.182-.182l-36.064-35.7-42.621,41.893-42.257-41.893-42.621,41.893-42.621-41.893L166.375,494.1a.161.161,0,0,0,.182.182M160,379.893v36.429l42.439-41.893,42.621,41.893,42.621-41.893,42.257,41.893,42.621-41.893L415,416.321V379.893L372.561,338l-42.621,41.893L287.682,338l-42.621,41.893L202.439,338Z" transform="translate(-160 -276.071)" fill="#c58f5c"/><path d="M160.182,397.893H160v55.371l6.557-6.557a.161.161,0,0,1-.182-.182l36.246-35.882,42.621,41.893,42.621-41.893,42.257,41.893,42.621-41.893,36.064,35.7a.161.161,0,0,1-.182.182L415,452.9V397.893L372.561,356l-42.621,41.893L287.682,356l-42.621,41.893L202.439,356l-5.282,5.282Q178.579,379.5,160.182,397.893Z" transform="translate(-160 -228.5)" fill="#bd8958"/><path d="M160,321v7.286H415V321Z" transform="translate(-160 -321)" fill="#93db24"/><path d="M160,323v56.464l42.439-25.318,42.621,25.318,42.621-25.318,42.257,25.318,42.621-25.318L415,379.464V323Z" transform="translate(-160 -315.714)" fill="#80be1f"/><path d="M160,356.868v16.393l42.439-31.875,42.621,31.875,42.621-31.875,42.257,31.875,42.621-31.875L415,373.261V356.868L372.561,331.55l-42.621,25.318L287.682,331.55l-42.621,25.318L202.439,331.55Z" transform="translate(-160 -293.118)" fill="#8bc92a"/></g></g></svg>