<svg xmlns="http://www.w3.org/2000/svg" width="1080" height="439.755" viewBox="0 0 1080 439.755"><path d="M1080,925.326q-47.828,6.654-95.079,15.429-73.478,13.5-147.921,24.3a1177.451,1177.451,0,0,1-150.139,11.957,828.425,828.425,0,0,1-145.7-11.089,1440.178,1440.178,0,0,1-143.293-30.953q-22.661-6.075-45.8-11.089A978.408,978.408,0,0,0,246.375,907.1a630.3,630.3,0,0,0-153.032,3.375Q46.768,917.419,0,923.88v396.707H1080Z" transform="translate(0 -880.832)" fill="#a0db44"/><path d="M1080,931.839V919.015q-47.828,6.846-95.079,15.911Q911.443,948.907,837,960a1143.213,1143.213,0,0,1-150.139,12.439,804.8,804.8,0,0,1-145.7-11.475,1389.384,1389.384,0,0,1-143.293-32.014q-22.661-6.268-45.8-11.379a948.241,948.241,0,0,0-105.686-17.357,608.437,608.437,0,0,0-153.032,3.471Q46.768,910.818,0,917.568v12.825q46.768-6.461,93.343-13.4a630.3,630.3,0,0,1,153.032-3.375,978.408,978.408,0,0,1,105.686,16.779q23.143,5.014,45.8,11.089a1440.178,1440.178,0,0,0,143.293,30.953,828.425,828.425,0,0,0,145.7,11.089A1177.451,1177.451,0,0,0,837,971.568q74.443-10.8,147.921-24.3Q1032.171,938.493,1080,931.839Z" transform="translate(0 -887.346)" fill="#95cb41"/><path d="M1080,923.648v-9.161q-47.828,7.039-95.079,16.3Q911.443,945.055,837,956.434a1121.557,1121.557,0,0,1-150.139,12.632,782.4,782.4,0,0,1-145.7-11.668,1358.018,1358.018,0,0,1-143.293-32.786q-22.661-6.364-45.8-11.571A919.87,919.87,0,0,0,246.375,895.3a593.739,593.739,0,0,0-153.032,3.568Q46.768,906.1,0,913.041V922.2q46.768-6.75,93.343-13.886a608.437,608.437,0,0,1,153.032-3.471A948.241,948.241,0,0,1,352.061,922.2q23.143,5.111,45.8,11.379a1389.384,1389.384,0,0,0,143.293,32.014,804.8,804.8,0,0,0,145.7,11.475A1143.213,1143.213,0,0,0,837,964.63q74.443-11.089,147.921-25.071Q1032.171,930.495,1080,923.648Z" transform="translate(0 -891.979)" fill="#caf38a"/></svg>