<svg xmlns="http://www.w3.org/2000/svg" xmlns:xlink="http://www.w3.org/1999/xlink" width="215" height="169" viewBox="0 0 215 169"><defs><style>.a{clip-path:url(#b);}.b{fill:#c99869;}.c{fill:#bf9164;}.d{fill:#d3ad89;}</style><clipPath id="b"><rect width="215" height="169"/></clipPath></defs><g id="a" class="a"><g transform="translate(-195.317 -78.914)"><g transform="translate(195 36)"><path class="b" d="M1050.1,374.2H925.216v36.631H1050.1V374.2M925.216,289.437v36.631H1050.1V289.437H925.216m-7.69,36.631V241H880V452.914h37.527V326.068M1095.317,241H1057.79V452.914h37.527Z" transform="translate(-880 -241)"/><path class="c" d="M1032.464,341.766h-7.69V378.4h7.69V341.766m0-84.766h-7.69v36.631h7.69V257M899.89,341.766H892.2V378.4h7.69V341.766M892.2,257v36.631h7.69V257Z" transform="translate(-854.673 -208.563)"/><path class="d" d="M892.2,255v6.055h140.264V255H892.2m0,84.766v6.055h140.264v-6.055Z" transform="translate(-854.673 -212.617)"/></g></g></g></svg>