<svg xmlns="http://www.w3.org/2000/svg" xmlns:xlink="http://www.w3.org/1999/xlink" width="318.953" height="318.953" viewBox="0 0 318.953 318.953"><defs><style>.a{fill:#ae7640;}.b{fill:#c99869;}.c{fill:#bb844d;}.d{fill:#bf8f60;}.e,.f{fill:#d3ad89;}.f{font-size:50px;font-family:LilitaOne, Lilita One;}.g{filter:url(#a);}</style><filter id="a" x="48.477" y="102.477" width="224" height="116" filterUnits="userSpaceOnUse"><feOffset dx="2" dy="2" input="SourceAlpha"/><feGaussianBlur result="b"/><feFlood flood-opacity="0.471"/><feComposite operator="in" in2="b"/><feComposite in="SourceGraphic"/></filter></defs><g transform="translate(-1701 1247.212)"><g transform="translate(1701 -1247.212)"><g transform="translate(0 0)"><path class="a" d="M1172.138,824.146h142.846q19.593,0,30.529-8.658a41.843,41.843,0,0,0,5.7-5.924q5.7-7.974,7.29-19.593a2.024,2.024,0,0,1,.227-.911,29.359,29.359,0,0,1,.228-3.645V688.363a9.346,9.346,0,0,0-.455-2.506Q1354.169,651,1314.983,651H1083.97q-33.035,0-41.236,24.833a37.237,37.237,0,0,0-2.05,9.8,5.638,5.638,0,0,0-.684,2.734v94.091q.456,17.087,7.974,27.339a27.7,27.7,0,0,0,5.468,5.7q10.935,8.657,30.529,8.658Z" transform="translate(-1040 -605.435)"/><path class="b" d="M1124.589,861.711H1069V952.84h55.589V861.711m0-200.485h-1.595a28.081,28.081,0,0,0-6.607-10.024,26.259,26.259,0,0,0-19.593-8.2,27,27,0,0,0-19.82,8.2,29.566,29.566,0,0,0-6.379,10.024H1069v9.113h55.589Z" transform="translate(-936.862 -633.887)"/><path class="c" d="M1227.727,649H1083.97q-36,0-42.375,29.389a.655.655,0,0,0-.228.455l-.228,2.05q-.228.911-.455,2.051a54.122,54.122,0,0,0-.684,8.885v3.645a5.639,5.639,0,0,1,.684-2.734,37.237,37.237,0,0,1,2.05-9.8q8.2-24.833,41.236-24.833h231.013q39.185,0,43.515,34.857a9.347,9.347,0,0,1,.455,2.506V692.97q0-43.97-43.97-43.97Z" transform="translate(-1040 -612.548)"/><path class="d" d="M1069,689v9.113h55.589V689Z" transform="translate(-936.862 -470.289)"/><path class="e" d="M1116.387,649.2a26.26,26.26,0,0,0-19.593-8.2,27,27,0,0,0-19.82,8.2A27.336,27.336,0,0,0,1069,668.339h1.595a29.567,29.567,0,0,1,6.379-10.024,27,27,0,0,1,19.82-8.2,26.259,26.259,0,0,1,19.593,8.2,28.083,28.083,0,0,1,6.607,10.024h1.595A26.924,26.924,0,0,0,1116.387,649.2Z" transform="translate(-936.862 -641)"/></g></g><g class="g" transform="matrix(1, 0, 0, 1, 1701, -1247.21)"><text class="f" transform="translate(159.48 148.48)"><tspan x="-110.125" y="0">PROJECTS</tspan><tspan x="0" y="57"></tspan></text></g></g></svg>