<svg xmlns="http://www.w3.org/2000/svg" width="70" height="70" viewBox="0 0 70 70"><defs><style>.a{fill:#c58f5c;}.b{fill:#c99869;}.c{fill:#bd8958;}.d{fill:#f8f4ed;}.e{fill:#f3ecd4;}.f{fill:#bb8044;}.g{fill:#e7dfc2;}</style></defs><g transform="translate(-160 -1)"><path class="a" d="M186.05,65.95A36.674,36.674,0,0,0,195,62.1q18.7-9.8,35,0V55.4q-16.3-9.8-35,0a36.674,36.674,0,0,1-8.95,3.85q-12.4,3.3-26.05-3.85v6.7q13.65,7.15,26.05,3.85M230,30.4v-6q-16.3-9.8-35,0a36.674,36.674,0,0,1-8.95,3.85q-12.4,3.3-26.05-3.85v6q13.65,7.15,26.05,3.85A36.674,36.674,0,0,0,195,30.4Q213.7,20.6,230,30.4Z"/><path class="b" d="M195,62.1a36.674,36.674,0,0,1-8.95,3.85q-12.4,3.3-26.05-3.85V71h70V62.1q-16.3-9.8-35,0m35-22.7v-9q-16.3-9.8-35,0a36.674,36.674,0,0,1-8.95,3.85q-12.4,3.3-26.05-3.85v9q13.65,7.15,26.05,3.85A36.674,36.674,0,0,0,195,39.4Q213.7,29.6,230,39.4Z"/><path class="c" d="M195,39.4a36.674,36.674,0,0,1-8.95,3.85q-12.4,3.3-26.05-3.85v16q13.65,7.15,26.05,3.85A36.674,36.674,0,0,0,195,55.4q18.7-9.8,35,0v-16Q213.7,29.6,195,39.4Z"/><path class="d" d="M230,3V1H160V3Z"/><path class="e" d="M228.1,19.05q.95.4,1.9.85V16.7q-16.3-6.3-35,0a48.353,48.353,0,0,1-8.25,2.35,5.247,5.247,0,0,0-.7.15q-12.4,2.1-26.05-2.5v3.2q13.65,5.65,26.05,3.05A39.455,39.455,0,0,0,195,19.9q1.1-.45,2.15-.85Q213.55,12.95,228.1,19.05Z"/><path class="f" d="M230,24.4V19.9q-.95-.45-1.9-.85-14.55-6.1-30.95,0-1.05.4-2.15.85a39.455,39.455,0,0,1-8.95,3.05q-12.4,2.6-26.05-3.05v4.5q13.65,7.15,26.05,3.85A36.674,36.674,0,0,0,195,24.4Q213.7,14.6,230,24.4Z"/><path class="g" d="M230,16.7V3H160V16.7q13.65,4.6,26.05,2.5a5.247,5.247,0,0,1,.7-.15A48.353,48.353,0,0,0,195,16.7Q213.7,10.4,230,16.7Z"/></g></svg>