<svg xmlns="http://www.w3.org/2000/svg" width="80.366" height="79.847" viewBox="0 0 80.366 79.847"><defs><style>.a{fill:#f90;}.b{fill:#f08f00;}</style></defs><g transform="translate(-11434.51 -2718.832)"><g transform="translate(11434.51 2718.832)"><g transform="translate(0 0)"><path class="a" d="M190.716,134.894a7.918,7.918,0,0,0-4.615,2.393,6.611,6.611,0,0,0-2.222,4.615l-2.564,19.145L162,162.586a7.25,7.25,0,0,0-4.786,1.709,8.988,8.988,0,0,0-2.564,4.786,6.609,6.609,0,0,0,.855,4.786,6.826,6.826,0,0,0,3.59,3.761l15.9,7.35,1.709.855-4.957,18.8a7.742,7.742,0,0,0,.513,5.3,7,7,0,0,0,3.419,3.59,6.839,6.839,0,0,0,5.128,1.026,7.311,7.311,0,0,0,4.615-2.393l13.333-14.188L215.16,208.4a6.328,6.328,0,0,0,4.957,1.026,6.56,6.56,0,0,0,4.786-2.051,8.528,8.528,0,0,0,2.393-4.444,7.311,7.311,0,0,0-.855-5.128l-9.4-17.094L231.912,168.4a9.129,9.129,0,0,0,2.735-4.444,6.216,6.216,0,0,0-.684-4.957,7.535,7.535,0,0,0-3.59-3.931,7.207,7.207,0,0,0-5.128-.513l-6.667,1.2-12.307,2.222-7.008-18.119a9.1,9.1,0,0,0-3.419-3.761,7.5,7.5,0,0,0-5.128-1.2m-1.709,10.085a3.745,3.745,0,0,1,2.735-1.538,4.253,4.253,0,0,1,3.077.855,3.745,3.745,0,0,1,1.538,2.735,3.033,3.033,0,0,1-.855,2.906,3.606,3.606,0,0,1-2.735,1.709,4.492,4.492,0,0,1-4.615-3.59,4.253,4.253,0,0,1,.855-3.077m4.1,9.572a6.209,6.209,0,0,1,3.932,1.026,4.746,4.746,0,0,1,1.88,3.419,4.851,4.851,0,0,1-1.026,3.932,4.594,4.594,0,0,1-3.419,2.051,4.851,4.851,0,0,1-3.932-1.026,5.506,5.506,0,0,1-2.051-3.59,5.156,5.156,0,0,1,1.2-3.761,4.885,4.885,0,0,1,3.419-2.051m18.632,17.435a4.885,4.885,0,0,1-2.051-3.419,5.412,5.412,0,0,1,1.2-3.932,4.992,4.992,0,0,1,3.248-1.88,6.519,6.519,0,0,1,4.1,1.026,4.887,4.887,0,0,1,1.88,3.59,4.379,4.379,0,0,1-1.026,3.761,4.887,4.887,0,0,1-3.59,1.88,4.585,4.585,0,0,1-3.761-1.026m13.333-13.162a3.455,3.455,0,0,1,2.735.855,4.375,4.375,0,0,1,1.709,2.735,4.253,4.253,0,0,1-.855,3.077,3.624,3.624,0,0,1-2.564,1.538,4.181,4.181,0,0,1-3.248-.684,4.642,4.642,0,0,1-1.367-2.906,3.585,3.585,0,0,1,.513-2.906,5.958,5.958,0,0,1,3.077-1.709M222,199a4.253,4.253,0,0,1-.855,3.077,3.624,3.624,0,0,1-2.564,1.538,3.87,3.87,0,0,1-3.248-.855,3.973,3.973,0,0,1-1.368-2.735,4.087,4.087,0,0,1,.513-3.077,6.564,6.564,0,0,1,3.077-1.538,3.455,3.455,0,0,1,2.735.855A4.375,4.375,0,0,1,222,199M210.2,196.944a5.155,5.155,0,0,1-3.761-1.2,5.4,5.4,0,0,1-2.051-3.419,5.862,5.862,0,0,1,1.026-3.931,4.746,4.746,0,0,1,3.419-1.88,4.38,4.38,0,0,1,3.761,1.026,4.6,4.6,0,0,1,2.222,3.59,4.342,4.342,0,0,1-1.2,3.761,4.885,4.885,0,0,1-3.419,2.051M183.024,191.3a5.4,5.4,0,0,1,3.419-2.051,5.861,5.861,0,0,1,3.931,1.026,4.717,4.717,0,0,1,2.051,3.59,4.585,4.585,0,0,1-1.026,3.761,4.717,4.717,0,0,1-3.59,2.051,4.585,4.585,0,0,1-3.761-1.026A5.4,5.4,0,0,1,182,195.234a5.862,5.862,0,0,1,1.026-3.932m-2.393,8.889a3.255,3.255,0,0,1,2.906.684,5.111,5.111,0,0,1,1.709,2.906,3.709,3.709,0,0,1-.855,2.906,4.375,4.375,0,0,1-2.735,1.709,3.708,3.708,0,0,1-2.906-.855,3.606,3.606,0,0,1-1.709-2.735,3.436,3.436,0,0,1,.855-3.077,3.745,3.745,0,0,1,2.735-1.538M159.777,171.3a3.7,3.7,0,0,1,.684-3.077,4.328,4.328,0,0,1,2.906-1.538,3.708,3.708,0,0,1,2.906.855,4.375,4.375,0,0,1,1.709,2.735,4.253,4.253,0,0,1-.855,3.077,3.745,3.745,0,0,1-2.735,1.538,4.253,4.253,0,0,1-3.077-.855,3.745,3.745,0,0,1-1.538-2.735m14.7-3.419a6.011,6.011,0,0,1,4.1.855,5.131,5.131,0,0,1,1.709,3.59,4.7,4.7,0,0,1-.855,3.761,6.1,6.1,0,0,1-3.59,2.051,4.379,4.379,0,0,1-3.761-1.026,4.885,4.885,0,0,1-2.051-3.419,5.412,5.412,0,0,1,1.2-3.932A4.5,4.5,0,0,1,174.478,167.885Z" transform="translate(-154.509 -134.832)"/><path class="b" d="M174.913,162.666a6.011,6.011,0,0,0-4.1-.855,4.5,4.5,0,0,0-3.248,1.88,5.412,5.412,0,0,0-1.2,3.932,4.885,4.885,0,0,0,2.051,3.419,4.379,4.379,0,0,0,3.761,1.026,6.1,6.1,0,0,0,3.59-2.051,4.7,4.7,0,0,0,.855-3.761,5.131,5.131,0,0,0-1.709-3.59m-18.119-.513a3.7,3.7,0,0,0-.684,3.077,3.745,3.745,0,0,0,1.538,2.735,4.253,4.253,0,0,0,3.077.855,3.745,3.745,0,0,0,2.735-1.538,4.253,4.253,0,0,0,.855-3.077,4.375,4.375,0,0,0-1.709-2.735,3.708,3.708,0,0,0-2.906-.855,4.328,4.328,0,0,0-2.906,1.538M179.871,194.8a3.255,3.255,0,0,0-2.906-.684,3.745,3.745,0,0,0-2.735,1.538,3.436,3.436,0,0,0-.855,3.077,3.606,3.606,0,0,0,1.709,2.735,3.708,3.708,0,0,0,2.906.855,4.375,4.375,0,0,0,2.735-1.709,3.709,3.709,0,0,0,.855-2.906,5.111,5.111,0,0,0-1.709-2.906m2.906-11.624a5.4,5.4,0,0,0-3.419,2.051,5.862,5.862,0,0,0-1.026,3.932,5.4,5.4,0,0,0,2.051,3.419,4.585,4.585,0,0,0,3.761,1.026,4.717,4.717,0,0,0,3.59-2.051,4.585,4.585,0,0,0,1.026-3.761,4.717,4.717,0,0,0-2.051-3.59,5.861,5.861,0,0,0-3.931-1.026m20,6.5a5.155,5.155,0,0,0,3.761,1.2,4.885,4.885,0,0,0,3.419-2.051,4.342,4.342,0,0,0,1.2-3.761,4.6,4.6,0,0,0-2.222-3.59,4.38,4.38,0,0,0-3.761-1.026,4.746,4.746,0,0,0-3.419,1.88,5.862,5.862,0,0,0-1.026,3.931,5.4,5.4,0,0,0,2.051,3.419m14.7,6.325a4.253,4.253,0,0,0,.855-3.077,4.375,4.375,0,0,0-1.709-2.735,3.455,3.455,0,0,0-2.735-.855,6.564,6.564,0,0,0-3.077,1.538,4.087,4.087,0,0,0-.513,3.077,3.973,3.973,0,0,0,1.368,2.735,3.87,3.87,0,0,0,3.248.855A3.624,3.624,0,0,0,217.477,196m6.667-42.392a3.455,3.455,0,0,0-2.735-.855,5.958,5.958,0,0,0-3.077,1.709,3.585,3.585,0,0,0-.513,2.906,4.642,4.642,0,0,0,1.367,2.906,4.181,4.181,0,0,0,3.248.684A3.624,3.624,0,0,0,225,159.418a4.253,4.253,0,0,0,.855-3.077,4.375,4.375,0,0,0-1.709-2.735m-18.119,8.889a4.885,4.885,0,0,0,2.051,3.419,4.585,4.585,0,0,0,3.761,1.026,4.887,4.887,0,0,0,3.59-1.88,4.379,4.379,0,0,0,1.026-3.761,4.887,4.887,0,0,0-1.88-3.59,6.519,6.519,0,0,0-4.1-1.026,4.992,4.992,0,0,0-3.248,1.88,5.412,5.412,0,0,0-1.2,3.932M193.375,149.5a6.209,6.209,0,0,0-3.932-1.026,4.885,4.885,0,0,0-3.419,2.051,5.156,5.156,0,0,0-1.2,3.761,5.506,5.506,0,0,0,2.051,3.59,4.851,4.851,0,0,0,3.932,1.026,4.594,4.594,0,0,0,3.419-2.051,4.851,4.851,0,0,0,1.026-3.932,4.746,4.746,0,0,0-1.88-3.419m-5.3-12.136a3.745,3.745,0,0,0-2.735,1.538,4.253,4.253,0,0,0-.855,3.077,4.492,4.492,0,0,0,4.615,3.59,3.606,3.606,0,0,0,2.735-1.709,3.033,3.033,0,0,0,.855-2.906,3.745,3.745,0,0,0-1.538-2.735A4.253,4.253,0,0,0,188.076,137.367Z" transform="translate(-150.843 -128.758)"/></g></g></g></svg>