<svg xmlns="http://www.w3.org/2000/svg" width="229.212" height="114.606" viewBox="0 0 229.212 114.606"><defs><style>.a{fill:#707f80;}.b{fill:#acc0c1;}.c{fill:#97a9aa;}.d{fill:#8a9e9f;}.e{fill:#cfdada;}</style></defs><g transform="translate(-110 -190)"><g transform="translate(110 190)"><path class="a" d="M336.838,198.268Q332.5,190,320.138,190H129.074q-15.39,0-18.255,12.443a2.435,2.435,0,0,0-.327,1.228V204a11644.576,11644.576,0,0,1-.164.819v.164a18.867,18.867,0,0,0-.327,3.684v77.768q.164,7.286,3.52,11.706a13.581,13.581,0,0,0,2.62,2.7h-.082q4.666,3.766,13.016,3.766H320.138q1.473,0,2.947-.082h.082a19.353,19.353,0,0,0,8.514-2.7.334.334,0,0,1,.246-.082l1.146-.819.164-.164a22.942,22.942,0,0,0,2.538-2.62.072.072,0,0,1,.082-.082,19.515,19.515,0,0,0,3.111-8.268,3.346,3.346,0,0,0,.164-1.064v-.164a2.691,2.691,0,0,1,.082-.655V209.074q0-6.631-2.374-10.806m-16.7-4.994q10.151,0,13.835,6.549a19.214,19.214,0,0,1,1.965,9.25v78.341a8.1,8.1,0,0,0-.082,1.146v.164a.727.727,0,0,0-.082.327,15.547,15.547,0,0,1-2.62,7.04,15.041,15.041,0,0,1-2.047,2.128l-1.146.819a16.592,16.592,0,0,1-7.122,2.21q-1.31.082-2.7.082H129.074q-7.04,0-10.969-3.111a9.955,9.955,0,0,1-1.965-2.047q-2.7-3.684-2.865-9.823V208.664a19.449,19.449,0,0,1,.246-3.193q.082-.409.164-.737l.082-.737a.236.236,0,0,1,.082-.164q2.292-10.56,15.226-10.56Z" transform="translate(-110 -190)"/><path class="b" d="M330,197.274Q326.068,194,318.864,194H127.8a28.192,28.192,0,0,0-3.111.164q-9.168,1.064-11.706,8.759a13.383,13.383,0,0,0-.737,3.52,1.956,1.956,0,0,0-.246.982V283.8q.164,6.14,2.865,9.823a9.955,9.955,0,0,0,1.965,2.047q3.929,3.111,10.969,3.111H318.864q1.392,0,2.7-.082a16.592,16.592,0,0,0,7.122-2.21l1.146-.819a15.043,15.043,0,0,0,2.047-2.128,15.547,15.547,0,0,0,2.62-7.04.726.726,0,0,1,.082-.327v-.164a8.1,8.1,0,0,1,.082-1.146V207.425a3.044,3.044,0,0,0-.164-.9q-.737-6.14-4.5-9.25M128.372,213.647v-3.274H318.291V282.41H128.372Z" transform="translate(-108.726 -187.451)"/><path class="c" d="M122,206v68.764H311.918V206H122m41.094,26.2q-3.438,0-3.438-3.356V215.905q0-3.356,3.438-3.356h12.852q3.356,0,3.356,3.356v12.934q0,3.356-3.356,3.356H163.094m-29.634-13.18h19.729q3.193,0,3.193,3.274v19.729q0,3.193-3.193,3.193H133.461q-3.274,0-3.274-3.193V222.29q0-3.274,3.274-3.274m13.1,32.745q0-3.193,3.111-3.193h10.069q3.193,0,3.193,3.193v10.069q0,3.111-3.193,3.111H149.669q-3.111,0-3.111-3.111V251.761m147.432-26.114q3.193,0,3.193,3.193v10.069q0,3.111-3.193,3.111H283.922q-3.111,0-3.111-3.111V228.839q0-3.193,3.111-3.193h10.069M264.275,232.2h10.069q3.193,0,3.193,3.193v10.069q0,3.111-3.193,3.111H264.275q-3.111,0-3.111-3.111V235.388q0-3.193,3.111-3.193m16.536,16.454q0-3.356,3.438-3.356H297.1q3.356,0,3.356,3.356v12.934q0,3.356-3.356,3.356H284.249q-3.438,0-3.438-3.356Z" transform="translate(-102.353 -179.804)"/><path class="d" d="M284.249,246.568q-3.438,0-3.438,3.356v12.934q0,3.356,3.438,3.356H297.1q3.356,0,3.356-3.356V249.924q0-3.356-3.356-3.356H284.249m-9.905-13.1H264.275q-3.111,0-3.111,3.193v10.069q0,3.111,3.111,3.111h10.069q3.193,0,3.193-3.111V236.663q0-3.193-3.193-3.193m22.839-3.356q0-3.193-3.193-3.193H283.922q-3.111,0-3.111,3.193v10.069q0,3.111,3.111,3.111h10.069q3.193,0,3.193-3.111V230.114M149.669,249.842q-3.111,0-3.111,3.193V263.1q0,3.111,3.111,3.111h10.069q3.193,0,3.193-3.111V253.035q0-3.193-3.193-3.193H149.669m3.52-29.552H133.461q-3.274,0-3.274,3.274v19.729q0,3.193,3.274,3.193h19.729q3.193,0,3.193-3.193V223.565q0-3.274-3.193-3.274m6.467,9.823q0,3.356,3.438,3.356h12.852q3.356,0,3.356-3.356V217.18q0-3.356-3.356-3.356H163.094q-3.438,0-3.438,3.356v12.934M122,204v3.274H311.918V204Z" transform="translate(-102.353 -181.079)"/><path class="e" d="M318.864,195.274q7.2,0,11.133,3.274,3.766,3.111,4.5,9.25a3.044,3.044,0,0,1,.164.9v-.9a19.214,19.214,0,0,0-1.965-9.25Q329.015,192,318.864,192H127.8q-12.934,0-15.226,10.56a.236.236,0,0,0-.082.164l-.082.737q-.082.327-.164.737A19.449,19.449,0,0,0,112,207.39v1.31a1.956,1.956,0,0,1,.246-.982,13.383,13.383,0,0,1,.737-3.52q2.538-7.7,11.706-8.759a28.192,28.192,0,0,1,3.111-.164Z" transform="translate(-108.726 -188.726)"/></g></g></svg>