<svg xmlns="http://www.w3.org/2000/svg" width="220" height="140" viewBox="0 0 220 140"><defs><style>.a{fill:#707f80;}.b{fill:#cfdada;}.c{fill:#acc0c1;}.d{fill:#97a9aa;}.e{fill:#8a9e9f;}</style></defs><g transform="translate(-950 -270)"><path class="a" d="M1123.05,270.55a1.912,1.912,0,0,0-1.4-.55h-160q-9.38,0-11.15,7.6a1.362,1.362,0,0,0-.2.7.6.6,0,0,0,0,.1v.15q-.028.106-.05.2-.025.155-.05.3a.066.066,0,0,1-.05.05,16.46,16.46,0,0,0-.15,2.3v65.45a1.9,1.9,0,0,0,.55,1.4l5.1,5.1-5.05,5.05a1.93,1.93,0,0,0-.6,1.4v39.1a12.053,12.053,0,0,0,2.1,7.1,8.067,8.067,0,0,0,1.6,1.65h0q2.835,2.353,7.95,2.35h17.2a1.815,1.815,0,0,0,1.4-.6l3.35-3.35,3.35,3.35a1.984,1.984,0,0,0,1.45.6h114.95a1.817,1.817,0,0,0,1.4-.6l3.35-3.35,3.35,3.35a1.992,1.992,0,0,0,1.45.6h45.45q.91,0,1.75-.05h.1a11.943,11.943,0,0,0,5.2-1.65.3.3,0,0,0,.1-.1,4.9,4.9,0,0,0,.7-.5.286.286,0,0,0,.15-.1,9.16,9.16,0,0,0,1.5-1.6.045.045,0,0,0,.05-.05,10.882,10.882,0,0,0,1.95-5,2.1,2.1,0,0,0,.1-.65v-.55a.611.611,0,0,0,.05-.25V307.1a1.958,1.958,0,0,0-.6-1.45l-3.3-3.3,3.3-3.3a2.009,2.009,0,0,0,.6-1.45V281.65a13.309,13.309,0,0,0-1.45-6.6V275q-2.66-5-10.2-5h-25.8a2.006,2.006,0,0,0-1.4.55l-4.05,4.05-4.05-4.05m4.05,6.9,3.45-3.45,2-2h25.8q6.2,0,8.45,4a11.737,11.737,0,0,1,1.2,5.65V297.6l-4.75,4.75,4.75,4.75v92.4a4.945,4.945,0,0,0-.05.7v.1a.444.444,0,0,0-.05.2,9.5,9.5,0,0,1-1.6,4.3,9.187,9.187,0,0,1-1.25,1.3l-.7.5a10.133,10.133,0,0,1-4.35,1.35q-.8.05-1.65.05H1112.9l-4.75-4.75-4.8,4.75H988.4l-4.75-4.75-4.8,4.75h-17.2a10.542,10.542,0,0,1-6.7-1.9,6.08,6.08,0,0,1-1.2-1.25,10.411,10.411,0,0,1-1.75-6V359.8l6.5-6.45-6.5-6.5V281.4a11.876,11.876,0,0,1,.15-1.95q.05-.25.1-.45l.05-.45a.144.144,0,0,1,.05-.1q1.4-6.45,9.3-6.45h160l2,2Z"/><path class="b" d="M1132.55,272l-2,2h27.8q4.4,0,6.8,2a8.258,8.258,0,0,1,2.75,5.65,2.054,2.054,0,0,1,.1.55v-.55a11.737,11.737,0,0,0-1.2-5.65q-2.25-4-8.45-4h-25.8m-8.9,2-2-2h-160q-7.9,0-9.3,6.45a.144.144,0,0,0-.05.1l-.05.45q-.05.2-.1.45a11.876,11.876,0,0,0-.15,1.95v.8a1.2,1.2,0,0,1,.15-.6,8.173,8.173,0,0,1,.45-2.15q1.55-4.7,7.15-5.35a17.218,17.218,0,0,1,1.9-.1Z"/><path class="c" d="M1130.55,274l-3.45,3.45-3.45-3.45h-162a17.218,17.218,0,0,0-1.9.1q-5.6.65-7.15,5.35a8.173,8.173,0,0,0-.45,2.15,1.2,1.2,0,0,0-.15.6v64.65l6.5,6.5L952,359.8v39.05a10.411,10.411,0,0,0,1.75,6,6.08,6.08,0,0,0,1.2,1.25,10.542,10.542,0,0,0,6.7,1.9h17.2l4.8-4.75L988.4,408h114.95l4.8-4.75,4.75,4.75h45.45q.85,0,1.65-.05a10.133,10.133,0,0,0,4.35-1.35l.7-.5a9.187,9.187,0,0,0,1.25-1.3,9.5,9.5,0,0,0,1.6-4.3.444.444,0,0,1,.05-.2v-.1a4.945,4.945,0,0,1,.05-.7V307.1l-4.75-4.75,4.75-4.75V282.2a2.054,2.054,0,0,0-.1-.55,8.258,8.258,0,0,0-2.75-5.65q-2.4-2-6.8-2h-27.8M1158,284V398H962V284Z"/><path class="d" d="M1158,395.5V286H962V398h196v-2.5M981.05,293.95a1.746,1.746,0,0,1,1.95,2V308a1.724,1.724,0,0,1-1.95,1.95H969a1.746,1.746,0,0,1-2-1.95V295.95a1.768,1.768,0,0,1,2-2h12.05M987.1,290h7.85a1.812,1.812,0,0,1,2.05,2.05v7.9a1.812,1.812,0,0,1-2.05,2.05H987.1a1.834,1.834,0,0,1-2.1-2.05v-7.9a1.834,1.834,0,0,1,2.1-2.05m-2.05,22a1.724,1.724,0,0,1,1.95,1.95v6.15a1.7,1.7,0,0,1-1.95,1.9H978.9a1.679,1.679,0,0,1-1.9-1.9v-6.15a1.7,1.7,0,0,1,1.9-1.95h6.15M1127,373.95a1.7,1.7,0,0,1,1.9-1.95h6.15a1.724,1.724,0,0,1,1.95,1.95v6.15a1.7,1.7,0,0,1-1.95,1.9h-6.15a1.679,1.679,0,0,1-1.9-1.9v-6.15m13.9-5.95h6.15a1.724,1.724,0,0,1,1.95,1.95v6.15a1.7,1.7,0,0,1-1.95,1.9h-6.15a1.679,1.679,0,0,1-1.9-1.9v-6.15a1.7,1.7,0,0,1,1.9-1.95m8.05,12a1.812,1.812,0,0,1,2.05,2.05v7.9a1.812,1.812,0,0,1-2.05,2.05h-7.85a1.834,1.834,0,0,1-2.1-2.05v-7.9a1.834,1.834,0,0,1,2.1-2.05Z"/><path class="e" d="M1151,382.05a1.812,1.812,0,0,0-2.05-2.05h-7.85a1.834,1.834,0,0,0-2.1,2.05v7.9a1.834,1.834,0,0,0,2.1,2.05h7.85a1.812,1.812,0,0,0,2.05-2.05v-7.9M1147.05,368h-6.15a1.7,1.7,0,0,0-1.9,1.95v6.15a1.679,1.679,0,0,0,1.9,1.9h6.15a1.7,1.7,0,0,0,1.95-1.9v-6.15a1.724,1.724,0,0,0-1.95-1.95m-18.15,4a1.7,1.7,0,0,0-1.9,1.95v6.15a1.679,1.679,0,0,0,1.9,1.9h6.15a1.7,1.7,0,0,0,1.95-1.9v-6.15a1.724,1.724,0,0,0-1.95-1.95h-6.15M987,313.95a1.724,1.724,0,0,0-1.95-1.95H978.9a1.7,1.7,0,0,0-1.9,1.95v6.15a1.679,1.679,0,0,0,1.9,1.9h6.15a1.7,1.7,0,0,0,1.95-1.9v-6.15M994.95,290H987.1a1.834,1.834,0,0,0-2.1,2.05v7.9a1.834,1.834,0,0,0,2.1,2.05h7.85a1.812,1.812,0,0,0,2.05-2.05v-7.9a1.812,1.812,0,0,0-2.05-2.05M983,295.95a1.746,1.746,0,0,0-1.95-2H969a1.768,1.768,0,0,0-2,2V308a1.746,1.746,0,0,0,2,1.95h12.05A1.724,1.724,0,0,0,983,308V295.95M1158,286v-2H962v2Z"/></g></svg>