<svg xmlns="http://www.w3.org/2000/svg" width="373.125" height="118.722" viewBox="0 0 373.125 118.722"><defs><style>.a{fill:#707f80;}.b{fill:#cfdada;}.c{fill:#acc0c1;}.d{fill:#97a9aa;}.e{fill:#8a9e9f;}</style></defs><g transform="translate(-950 -190)"><g transform="translate(950 190)"><path class="a" d="M1320.666,198.48q-4.511-8.475-17.3-8.48h-169.6a3.3,3.3,0,0,0-2.374.933l-11.618,11.533-11.533-11.533a3.244,3.244,0,0,0-2.375-.933H969.759q-15.909,0-18.911,12.89a2.31,2.31,0,0,0-.339,1.187,1,1,0,0,0,0,.17v.254q-.048.18-.085.339-.042.263-.085.509a.112.112,0,0,1-.085.085,27.912,27.912,0,0,0-.254,3.9v17.808a3.229,3.229,0,0,0,.933,2.374l6.53,6.53-6.445,6.445A3.264,3.264,0,0,0,950,244.866V289.9q.192,7.569,3.562,12.042a13.679,13.679,0,0,0,2.714,2.8h0q4.808,3.991,13.483,3.986h231.422a3.09,3.09,0,0,0,2.375-1.018l3.562-3.562,3.562,3.562a3.38,3.38,0,0,0,2.459,1.018h90.228q1.544,0,2.968-.085h.17a20.255,20.255,0,0,0,8.819-2.8.507.507,0,0,0,.17-.17,8.317,8.317,0,0,0,1.187-.848.485.485,0,0,0,.254-.17,15.537,15.537,0,0,0,2.544-2.714.076.076,0,0,0,.085-.085,18.458,18.458,0,0,0,3.307-8.48,3.57,3.57,0,0,0,.169-1.1v-.933a1.035,1.035,0,0,0,.085-.424V209.759q0-6.845-2.459-11.194v-.085m-17.3-5.088q10.516,0,14.332,6.784a19.906,19.906,0,0,1,2.035,9.583v81.155a8.4,8.4,0,0,0-.085,1.187v.17a.754.754,0,0,0-.084.339,16.106,16.106,0,0,1-2.714,7.293,15.589,15.589,0,0,1-2.12,2.2l-1.187.848a17.187,17.187,0,0,1-7.378,2.29q-1.357.085-2.8.085h-90.228l-5.936-5.936-6.021,5.936H969.759q-7.293,0-11.363-3.222a10.312,10.312,0,0,1-2.035-2.12q-2.8-3.816-2.968-10.176V244.866l8.9-8.819-8.9-8.9V209.335a20.139,20.139,0,0,1,.255-3.307q.085-.424.17-.763l.085-.763a.244.244,0,0,1,.085-.17q2.375-10.939,15.773-10.939h136.106l3.392,3.392,10.515,10.515,10.6-10.515,3.392-3.392Z" transform="translate(-950 -190)"/><path class="b" d="M1107.865,195.392,1104.472,192H968.367q-13.4,0-15.773,10.939a.244.244,0,0,0-.085.17l-.085.763q-.085.339-.17.763a20.139,20.139,0,0,0-.255,3.307V209.3a2.028,2.028,0,0,1,.255-1.018,13.862,13.862,0,0,1,.763-3.646q2.629-7.971,12.127-9.074a29.21,29.21,0,0,1,3.223-.17h139.5m208.441,3.392Q1312.49,192,1301.974,192h-169.6l-3.392,3.392h172.994q7.463,0,11.533,3.392,3.9,3.222,4.664,9.583a3.49,3.49,0,0,1,.169.933v-.933A19.906,19.906,0,0,0,1316.306,198.784Z" transform="translate(-948.608 -188.608)"/><path class="c" d="M1313.507,197.392q-4.07-3.392-11.533-3.392H1128.98l-10.6,10.515L1107.865,194h-139.5a29.21,29.21,0,0,0-3.223.17q-9.5,1.1-12.127,9.074a13.862,13.862,0,0,0-.763,3.646,2.028,2.028,0,0,0-.255,1.018v16.451l8.9,8.9-8.9,8.819v44.945q.17,6.36,2.968,10.176a10.312,10.312,0,0,0,2.035,2.12q4.07,3.222,11.363,3.222h231.422l6.021-5.936,5.936,5.936h90.228q1.442,0,2.8-.085a17.187,17.187,0,0,0,7.378-2.29l1.187-.848a15.589,15.589,0,0,0,2.12-2.2,16.106,16.106,0,0,0,2.714-7.293.754.754,0,0,1,.084-.339v-.17a8.4,8.4,0,0,1,.085-1.187V207.907a3.49,3.49,0,0,0-.169-.933q-.764-6.36-4.664-9.583m-12.127,13.568v74.625H968.96V210.96Z" transform="translate(-948.608 -187.216)"/><path class="d" d="M1294.42,272.993V206H962v71.233h332.42v-4.24m-52.577-26.119V236.444q0-3.307,3.222-3.307H1255.5q3.307,0,3.307,3.307v10.431q0,3.222-3.307,3.222h-10.431q-3.223,0-3.222-3.222M1021.361,229.66q0,3.477-3.477,3.477H1004.57q-3.562,0-3.562-3.477v-13.4q0-3.477,3.562-3.477h13.314q3.477,0,3.477,3.477v13.4m-27.052-10.176q3.307,0,3.307,3.392v20.437q0,3.307-3.307,3.307H973.872q-3.392,0-3.392-3.307V222.875q0-3.392,3.392-3.392h20.437m6.784,30.613q3.307,0,3.307,3.307v10.431q0,3.222-3.307,3.222H990.663q-3.222,0-3.222-3.222V253.4q0-3.307,3.222-3.307h10.431m264.325-23.744h10.431q3.307,0,3.307,3.307V240.09q0,3.222-3.307,3.222h-10.431q-3.223,0-3.222-3.222V229.66q0-3.307,3.222-3.307m13.653,20.352q3.477,0,3.477,3.477v13.4q0,3.477-3.477,3.477h-13.314q-3.562,0-3.562-3.477v-13.4q0-3.477,3.562-3.477Z" transform="translate(-941.648 -178.864)"/><path class="e" d="M1282.548,251.573q0-3.477-3.477-3.477h-13.314q-3.562,0-3.562,3.477v13.4q0,3.477,3.562,3.477h13.314q3.477,0,3.477-3.477v-13.4m-6.7-23.829h-10.431q-3.223,0-3.222,3.307v10.431q0,3.222,3.222,3.222h10.431q3.307,0,3.307-3.222V231.052q0-3.307-3.307-3.307M1004.4,254.8q0-3.307-3.307-3.307H990.663q-3.222,0-3.222,3.307v10.431q0,3.222,3.222,3.222h10.431q3.307,0,3.307-3.222V254.8m-6.784-30.528q0-3.392-3.307-3.392H973.872q-3.392,0-3.392,3.392V244.7q0,3.307,3.392,3.307h20.437q3.307,0,3.307-3.307V224.267m20.267,10.261q3.477,0,3.477-3.477v-13.4q0-3.477-3.477-3.477H1004.57q-3.562,0-3.562,3.477v13.4q0,3.477,3.562,3.477h13.314m223.96,3.307v10.431q0,3.222,3.222,3.222H1255.5q3.307,0,3.307-3.222V237.836q0-3.307-3.307-3.307h-10.431q-3.223,0-3.222,3.307m52.577-30.444V204H962v3.392Z" transform="translate(-941.648 -180.256)"/></g></g></svg>