<svg id="Group_2902" data-name="Group 2902" xmlns="http://www.w3.org/2000/svg" width="648.715" height="412.818" viewBox="0 0 648.715 412.818" style="width: 100%; height: 100%;" preserveAspectRatio="none">
  <defs>
    <style>
      .cls-1 {
        fill: #7b5633;
      }

      .cls-2 {
        fill: #bb844d;
      }

      .cls-3 {
        fill: #ae7640;
      }
    </style>
  </defs>
  <g id="Group_2765" data-name="Group 2765">
    <path id="Path_7884" data-name="Path 7884" class="cls-1" d="M951.474,522.41a4.02,4.02,0,0,0-.59,2.064,1.8,1.8,0,0,0,0,.295v.442q-.074.313-.147.59-.074.457-.147.885a.2.2,0,0,1-.147.147,48.565,48.565,0,0,0-.442,6.782V726.608a5.614,5.614,0,0,0,1.622,4.128l15.039,15.038-15.039,14.891A6.122,6.122,0,0,0,950,764.941V880.088q.333,13.16,6.192,20.936a23.789,23.789,0,0,0,4.718,4.865h0q8.359,6.938,23.442,6.929h50.865a5.379,5.379,0,0,0,4.128-1.769l9.878-9.731,9.731,9.731a5.849,5.849,0,0,0,4.276,1.769h339.1a5.4,5.4,0,0,0,4.128-1.769l9.878-9.731,9.731,9.731a5.874,5.874,0,0,0,4.276,1.769h134.018q2.684.006,5.16-.147h.295a35.217,35.217,0,0,0,15.333-4.865.883.883,0,0,0,.295-.295,14.449,14.449,0,0,0,2.064-1.474.842.842,0,0,0,.442-.295,27.017,27.017,0,0,0,4.423-4.718.132.132,0,0,0,.148-.147,32.089,32.089,0,0,0,5.75-14.744,6.206,6.206,0,0,0,.295-1.917v-1.622a1.8,1.8,0,0,0,.148-.737V609.4a5.774,5.774,0,0,0-1.769-4.276l-9.731-9.731,9.731-9.731a5.453,5.453,0,0,0,1.769-4.128V534.352q0-11.9-4.276-19.461v-.147Q1586.6,500.009,1564.362,500h-75.929a5.751,5.751,0,0,0-4.128,1.622l-12.09,11.942-11.942-11.942a5.64,5.64,0,0,0-4.128-1.622H984.353q-27.659,0-32.878,22.41m5.308,2.8a.424.424,0,0,1,.147-.295q4.128-19.019,27.423-19.019h471.792l5.9,5.9,10.173,10.173,10.32-10.173,5.9-5.9h75.929q18.282,0,24.917,11.795,3.538,6.487,3.538,16.66v47.179L1578.81,595.39l14.006,14.006v272.46a14.6,14.6,0,0,0-.147,2.064v.295a1.307,1.307,0,0,0-.147.59,28,28,0,0,1-4.718,12.679,27.088,27.088,0,0,1-3.686,3.833l-2.064,1.474a29.88,29.88,0,0,1-12.827,3.981q-2.359.147-4.865.147H1430.343l-14.006-14.006-14.006,14.006h-339.1l-14.006-14.006-14.006,14.006H984.353q-12.68,0-19.756-5.6a17.921,17.921,0,0,1-3.539-3.686Q956.192,891,955.9,879.94v-115l19.167-19.167L955.9,726.608V533.615a35.024,35.024,0,0,1,.442-5.75q.147-.737.295-1.327l.147-1.327m28.6,16.071V871.536H1563.33V541.282H985.385m5.9,324.357V547.179h566.15v318.46Z" transform="translate(-950 -500)"/>
    <path id="Path_7885" data-name="Path 7885" class="cls-2" d="M1588.919,532.077v-1.622q0-10.173-3.538-16.66Q1578.746,502,1560.464,502h-75.929l-5.9,5.9h81.826q12.974,0,20.051,5.9,6.782,5.6,8.109,16.66a6.065,6.065,0,0,1,.295,1.622M974.853,508.192a50.762,50.762,0,0,1,5.6-.295h477.689l-5.9-5.9H980.455q-23.295,0-27.423,19.019a.424.424,0,0,0-.147.295l-.147,1.327q-.147.59-.295,1.327a35.024,35.024,0,0,0-.442,5.75v2.359a3.526,3.526,0,0,1,.442-1.769,24.1,24.1,0,0,1,1.327-6.34q4.571-13.859,21.083-15.776m6.635,359.447v5.9h577.945v-5.9Z" transform="translate(-946.102 -496.102)"/>
    <path id="Path_7886" data-name="Path 7886" class="cls-3" d="M980.455,504a50.762,50.762,0,0,0-5.6.295q-16.513,1.917-21.083,15.776a24.1,24.1,0,0,0-1.327,6.34,3.526,3.526,0,0,0-.442,1.769V718.813l19.167,19.167L952,757.146v115q.295,11.058,5.16,17.692a17.921,17.921,0,0,0,3.539,3.686q7.077,5.6,19.756,5.6h50.865l14.006-14.006,14.006,14.006h339.1l14.006-14.006,14.006,14.006h134.018q2.506,0,4.865-.147A29.88,29.88,0,0,0,1578.156,895l2.064-1.474a27.088,27.088,0,0,0,3.686-3.833,28,28,0,0,0,4.718-12.679,1.307,1.307,0,0,1,.147-.59v-.295a14.6,14.6,0,0,1,.147-2.064V601.6L1574.913,587.6l14.006-13.859V528.179a6.065,6.065,0,0,0-.295-1.622q-1.327-11.058-8.109-16.66-7.077-5.9-20.051-5.9h-81.826l-10.32,10.173L1458.145,504H980.455m1.032,365.639V533.487h577.945V869.639Z" transform="translate(-946.102 -492.205)"/>
  </g>
</svg>
