<svg xmlns="http://www.w3.org/2000/svg" width="541.884" height="344.835" viewBox="0 0 541.884 344.835"><defs><style>.a{fill:#7b5633;}.b{fill:#ae7640;}.c{fill:#a06d3d;}.d{fill:#966639;}.e{fill:#946538;}.f{fill:#bb844d;}</style></defs><g transform="translate(-6256 4438)"><g transform="translate(6256 -4438)"><path class="a" d="M801.884,298.7q0-9.976-3.572-16.257Q791.785,270,773.189,270H288.7q-23.153,0-27.464,18.72a3.663,3.663,0,0,0-.493,1.847v.493a6588.99,6588.99,0,0,0-.246,1.232v.246a28.382,28.382,0,0,0-.493,5.542V587.495q.246,10.961,5.3,17.611a20.429,20.429,0,0,0,3.941,4.064h-.123q7.02,5.665,19.582,5.665H773.189q2.217,0,4.434-.123h.123a29.117,29.117,0,0,0,12.808-4.064.5.5,0,0,1,.369-.123l1.724-1.232.246-.246a34.509,34.509,0,0,0,3.818-3.941.109.109,0,0,1,.123-.123,29.359,29.359,0,0,0,4.68-12.439,5.031,5.031,0,0,0,.246-1.6V590.7a4.046,4.046,0,0,1,.123-.985V298.7m-4.926,0V588.973a12.188,12.188,0,0,0-.123,1.724v.246a1.092,1.092,0,0,0-.123.493,23.39,23.39,0,0,1-3.941,10.591,22.625,22.625,0,0,1-3.079,3.2l-1.724,1.232a24.961,24.961,0,0,1-10.714,3.325q-1.971.123-4.064.123H288.7q-10.591,0-16.5-4.68a14.977,14.977,0,0,1-2.956-3.079q-4.064-5.542-4.31-14.779V298.079a29.258,29.258,0,0,1,.369-4.8q.123-.616.246-1.108l.123-1.108a.355.355,0,0,1,.123-.246q3.448-15.887,22.907-15.887H773.189q15.271,0,20.813,9.852Q796.958,290.2,796.958,298.7Z" transform="translate(-260 -270)"/><path class="b" d="M787.012,278.926Q781.1,274,770.263,274H285.769a42.41,42.41,0,0,0-4.68.246q-13.793,1.6-17.611,13.178a20.135,20.135,0,0,0-1.108,5.3A2.943,2.943,0,0,0,262,294.2V581.519q.246,9.237,4.31,14.779a14.979,14.979,0,0,0,2.956,3.079q5.911,4.68,16.5,4.68H770.263q2.094,0,4.064-.123a24.96,24.96,0,0,0,10.714-3.325l1.724-1.231a22.623,22.623,0,0,0,3.079-3.2,23.389,23.389,0,0,0,3.941-10.591,1.093,1.093,0,0,1,.123-.493v-.246a12.189,12.189,0,0,1,.123-1.724V294.2a4.584,4.584,0,0,0-.246-1.355q-1.108-9.237-6.774-13.917m-17.611,19.7V579.426H286.631V298.631Z" transform="translate(-257.074 -264.148)"/><path class="c" d="M754.769,555.71V286H272V561.868H754.769V555.71m-76.356-53.08q0-4.8,4.68-4.8h15.148q4.8,0,4.8,4.8v15.148q0,4.68-4.8,4.68H683.093q-4.68,0-4.68-4.68V502.631m34.237-14.656H727.8q4.8,0,4.8,4.8v15.148q0,4.68-4.8,4.68H712.65q-4.68,0-4.68-4.68V492.778q0-4.8,4.68-4.8m19.828,29.557q5.049,0,5.049,5.049V542.04q0,5.049-5.049,5.049H713.143q-5.173,0-5.173-5.049V522.582q0-5.049,5.173-5.049h19.335M284.316,310.508q0-4.926,4.926-4.926h29.68q4.8,0,4.8,4.926v29.68q0,4.8-4.8,4.8h-29.68q-4.926,0-4.926-4.8v-29.68m49.509-14.656h19.335q5.049,0,5.049,5.049V320.36q0,5.049-5.049,5.049H333.824q-5.173,0-5.173-5.049V300.9q0-5.049,5.173-5.049m-5.049,54.188q4.8,0,4.8,4.8v15.148q0,4.68-4.8,4.68H313.627q-4.68,0-4.68-4.68V354.844q0-4.8,4.68-4.8Z" transform="translate(-242.443 -246.59)"/><path class="d" d="M326.262,348.992q0-4.8-4.8-4.8H306.311q-4.68,0-4.68,4.8V364.14q0,4.68,4.68,4.68h15.148q4.8,0,4.8-4.68V348.992M345.844,290H326.509q-5.173,0-5.173,5.049v19.459q0,5.049,5.173,5.049h19.335q5.049,0,5.049-5.049V295.049q0-5.049-5.049-5.049m-63.918,9.729q-4.926,0-4.926,4.926v29.68q0,4.8,4.926,4.8h29.68q4.8,0,4.8-4.8v-29.68q0-4.926-4.8-4.926h-29.68m448.286,217q0-5.049-5.049-5.049H705.827q-5.173,0-5.173,5.049v19.459q0,5.049,5.173,5.049h19.335q5.049,0,5.049-5.049V516.729m-9.729-34.607H705.335q-4.68,0-4.68,4.8v15.148q0,4.68,4.68,4.68h15.148q4.8,0,4.8-4.68V486.926q0-4.8-4.8-4.8m-44.705,9.852q-4.68,0-4.68,4.8v15.148q0,4.68,4.68,4.68h15.148q4.8,0,4.8-4.68V496.778q0-4.8-4.8-4.8Z" transform="translate(-235.127 -240.738)"/><path class="e" d="M754.769,288.926V284H272v4.926Z" transform="translate(-242.443 -249.516)"/><path class="f" d="M770.263,276.926q10.838,0,16.749,4.926,5.665,4.68,6.774,13.917a4.584,4.584,0,0,1,.246,1.355v-1.355q0-8.5-2.956-13.917Q785.534,272,770.263,272H285.769q-19.459,0-22.907,15.887a.355.355,0,0,0-.123.246l-.123,1.108q-.123.493-.246,1.108a29.258,29.258,0,0,0-.369,4.8v1.971a2.943,2.943,0,0,1,.369-1.478,20.135,20.135,0,0,1,1.108-5.3q3.818-11.577,17.611-13.178a42.41,42.41,0,0,1,4.68-.246Z" transform="translate(-257.074 -267.074)"/></g></g></svg>